<?xml version="1.0" encoding="utf-8" standalone="no"?>
<!DOCTYPE svg PUBLIC "-//W3C//DTD SVG 1.1//EN"
  "http://www.w3.org/Graphics/SVG/1.1/DTD/svg11.dtd">
<svg xmlns:xlink="http://www.w3.org/1999/xlink" width="318.157312pt" height="297.190125pt" viewBox="0 0 318.157312 297.190125" xmlns="http://www.w3.org/2000/svg" version="1.1">
 <metadata>
  <rdf:RDF xmlns:dc="http://purl.org/dc/elements/1.1/" xmlns:cc="http://creativecommons.org/ns#" xmlns:rdf="http://www.w3.org/1999/02/22-rdf-syntax-ns#">
   <cc:Work>
    <dc:type rdf:resource="http://purl.org/dc/dcmitype/StillImage"/>
    <dc:date>2024-07-16T17:07:24.278896</dc:date>
    <dc:format>image/svg+xml</dc:format>
    <dc:creator>
     <cc:Agent>
      <dc:title>Matplotlib v3.5.1, https://matplotlib.org/</dc:title>
     </cc:Agent>
    </dc:creator>
   </cc:Work>
  </rdf:RDF>
 </metadata>
 <defs>
  <style type="text/css">*{stroke-linejoin: round; stroke-linecap: butt}</style>
 </defs>
 <g id="figure_1">
  <g id="patch_1">
   <path d="M -0 297.190125 
L 318.157312 297.190125 
L 318.157312 0 
L -0 0 
z
" style="fill: #ffffff"/>
  </g>
  <g id="axes_1">
   <g id="patch_2">
    <path d="M 44.845313 273.312 
L 310.957312 273.312 
L 310.957312 7.2 
L 44.845313 7.2 
z
" style="fill: #ffffff"/>
   </g>
   <g id="line2d_1">
    <path d="M 189.757466 19.878455 
L 177.901312 19.296 
M 201.499438 21.620212 
L 189.757466 19.878455 
M 213.014147 24.504497 
L 201.499438 21.620212 
M 224.190701 28.503532 
L 213.014147 24.504497 
M 234.921462 33.578804 
L 224.190701 28.503532 
M 245.103088 39.681436 
L 234.921462 33.578804 
M 254.637524 46.752656 
L 245.103088 39.681436 
M 263.432949 54.724364 
L 254.637524 46.752656 
M 271.404657 63.519789 
L 263.432949 54.724364 
M 278.475877 73.054225 
L 271.404657 63.519789 
M 284.578509 83.235851 
L 278.475877 73.054225 
M 289.653781 93.966612 
L 284.578509 83.235851 
M 293.652816 105.143166 
L 289.653781 93.966612 
M 296.5371 116.657875 
L 293.652816 105.143166 
M 298.278857 128.399847 
L 298.861312 140.256 
M 298.278857 128.399847 
L 296.5371 116.657875 
M 189.700375 111.178106 
L 177.901312 110.016 
M 201.046007 114.619766 
L 189.700375 111.178106 
M 211.5022 120.208718 
L 201.046007 114.619766 
M 220.667131 127.730182 
L 211.5022 120.208718 
M 228.188595 136.895112 
L 220.667131 127.730182 
M 233.777547 147.351306 
L 228.188595 136.895112 
M 237.219206 158.696937 
L 238.381312 170.496 
M 237.219206 158.696937 
L 233.777547 147.351306 
M 298.278857 152.112153 
L 298.861312 140.256 
M 296.5371 163.854125 
L 298.278857 152.112153 
M 293.652815 175.368835 
L 296.5371 163.854125 
M 289.653781 186.545388 
L 293.652815 175.368835 
M 284.578509 197.276149 
L 289.653781 186.545388 
M 278.475877 207.457776 
L 284.578509 197.276149 
M 271.404657 216.992212 
L 278.475877 207.457776 
M 263.432949 225.787636 
L 271.404657 216.992212 
M 254.637524 233.759345 
L 263.432949 225.787636 
M 245.103088 240.830564 
L 254.637524 233.759345 
M 234.921462 246.933196 
L 245.103088 240.830564 
M 224.1907 252.008468 
L 234.921462 246.933196 
M 213.014147 256.007503 
L 224.1907 252.008468 
M 201.499438 258.891788 
L 213.014147 256.007503 
M 189.757466 260.633545 
L 177.901312 261.216 
M 189.757466 260.633545 
L 201.499438 258.891788 
M 237.219206 182.295063 
L 238.381312 170.496 
M 233.777547 193.640694 
L 237.219206 182.295063 
M 228.188595 204.096888 
L 233.777547 193.640694 
M 220.667131 213.261818 
L 228.188595 204.096888 
M 211.5022 220.783282 
L 220.667131 213.261818 
M 201.046006 226.372234 
L 211.5022 220.783282 
M 189.700375 229.813894 
L 177.901312 230.976 
M 189.700375 229.813894 
L 201.046006 226.372234 
M 166.045159 260.633545 
L 177.901312 261.216 
M 154.303187 258.891788 
L 166.045159 260.633545 
M 142.788478 256.007503 
L 154.303187 258.891788 
M 131.611924 252.008468 
L 142.788478 256.007503 
M 120.881163 246.933196 
L 131.611924 252.008468 
M 110.699537 240.830564 
L 120.881163 246.933196 
M 101.165101 233.759344 
L 110.699537 240.830564 
M 92.369676 225.787636 
L 101.165101 233.759344 
M 84.397968 216.992211 
L 92.369676 225.787636 
M 77.326748 207.457775 
L 84.397968 216.992211 
M 71.224116 197.276149 
L 77.326748 207.457775 
M 66.148844 186.545388 
L 71.224116 197.276149 
M 62.149809 175.368834 
L 66.148844 186.545388 
M 59.265525 163.854125 
L 62.149809 175.368834 
M 57.523768 152.112153 
L 56.941313 140.256 
M 57.523768 152.112153 
L 59.265525 163.854125 
M 166.10225 229.813894 
L 177.901312 230.976 
M 154.756618 226.372234 
L 166.10225 229.813894 
M 144.300425 220.783282 
L 154.756618 226.372234 
M 135.135494 213.261818 
L 144.300425 220.783282 
M 127.61403 204.096888 
L 135.135494 213.261818 
M 122.025078 193.640694 
L 127.61403 204.096888 
M 118.583419 182.295063 
L 117.421312 170.496 
M 118.583419 182.295063 
L 122.025078 193.640694 
M 57.523768 128.399847 
L 56.941313 140.256 
M 59.265525 116.657875 
L 57.523768 128.399847 
M 62.14981 105.143165 
L 59.265525 116.657875 
M 66.148844 93.966612 
L 62.14981 105.143165 
M 71.224116 83.235851 
L 66.148844 93.966612 
M 77.326748 73.054224 
L 71.224116 83.235851 
M 84.397968 63.519788 
L 77.326748 73.054224 
M 92.369676 54.724364 
L 84.397968 63.519788 
M 101.165101 46.752655 
L 92.369676 54.724364 
M 110.699537 39.681436 
L 101.165101 46.752655 
M 120.881163 33.578804 
L 110.699537 39.681436 
M 131.611925 28.503532 
L 120.881163 33.578804 
M 142.788478 24.504497 
L 131.611925 28.503532 
M 154.303187 21.620212 
L 142.788478 24.504497 
M 166.045159 19.878455 
L 177.901312 19.296 
M 166.045159 19.878455 
L 154.303187 21.620212 
M 118.583419 158.696937 
L 117.421312 170.496 
M 122.025078 147.351306 
L 118.583419 158.696937 
M 127.61403 136.895112 
L 122.025078 147.351306 
M 135.135494 127.730182 
L 127.61403 136.895112 
M 144.300425 120.208718 
L 135.135494 127.730182 
M 154.756619 114.619766 
L 144.300425 120.208718 
M 166.10225 111.178106 
L 177.901312 110.016 
M 166.10225 111.178106 
L 154.756619 114.619766 
M 171.681201 100.71146 
L 177.901312 110.016 
M 171.681201 100.71146 
L 166.10225 111.178106 
M 215.139158 36.183194 
L 213.014147 24.504497 
M 215.139158 36.183194 
L 224.190701 28.503532 
M 110.055686 51.937106 
L 101.165101 46.752655 
M 110.055686 51.937106 
L 110.699537 39.681436 
M 211.114278 108.358913 
L 201.046007 114.619766 
M 211.114278 108.358913 
L 211.5022 120.208718 
M 131.915357 116.21171 
L 135.135494 127.730182 
M 131.915357 116.21171 
L 144.300425 120.208718 
M 182.750429 29.461322 
L 177.901312 19.296 
M 182.750429 29.461322 
L 189.757466 19.878455 
M 140.440466 36.599825 
L 131.611925 28.503532 
M 140.440466 36.599825 
L 142.788478 24.504497 
M 280.236314 93.79657 
L 284.578509 83.235851 
M 280.236314 93.79657 
L 289.653781 93.966612 
M 244.473451 50.398007 
L 245.103088 39.681436 
M 244.473451 50.398007 
L 254.637524 46.752656 
M 70.469027 112.06434 
L 59.265525 116.657875 
M 70.469027 112.06434 
L 62.14981 105.143165 
M 89.382085 74.357002 
L 77.326748 73.054224 
M 89.382085 74.357002 
L 84.397968 63.519788 
M 239.878774 138.888569 
L 228.188595 136.895112 
M 239.878774 138.888569 
L 233.777547 147.351306 
M 110.478644 150.043557 
L 118.583419 158.696937 
M 110.478644 150.043557 
L 122.025078 147.351306 
M 287.575333 157.844644 
L 298.278857 152.112153 
M 287.575333 157.844644 
L 296.5371 163.854125 
M 288.609231 125.80942 
L 296.5371 116.657875 
M 288.609231 125.80942 
L 298.278857 128.399847 
M 73.520669 177.09473 
L 66.148844 186.545388 
M 73.520669 177.09473 
L 62.149809 175.368834 
M 67.197148 146.122616 
L 56.941313 140.256 
M 67.197148 146.122616 
L 57.523768 152.112153 
M 248.57657 175.875999 
L 238.381312 170.496 
M 248.57657 175.875999 
L 237.219206 182.295063 
M 84.182355 198.024679 
L 77.326748 207.457775 
M 84.182355 198.024679 
L 71.224116 197.276149 
M 266.997181 76.583393 
L 271.404657 63.519789 
M 266.997181 76.583393 
L 278.475877 73.054225 
M 77.326167 93.686394 
L 66.148844 93.966612 
M 77.326167 93.686394 
L 71.224116 83.235851 
M 162.598445 30.519883 
L 154.303187 21.620212 
M 162.598445 30.519883 
L 166.045159 19.878455 
M 266.057064 205.755852 
L 278.475877 207.457776 
M 266.057064 205.755852 
L 271.404657 216.992212 
M 280.678744 178.310188 
L 293.652815 175.368835 
M 280.678744 178.310188 
L 289.653781 186.545388 
M 107.226083 175.875988 
L 117.421312 170.496 
M 107.226083 175.875988 
L 118.583419 182.295063 
M 96.000883 214.486222 
L 92.369676 225.787636 
M 96.000883 214.486222 
L 84.397968 216.992211 
M 251.044012 223.29389 
L 263.432949 225.787636 
M 251.044012 223.29389 
L 254.637524 233.759345 
M 123.596431 214.235146 
L 135.135494 213.261818 
M 123.596431 214.235146 
L 127.61403 204.096888 
M 234.727241 235.064333 
L 245.103088 240.830564 
M 234.727241 235.064333 
L 234.921462 246.933196 
M 129.76221 242.526335 
L 131.611924 252.008468 
M 129.76221 242.526335 
L 120.881163 246.933196 
M 211.376067 234.127829 
L 211.5022 220.783282 
M 211.376067 234.127829 
L 201.046006 226.372234 
M 240.0384 203.708965 
L 233.777547 193.640694 
M 240.0384 203.708965 
L 228.188595 204.096888 
M 151.043696 247.477615 
L 154.303187 258.891788 
M 151.043696 247.477615 
L 142.788478 256.007503 
M 184.629676 240.460429 
L 177.901312 230.976 
M 184.629676 240.460429 
L 189.700375 229.813894 
M 111.240351 228.918761 
L 110.699537 240.830564 
M 111.240351 228.918761 
L 101.165101 233.759344 
M 184.216073 100.86546 
L 177.901312 110.016 
M 184.216073 100.86546 
L 189.700375 111.178106 
M 184.216073 100.86546 
L 171.681201 100.71146 
M 177.939448 90.117779 
L 171.681201 100.71146 
M 177.939448 90.117779 
L 184.216073 100.86546 
M 165.69156 90.204348 
L 171.681201 100.71146 
M 165.69156 90.204348 
L 177.939448 90.117779 
M 172.388451 79.653882 
L 177.939448 90.117779 
M 172.388451 79.653882 
L 165.69156 90.204348 
M 184.286566 80.032988 
L 177.939448 90.117779 
M 184.286566 80.032988 
L 172.388451 79.653882 
M 160.521868 79.053634 
L 165.69156 90.204348 
M 160.521868 79.053634 
L 172.388451 79.653882 
M 178.826599 69.565964 
L 172.388451 79.653882 
M 178.826599 69.565964 
L 184.286566 80.032988 
M 190.677528 70.099306 
L 184.286566 80.032988 
M 190.677528 70.099306 
L 178.826599 69.565964 
M 154.082236 88.849733 
L 165.69156 90.204348 
M 154.082236 88.849733 
L 160.521868 79.053634 
M 148.738243 77.967498 
L 160.521868 79.053634 
M 148.738243 77.967498 
L 154.082236 88.849733 
M 155.219421 68.335573 
L 160.521868 79.053634 
M 155.219421 68.335573 
L 148.738243 77.967498 
M 143.376257 67.629755 
L 148.738243 77.967498 
M 143.376257 67.629755 
L 155.219421 68.335573 
M 136.903857 77.232288 
L 148.738243 77.967498 
M 136.903857 77.232288 
L 143.376257 67.629755 
M 196.135392 80.543306 
L 184.286566 80.032988 
M 196.135392 80.543306 
L 190.677528 70.099306 
M 202.527316 70.635892 
L 190.677528 70.099306 
M 202.527316 70.635892 
L 196.135392 80.543306 
M 207.980912 81.168944 
L 196.135392 80.543306 
M 207.980912 81.168944 
L 202.527316 70.635892 
M 214.376767 71.192106 
L 202.527316 70.635892 
M 214.376767 71.192106 
L 207.980912 81.168944 
M 219.83567 81.616736 
L 207.980912 81.168944 
M 219.83567 81.616736 
L 214.376767 71.192106 
M 197.072568 60.118001 
L 190.677528 70.099306 
M 197.072568 60.118001 
L 202.527316 70.635892 
M 226.228231 71.721924 
L 214.376767 71.192106 
M 226.228231 71.721924 
L 219.83567 81.616736 
M 231.687961 82.14311 
L 219.83567 81.616736 
M 231.687961 82.14311 
L 226.228231 71.721924 
M 220.773447 61.202516 
L 214.376767 71.192106 
M 220.773447 61.202516 
L 226.228231 71.721924 
M 131.532638 66.952142 
L 143.376257 67.629755 
M 131.532638 66.952142 
L 136.903857 77.232288 
M 125.042459 76.879889 
L 136.903857 77.232288 
M 125.042459 76.879889 
L 131.532638 66.952142 
M 130.138985 86.61626 
L 136.903857 77.232288 
M 130.138985 86.61626 
L 125.042459 76.879889 
M 118.456685 86.6873 
L 125.042459 76.879889 
M 118.456685 86.6873 
L 130.138985 86.61626 
M 113.177267 76.254001 
L 125.042459 76.879889 
M 113.177267 76.254001 
L 118.456685 86.6873 
M 106.701839 86.232048 
L 118.456685 86.6873 
M 106.701839 86.232048 
L 113.177267 76.254001 
M 111.545035 96.459888 
L 118.456685 86.6873 
M 111.545035 96.459888 
L 106.701839 86.232048 
M 149.864626 57.762007 
L 155.219421 68.335573 
M 149.864626 57.762007 
L 143.376257 67.629755 
M 161.687922 58.415118 
L 155.219421 68.335573 
M 161.687922 58.415118 
L 149.864626 57.762007 
M 238.076167 72.352241 
L 226.228231 71.721924 
M 238.076167 72.352241 
L 231.687961 82.14311 
M 243.534218 82.811425 
L 231.687961 82.14311 
M 243.534218 82.811425 
L 238.076167 72.352241 
M 237.135832 92.815045 
L 231.687961 82.14311 
M 237.135832 92.815045 
L 243.534218 82.811425 
M 248.987849 93.357643 
L 243.534218 82.811425 
M 248.987849 93.357643 
L 237.135832 92.815045 
M 242.774004 103.468121 
L 237.135832 92.815045 
M 242.774004 103.468121 
L 248.987849 93.357643 
M 254.472209 103.914814 
L 248.987849 93.357643 
M 254.472209 103.914814 
L 242.774004 103.468121 
M 248.409598 113.738726 
L 242.774004 103.468121 
M 248.409598 113.738726 
L 254.472209 103.914814 
M 259.961276 114.409791 
L 254.472209 103.914814 
M 259.961276 114.409791 
L 248.409598 113.738726 
M 100.217539 96.164172 
L 106.701839 86.232048 
M 100.217539 96.164172 
L 111.545035 96.459888 
M 105.035649 106.398033 
L 111.545035 96.459888 
M 105.035649 106.398033 
L 100.217539 96.164172 
M 93.725683 106.097244 
L 100.217539 96.164172 
M 93.725683 106.097244 
L 105.035649 106.398033 
M 98.991131 116.623708 
L 105.035649 106.398033 
M 98.991131 116.623708 
L 93.725683 106.097244 
M 109.479344 116.945605 
L 105.035649 106.398033 
M 109.479344 116.945605 
L 98.991131 116.623708 
M 103.313936 127.710961 
L 98.991131 116.623708 
M 103.313936 127.710961 
L 109.479344 116.945605 
M 92.389045 126.677885 
L 98.991131 116.623708 
M 92.389045 126.677885 
L 103.313936 127.710961 
M 236.193949 113.341762 
L 242.774004 103.468121 
M 236.193949 113.341762 
L 248.409598 113.738726 
M 201.883582 91.085128 
L 196.135392 80.543306 
M 201.883582 91.085128 
L 207.980912 81.168944 
M 253.963557 123.755049 
L 248.409598 113.738726 
M 253.963557 123.755049 
L 259.961276 114.409791 
M 265.296898 124.924742 
L 259.961276 114.409791 
M 265.296898 124.924742 
L 253.963557 123.755049 
M 258.266216 135.565322 
L 253.963557 123.755049 
M 258.266216 135.565322 
L 265.296898 124.924742 
M 270.539357 135.669288 
L 265.296898 124.924742 
M 270.539357 135.669288 
L 258.266216 135.565322 
M 264.798616 145.975605 
L 258.266216 135.565322 
M 264.798616 145.975605 
L 270.539357 135.669288 
M 272.036126 114.640668 
L 259.961276 114.409791 
M 272.036126 114.640668 
L 265.296898 124.924742 
M 96.691904 137.583555 
L 103.313936 127.710961 
M 96.691904 137.583555 
L 92.389045 126.677885 
M 85.859355 136.620249 
L 92.389045 126.677885 
M 85.859355 136.620249 
L 96.691904 137.583555 
M 91.217787 146.109795 
L 96.691904 137.583555 
M 91.217787 146.109795 
L 85.859355 136.620249 
M 156.337288 48.098192 
L 149.864626 57.762007 
M 156.337288 48.098192 
L 161.687922 58.415118 
M 168.121491 48.967765 
L 161.687922 58.415118 
M 168.121491 48.967765 
L 156.337288 48.098192 
M 249.293365 72.646109 
L 238.076167 72.352241 
M 249.293365 72.646109 
L 243.534218 82.811425 
M 260.58554 94.037358 
L 248.987849 93.357643 
M 260.58554 94.037358 
L 254.472209 103.914814 
M 145.13534 107.324128 
L 144.300425 120.208718 
M 145.13534 107.324128 
L 154.756619 114.619766 
M 145.13534 107.324128 
L 131.915357 116.21171 
M 246.115897 150.241436 
L 233.777547 147.351306 
M 246.115897 150.241436 
L 237.219206 158.696937 
M 246.115897 150.241436 
L 239.878774 138.888569 
M 247.764942 163.548485 
L 238.381312 170.496 
M 247.764942 163.548485 
L 237.219206 158.696937 
M 247.764942 163.548485 
L 248.57657 175.875999 
M 247.764942 163.548485 
L 246.115897 150.241436 
M 258.183892 169.988728 
L 248.57657 175.875999 
M 258.183892 169.988728 
L 247.764942 163.548485 
M 259.2189 181.644859 
L 248.57657 175.875999 
M 259.2189 181.644859 
L 258.183892 169.988728 
M 106.70476 163.267167 
L 117.421312 170.496 
M 106.70476 163.267167 
L 118.583419 158.696937 
M 106.70476 163.267167 
L 110.478644 150.043557 
M 106.70476 163.267167 
L 107.226083 175.875988 
M 97.513954 170.496 
L 107.226083 175.875988 
M 97.513954 170.496 
L 106.70476 163.267167 
M 96.991476 182.015909 
L 107.226083 175.875988 
M 96.991476 182.015909 
L 97.513954 170.496 
M 232.082419 216.084307 
L 228.188595 204.096888 
M 232.082419 216.084307 
L 220.667131 213.261818 
M 232.082419 216.084307 
L 240.0384 203.708965 
M 116.396963 203.950777 
L 127.61403 204.096888 
M 116.396963 203.950777 
L 122.025078 193.640694 
M 116.396963 203.950777 
L 123.596431 214.235146 
M 170.872398 241.347355 
L 177.901312 230.976 
M 170.872398 241.347355 
L 166.10225 229.813894 
M 170.872398 241.347355 
L 184.629676 240.460429 
M 197.386594 239.361056 
L 201.046006 226.372234 
M 197.386594 239.361056 
L 189.700375 229.813894 
M 197.386594 239.361056 
L 211.376067 234.127829 
M 197.386594 239.361056 
L 184.629676 240.460429 
M 110.667686 193.806459 
L 122.025078 193.640694 
M 110.667686 193.806459 
L 118.583419 182.295063 
M 110.667686 193.806459 
L 116.396963 203.950777 
M 245.525386 193.861756 
L 237.219206 182.295063 
M 245.525386 193.861756 
L 233.777547 193.640694 
M 245.525386 193.861756 
L 240.0384 203.708965 
M 133.240924 103.657006 
L 131.915357 116.21171 
M 133.240924 103.657006 
L 145.13534 107.324128 
M 147.233417 235.011971 
L 154.756618 226.372234 
M 147.233417 235.011971 
L 144.300425 220.783282 
M 147.233417 235.011971 
L 151.043696 247.477615 
M 81.200999 126.329527 
L 92.389045 126.677885 
M 81.200999 126.329527 
L 85.859355 136.620249 
M 130.477861 223.959809 
L 144.300425 220.783282 
M 130.477861 223.959809 
L 135.135494 213.261818 
M 130.477861 223.959809 
L 123.596431 214.235146 
M 221.482184 224.859153 
L 220.667131 213.261818 
M 221.482184 224.859153 
L 211.5022 220.783282 
M 221.482184 224.859153 
L 211.376067 234.127829 
M 221.482184 224.859153 
L 232.082419 216.084307 
M 275.970098 145.671739 
L 270.539357 135.669288 
M 275.970098 145.671739 
L 264.798616 145.975605 
M 269.859368 156.029878 
L 264.798616 145.975605 
M 269.859368 156.029878 
L 275.970098 145.671739 
M 116.936177 137.910896 
L 122.025078 147.351306 
M 116.936177 137.910896 
L 127.61403 136.895112 
M 116.936177 137.910896 
L 110.478644 150.043557 
M 251.891472 203.322789 
L 266.057064 205.755852 
M 251.891472 203.322789 
L 240.0384 203.708965 
M 251.891472 203.322789 
L 245.525386 193.861756 
M 124.214928 127.414135 
L 127.61403 136.895112 
M 124.214928 127.414135 
L 135.135494 127.730182 
M 124.214928 127.414135 
L 131.915357 116.21171 
M 124.214928 127.414135 
L 116.936177 137.910896 
M 110.894285 215.637721 
L 96.000883 214.486222 
M 110.894285 215.637721 
L 123.596431 214.235146 
M 110.894285 215.637721 
L 111.240351 228.918761 
M 110.894285 215.637721 
L 116.396963 203.950777 
M 222.124077 113.786132 
L 211.5022 120.208718 
M 222.124077 113.786132 
L 220.667131 127.730182 
M 222.124077 113.786132 
L 211.114278 108.358913 
M 222.124077 113.786132 
L 236.193949 113.341762 
M 219.289873 101.590957 
L 211.114278 108.358913 
M 219.289873 101.590957 
L 222.124077 113.786132 
M 158.135158 101.886053 
L 154.756619 114.619766 
M 158.135158 101.886053 
L 166.10225 111.178106 
M 158.135158 101.886053 
L 171.681201 100.71146 
M 158.135158 101.886053 
L 165.69156 90.204348 
M 158.135158 101.886053 
L 154.082236 88.849733 
M 158.135158 101.886053 
L 145.13534 107.324128 
M 124.627823 108.141445 
L 131.915357 116.21171 
M 124.627823 108.141445 
L 133.240924 103.657006 
M 142.866676 96.507919 
L 154.082236 88.849733 
M 142.866676 96.507919 
L 145.13534 107.324128 
M 142.866676 96.507919 
L 133.240924 103.657006 
M 104.065715 204.202024 
L 96.000883 214.486222 
M 104.065715 204.202024 
L 116.396963 203.950777 
M 104.065715 204.202024 
L 110.667686 193.806459 
M 104.065715 204.202024 
L 110.894285 215.637721 
M 234.741617 127.030938 
L 220.667131 127.730182 
M 234.741617 127.030938 
L 228.188595 136.895112 
M 234.741617 127.030938 
L 239.878774 138.888569 
M 234.741617 127.030938 
L 236.193949 113.341762 
M 85.621718 176.931268 
L 73.520669 177.09473 
M 85.621718 176.931268 
L 97.513954 170.496 
M 85.621718 176.931268 
L 96.991476 182.015909 
M 87.503854 164.115068 
L 97.513954 170.496 
M 87.503854 164.115068 
L 85.621718 176.931268 
M 268.847284 175.973384 
L 280.678744 178.310188 
M 268.847284 175.973384 
L 258.183892 169.988728 
M 268.847284 175.973384 
L 259.2189 181.644859 
M 270.25965 186.068667 
L 280.678744 178.310188 
M 270.25965 186.068667 
L 259.2189 181.644859 
M 270.25965 186.068667 
L 268.847284 175.973384 
M 207.911066 244.657862 
L 213.014147 256.007503 
M 207.911066 244.657862 
L 211.376067 234.127829 
M 207.911066 244.657862 
L 197.386594 239.361056 
M 282.085543 135.583073 
L 288.609231 125.80942 
M 282.085543 135.583073 
L 270.539357 135.669288 
M 282.085543 135.583073 
L 275.970098 145.671739 
M 224.972272 237.98432 
L 234.921462 246.933196 
M 224.972272 237.98432 
L 224.1907 252.008468 
M 224.972272 237.98432 
L 234.727241 235.064333 
M 224.972272 237.98432 
L 211.376067 234.127829 
M 224.972272 237.98432 
L 221.482184 224.859153 
M 277.065173 165.266716 
L 287.575333 157.844644 
M 277.065173 165.266716 
L 280.678744 178.310188 
M 277.065173 165.266716 
L 269.859368 156.029878 
M 277.065173 165.266716 
L 268.847284 175.973384 
M 258.515168 157.061161 
L 264.798616 145.975605 
M 258.515168 157.061161 
L 246.115897 150.241436 
M 258.515168 157.061161 
L 247.764942 163.548485 
M 258.515168 157.061161 
L 258.183892 169.988728 
M 258.515168 157.061161 
L 269.859368 156.029878 
M 94.788312 85.190567 
L 89.382085 74.357002 
M 94.788312 85.190567 
L 106.701839 86.232048 
M 94.788312 85.190567 
L 100.217539 96.164172 
M 198.353756 103.073331 
L 189.700375 111.178106 
M 198.353756 103.073331 
L 201.046007 114.619766 
M 198.353756 103.073331 
L 211.114278 108.358913 
M 198.353756 103.073331 
L 184.216073 100.86546 
M 198.353756 103.073331 
L 201.883582 91.085128 
M 79.419888 145.946995 
L 67.197148 146.122616 
M 79.419888 145.946995 
L 85.859355 136.620249 
M 79.419888 145.946995 
L 91.217787 146.109795 
M 213.612201 91.069105 
L 207.980912 81.168944 
M 213.612201 91.069105 
L 219.83567 81.616736 
M 213.612201 91.069105 
L 201.883582 91.085128 
M 213.612201 91.069105 
L 219.289873 101.590957 
M 120.243468 66.702856 
L 131.532638 66.952142 
M 120.243468 66.702856 
L 125.042459 76.879889 
M 120.243468 66.702856 
L 113.177267 76.254001 
M 126.78096 56.626849 
L 131.532638 66.952142 
M 126.78096 56.626849 
L 120.243468 66.702856 
M 108.732902 64.422497 
L 110.055686 51.937106 
M 108.732902 64.422497 
L 113.177267 76.254001 
M 108.732902 64.422497 
L 120.243468 66.702856 
M 255.873781 82.606898 
L 266.997181 76.583393 
M 255.873781 82.606898 
L 243.534218 82.811425 
M 255.873781 82.606898 
L 248.987849 93.357643 
M 255.873781 82.606898 
L 249.293365 72.646109 
M 255.873781 82.606898 
L 260.58554 94.037358 
M 138.120887 57.127453 
L 143.376257 67.629755 
M 138.120887 57.127453 
L 131.532638 66.952142 
M 138.120887 57.127453 
L 149.864626 57.762007 
M 138.120887 57.127453 
L 126.78096 56.626849 
M 133.291354 46.639302 
L 140.440466 36.599825 
M 133.291354 46.639302 
L 126.78096 56.626849 
M 133.291354 46.639302 
L 138.120887 57.127453 
M 101.344925 75.645008 
L 89.382085 74.357002 
M 101.344925 75.645008 
L 113.177267 76.254001 
M 101.344925 75.645008 
L 106.701839 86.232048 
M 101.344925 75.645008 
L 94.788312 85.190567 
M 101.344925 75.645008 
L 108.732902 64.422497 
M 87.784738 116.432529 
L 93.725683 106.097244 
M 87.784738 116.432529 
L 98.991131 116.623708 
M 87.784738 116.432529 
L 92.389045 126.677885 
M 87.784738 116.432529 
L 81.200999 126.329527 
M 81.257262 106.279582 
L 70.469027 112.06434 
M 81.257262 106.279582 
L 77.326167 93.686394 
M 81.257262 106.279582 
L 93.725683 106.097244 
M 81.257262 106.279582 
L 87.784738 116.432529 
M 208.923163 60.657997 
L 202.527316 70.635892 
M 208.923163 60.657997 
L 214.376767 71.192106 
M 208.923163 60.657997 
L 197.072568 60.118001 
M 208.923163 60.657997 
L 220.773447 61.202516 
M 203.039304 50.348424 
L 197.072568 60.118001 
M 203.039304 50.348424 
L 208.923163 60.657997 
M 191.560779 49.842994 
L 197.072568 60.118001 
M 191.560779 49.842994 
L 203.039304 50.348424 
M 197.936202 40.257385 
L 203.039304 50.348424 
M 197.936202 40.257385 
L 191.560779 49.842994 
M 232.020208 62.159428 
L 226.228231 71.721924 
M 232.020208 62.159428 
L 220.773447 61.202516 
M 232.020208 62.159428 
L 238.076167 72.352241 
M 227.427183 51.888686 
L 220.773447 61.202516 
M 227.427183 51.888686 
L 232.020208 62.159428 
M 265.779061 104.683517 
L 254.472209 103.914814 
M 265.779061 104.683517 
L 259.961276 114.409791 
M 265.779061 104.683517 
L 272.036126 114.640668 
M 265.779061 104.683517 
L 260.58554 94.037358 
M 276.604286 103.995703 
L 280.236314 93.79657 
M 276.604286 103.995703 
L 272.036126 114.640668 
M 276.604286 103.995703 
L 265.779061 104.683517 
M 185.250912 59.641294 
L 178.826599 69.565964 
M 185.250912 59.641294 
L 190.677528 70.099306 
M 185.250912 59.641294 
L 197.072568 60.118001 
M 185.250912 59.641294 
L 191.560779 49.842994 
M 74.561024 135.841752 
L 67.197148 146.122616 
M 74.561024 135.841752 
L 85.859355 136.620249 
M 74.561024 135.841752 
L 81.200999 126.329527 
M 74.561024 135.841752 
L 79.419888 145.946995 
M 76.071918 157.797798 
L 67.197148 146.122616 
M 76.071918 157.797798 
L 87.503854 164.115068 
M 76.071918 157.797798 
L 79.419888 145.946995 
M 215.458875 48.730414 
L 215.139158 36.183194 
M 215.458875 48.730414 
L 220.773447 61.202516 
M 215.458875 48.730414 
L 208.923163 60.657997 
M 215.458875 48.730414 
L 203.039304 50.348424 
M 215.458875 48.730414 
L 227.427183 51.888686 
M 259.604322 193.4816 
L 266.057064 205.755852 
M 259.604322 193.4816 
L 259.2189 181.644859 
M 259.604322 193.4816 
L 245.525386 193.861756 
M 259.604322 193.4816 
L 251.891472 203.322789 
M 259.604322 193.4816 
L 270.25965 186.068667 
M 167.017798 69.018738 
L 172.388451 79.653882 
M 167.017798 69.018738 
L 160.521868 79.053634 
M 167.017798 69.018738 
L 178.826599 69.565964 
M 167.017798 69.018738 
L 155.219421 68.335573 
M 167.017798 69.018738 
L 161.687922 58.415118 
M 69.470659 124.487878 
L 57.523768 128.399847 
M 69.470659 124.487878 
L 59.265525 116.657875 
M 69.470659 124.487878 
L 70.469027 112.06434 
M 69.470659 124.487878 
L 81.200999 126.329527 
M 69.470659 124.487878 
L 74.561024 135.841752 
M 173.468366 59.123688 
L 178.826599 69.565964 
M 173.468366 59.123688 
L 161.687922 58.415118 
M 173.468366 59.123688 
L 168.121491 48.967765 
M 173.468366 59.123688 
L 185.250912 59.641294 
M 173.468366 59.123688 
L 167.017798 69.018738 
M 144.503527 47.290734 
L 140.440466 36.599825 
M 144.503527 47.290734 
L 149.864626 57.762007 
M 144.503527 47.290734 
L 156.337288 48.098192 
M 144.503527 47.290734 
L 138.120887 57.127453 
M 144.503527 47.290734 
L 133.291354 46.639302 
M 179.857364 49.40173 
L 168.121491 48.967765 
M 179.857364 49.40173 
L 191.560779 49.842994 
M 179.857364 49.40173 
L 185.250912 59.641294 
M 179.857364 49.40173 
L 173.468366 59.123688 
M 173.505637 38.204763 
L 182.750429 29.461322 
M 173.505637 38.204763 
L 162.598445 30.519883 
M 173.505637 38.204763 
L 168.121491 48.967765 
M 173.505637 38.204763 
L 179.857364 49.40173 
M 158.37993 237.92421 
L 166.10225 229.813894 
M 158.37993 237.92421 
L 154.756618 226.372234 
M 158.37993 237.92421 
L 151.043696 247.477615 
M 158.37993 237.92421 
L 170.872398 241.347355 
M 158.37993 237.92421 
L 147.233417 235.011971 
M 98.719997 154.126062 
L 110.478644 150.043557 
M 98.719997 154.126062 
L 91.217787 146.109795 
M 98.719997 154.126062 
L 106.70476 163.267167 
M 123.874494 97.479242 
L 130.138985 86.61626 
M 123.874494 97.479242 
L 118.456685 86.6873 
M 123.874494 97.479242 
L 111.545035 96.459888 
M 123.874494 97.479242 
L 133.240924 103.657006 
M 123.874494 97.479242 
L 124.627823 108.141445 
M 179.936122 250.634785 
L 177.901312 261.216 
M 179.936122 250.634785 
L 189.757466 260.633545 
M 179.936122 250.634785 
L 184.629676 240.460429 
M 179.936122 250.634785 
L 170.872398 241.347355 
M 93.579199 203.815559 
L 84.182355 198.024679 
M 93.579199 203.815559 
L 96.000883 214.486222 
M 93.579199 203.815559 
L 104.065715 204.202024 
M 190.469136 90.952999 
L 184.216073 100.86546 
M 190.469136 90.952999 
L 177.939448 90.117779 
M 190.469136 90.952999 
L 184.286566 80.032988 
M 190.469136 90.952999 
L 196.135392 80.543306 
M 190.469136 90.952999 
L 201.883582 91.085128 
M 190.469136 90.952999 
L 198.353756 103.073331 
M 96.439993 64.939247 
L 84.397968 63.519788 
M 96.439993 64.939247 
L 92.369676 54.724364 
M 96.439993 64.939247 
L 89.382085 74.357002 
M 96.439993 64.939247 
L 108.732902 64.422497 
M 96.439993 64.939247 
L 101.344925 75.645008 
M 243.842816 61.352567 
L 244.473451 50.398007 
M 243.842816 61.352567 
L 238.076167 72.352241 
M 243.842816 61.352567 
L 249.293365 72.646109 
M 243.842816 61.352567 
L 232.020208 62.159428 
M 244.504073 214.20031 
L 251.044012 223.29389 
M 244.504073 214.20031 
L 240.0384 203.708965 
M 244.504073 214.20031 
L 232.082419 216.084307 
M 244.504073 214.20031 
L 251.891472 203.322789 
M 255.794711 63.115342 
L 263.432949 54.724364 
M 255.794711 63.115342 
L 271.404657 63.519789 
M 255.794711 63.115342 
L 249.293365 72.646109 
M 255.794711 63.115342 
L 243.842816 61.352567 
M 162.041044 248.922726 
L 166.045159 260.633545 
M 162.041044 248.922726 
L 154.303187 258.891788 
M 162.041044 248.922726 
L 151.043696 247.477615 
M 162.041044 248.922726 
L 170.872398 241.347355 
M 162.041044 248.922726 
L 158.37993 237.92421 
M 88.912442 95.86769 
L 77.326167 93.686394 
M 88.912442 95.86769 
L 100.217539 96.164172 
M 88.912442 95.86769 
L 93.725683 106.097244 
M 88.912442 95.86769 
L 94.788312 85.190567 
M 88.912442 95.86769 
L 81.257262 106.279582 
M 97.824545 193.693381 
L 84.182355 198.024679 
M 97.824545 193.693381 
L 96.991476 182.015909 
M 97.824545 193.693381 
L 110.667686 193.806459 
M 97.824545 193.693381 
L 104.065715 204.202024 
M 97.824545 193.693381 
L 93.579199 203.815559 
M 225.315278 91.595475 
L 219.83567 81.616736 
M 225.315278 91.595475 
L 231.687961 82.14311 
M 225.315278 91.595475 
L 237.135832 92.815045 
M 225.315278 91.595475 
L 219.289873 101.590957 
M 225.315278 91.595475 
L 213.612201 91.069105 
M 239.210938 224.551777 
L 251.044012 223.29389 
M 239.210938 224.551777 
L 234.727241 235.064333 
M 239.210938 224.551777 
L 232.082419 216.084307 
M 239.210938 224.551777 
L 244.504073 214.20031 
M 191.643781 249.544988 
L 201.499438 258.891788 
M 191.643781 249.544988 
L 189.757466 260.633545 
M 191.643781 249.544988 
L 184.629676 240.460429 
M 191.643781 249.544988 
L 197.386594 239.361056 
M 191.643781 249.544988 
L 179.936122 250.634785 
M 258.055704 214.892115 
L 271.404657 216.992212 
M 258.055704 214.892115 
L 263.432949 225.787636 
M 258.055704 214.892115 
L 266.057064 205.755852 
M 258.055704 214.892115 
L 251.044012 223.29389 
M 258.055704 214.892115 
L 251.891472 203.322789 
M 258.055704 214.892115 
L 244.504073 214.20031 
M 277.455454 124.960734 
L 288.609231 125.80942 
M 277.455454 124.960734 
L 265.296898 124.924742 
M 277.455454 124.960734 
L 270.539357 135.669288 
M 277.455454 124.960734 
L 272.036126 114.640668 
M 277.455454 124.960734 
L 282.085543 135.583073 
M 140.301359 245.340831 
L 142.788478 256.007503 
M 140.301359 245.340831 
L 131.611924 252.008468 
M 140.301359 245.340831 
L 129.76221 242.526335 
M 140.301359 245.340831 
L 151.043696 247.477615 
M 140.301359 245.340831 
L 147.233417 235.011971 
M 122.799903 234.336838 
L 120.881163 246.933196 
M 122.799903 234.336838 
L 110.699537 240.830564 
M 122.799903 234.336838 
L 129.76221 242.526335 
M 122.799903 234.336838 
L 111.240351 228.918761 
M 122.799903 234.336838 
L 130.477861 223.959809 
M 102.334059 223.717937 
L 101.165101 233.759344 
M 102.334059 223.717937 
L 92.369676 225.787636 
M 102.334059 223.717937 
L 96.000883 214.486222 
M 102.334059 223.717937 
L 111.240351 228.918761 
M 102.334059 223.717937 
L 110.894285 215.637721 
M 77.007934 187.975014 
L 71.224116 197.276149 
M 77.007934 187.975014 
L 66.148844 186.545388 
M 77.007934 187.975014 
L 73.520669 177.09473 
M 77.007934 187.975014 
L 84.182355 198.024679 
M 77.007934 187.975014 
L 85.621718 176.931268 
M 83.159978 84.231955 
L 71.224116 83.235851 
M 83.159978 84.231955 
L 77.326748 73.054224 
M 83.159978 84.231955 
L 89.382085 74.357002 
M 83.159978 84.231955 
L 77.326167 93.686394 
M 83.159978 84.231955 
L 94.788312 85.190567 
M 83.159978 84.231955 
L 88.912442 95.86769 
M 274.054783 84.68006 
L 278.475877 73.054225 
M 274.054783 84.68006 
L 284.578509 83.235851 
M 274.054783 84.68006 
L 280.236314 93.79657 
M 274.054783 84.68006 
L 266.997181 76.583393 
M 152.259812 32.446539 
L 142.788478 24.504497 
M 152.259812 32.446539 
L 154.303187 21.620212 
M 152.259812 32.446539 
L 140.440466 36.599825 
M 152.259812 32.446539 
L 162.598445 30.519883 
M 69.107856 166.75612 
L 62.149809 175.368834 
M 69.107856 166.75612 
L 59.265525 163.854125 
M 69.107856 166.75612 
L 73.520669 177.09473 
M 69.107856 166.75612 
L 76.071918 157.797798 
M 287.575219 145.816017 
L 298.861312 140.256 
M 287.575219 145.816017 
L 298.278857 152.112153 
M 287.575219 145.816017 
L 287.575333 157.844644 
M 287.575219 145.816017 
L 275.970098 145.671739 
M 287.575219 145.816017 
L 282.085543 135.583073 
M 286.165571 113.137215 
L 293.652816 105.143166 
M 286.165571 113.137215 
L 296.5371 116.657875 
M 286.165571 113.137215 
L 288.609231 125.80942 
M 286.165571 113.137215 
L 272.036126 114.640668 
M 286.165571 113.137215 
L 276.604286 103.995703 
M 286.165571 113.137215 
L 277.455454 124.960734 
M 121.255358 46.301792 
L 110.699537 39.681436 
M 121.255358 46.301792 
L 120.881163 33.578804 
M 121.255358 46.301792 
L 110.055686 51.937106 
M 121.255358 46.301792 
L 126.78096 56.626849 
M 121.255358 46.301792 
L 133.291354 46.639302 
M 225.424094 40.53298 
L 224.190701 28.503532 
M 225.424094 40.53298 
L 234.921462 33.578804 
M 225.424094 40.53298 
L 215.139158 36.183194 
M 225.424094 40.53298 
L 227.427183 51.888686 
M 225.424094 40.53298 
L 215.458875 48.730414 
M 273.248214 196.805027 
L 284.578509 197.276149 
M 273.248214 196.805027 
L 278.475877 207.457776 
M 273.248214 196.805027 
L 266.057064 205.755852 
M 273.248214 196.805027 
L 270.25965 186.068667 
M 273.248214 196.805027 
L 259.604322 193.4816 
M 186.251707 40.073139 
L 182.750429 29.461322 
M 186.251707 40.073139 
L 191.560779 49.842994 
M 186.251707 40.073139 
L 197.936202 40.257385 
M 186.251707 40.073139 
L 179.857364 49.40173 
M 186.251707 40.073139 
L 173.505637 38.204763 
M 230.472169 102.766249 
L 237.135832 92.815045 
M 230.472169 102.766249 
L 242.774004 103.468121 
M 230.472169 102.766249 
L 236.193949 113.341762 
M 230.472169 102.766249 
L 222.124077 113.786132 
M 230.472169 102.766249 
L 219.289873 101.590957 
M 230.472169 102.766249 
L 225.315278 91.595475 
M 235.461939 44.950423 
L 234.921462 33.578804 
M 235.461939 44.950423 
L 245.103088 39.681436 
M 235.461939 44.950423 
L 244.473451 50.398007 
M 235.461939 44.950423 
L 227.427183 51.888686 
M 235.461939 44.950423 
L 225.424094 40.53298 
M 194.208536 29.795284 
L 189.757466 19.878455 
M 194.208536 29.795284 
L 201.499438 21.620212 
M 194.208536 29.795284 
L 182.750429 29.461322 
M 194.208536 29.795284 
L 197.936202 40.257385 
M 194.208536 29.795284 
L 186.251707 40.073139 
M 204.847838 32.305005 
L 201.499438 21.620212 
M 204.847838 32.305005 
L 213.014147 24.504497 
M 204.847838 32.305005 
L 215.139158 36.183194 
M 204.847838 32.305005 
L 197.936202 40.257385 
M 204.847838 32.305005 
L 194.208536 29.795284 
M 88.325606 187.72805 
L 84.182355 198.024679 
M 88.325606 187.72805 
L 96.991476 182.015909 
M 88.325606 187.72805 
L 85.621718 176.931268 
M 88.325606 187.72805 
L 97.824545 193.693381 
M 88.325606 187.72805 
L 77.007934 187.975014 
M 249.521683 140.673054 
L 239.878774 138.888569 
M 249.521683 140.673054 
L 258.266216 135.565322 
M 249.521683 140.673054 
L 246.115897 150.241436 
M 172.560197 27.472085 
L 177.901312 19.296 
M 172.560197 27.472085 
L 166.045159 19.878455 
M 172.560197 27.472085 
L 182.750429 29.461322 
M 172.560197 27.472085 
L 162.598445 30.519883 
M 172.560197 27.472085 
L 173.505637 38.204763 
M 286.96198 167.763632 
L 296.5371 163.854125 
M 286.96198 167.763632 
L 293.652815 175.368835 
M 286.96198 167.763632 
L 287.575333 157.844644 
M 286.96198 167.763632 
L 280.678744 178.310188 
M 286.96198 167.763632 
L 277.065173 165.266716 
M 101.752672 56.555174 
L 92.369676 54.724364 
M 101.752672 56.555174 
L 101.165101 46.752655 
M 101.752672 56.555174 
L 110.055686 51.937106 
M 101.752672 56.555174 
L 108.732902 64.422497 
M 101.752672 56.555174 
L 96.439993 64.939247 
M 71.470222 102.228019 
L 62.14981 105.143165 
M 71.470222 102.228019 
L 66.148844 93.966612 
M 71.470222 102.228019 
L 70.469027 112.06434 
M 71.470222 102.228019 
L 77.326167 93.686394 
M 71.470222 102.228019 
L 81.257262 106.279582 
M 142.044219 86.478934 
L 154.082236 88.849733 
M 142.044219 86.478934 
L 148.738243 77.967498 
M 142.044219 86.478934 
L 136.903857 77.232288 
M 142.044219 86.478934 
L 130.138985 86.61626 
M 142.044219 86.478934 
L 142.866676 96.507919 
M 279.683779 189.001084 
L 289.653781 186.545388 
M 279.683779 189.001084 
L 284.578509 197.276149 
M 279.683779 189.001084 
L 280.678744 178.310188 
M 279.683779 189.001084 
L 270.25965 186.068667 
M 279.683779 189.001084 
L 273.248214 196.805027 
M 244.006115 122.168314 
L 248.409598 113.738726 
M 244.006115 122.168314 
L 236.193949 113.341762 
M 244.006115 122.168314 
L 253.963557 123.755049 
M 244.006115 122.168314 
L 234.741617 127.030938 
M 119.801766 223.417655 
L 123.596431 214.235146 
M 119.801766 223.417655 
L 111.240351 228.918761 
M 119.801766 223.417655 
L 130.477861 223.959809 
M 119.801766 223.417655 
L 110.894285 215.637721 
M 119.801766 223.417655 
L 122.799903 234.336838 
M 87.251341 154.929625 
L 91.217787 146.109795 
M 87.251341 154.929625 
L 87.503854 164.115068 
M 87.251341 154.929625 
L 79.419888 145.946995 
M 87.251341 154.929625 
L 76.071918 157.797798 
M 87.251341 154.929625 
L 98.719997 154.126062 
M 78.365203 168.538997 
L 73.520669 177.09473 
M 78.365203 168.538997 
L 85.621718 176.931268 
M 78.365203 168.538997 
L 87.503854 164.115068 
M 78.365203 168.538997 
L 76.071918 157.797798 
M 78.365203 168.538997 
L 69.107856 166.75612 
M 207.36789 99.35739 
L 211.114278 108.358913 
M 207.36789 99.35739 
L 201.883582 91.085128 
M 207.36789 99.35739 
L 219.289873 101.590957 
M 207.36789 99.35739 
L 198.353756 103.073331 
M 207.36789 99.35739 
L 213.612201 91.069105 
M 106.878566 139.452076 
L 110.478644 150.043557 
M 106.878566 139.452076 
L 103.313936 127.710961 
M 106.878566 139.452076 
L 96.691904 137.583555 
M 106.878566 139.452076 
L 116.936177 137.910896 
M 161.194612 40.04902 
L 162.598445 30.519883 
M 161.194612 40.04902 
L 156.337288 48.098192 
M 161.194612 40.04902 
L 168.121491 48.967765 
M 161.194612 40.04902 
L 173.505637 38.204763 
M 161.194612 40.04902 
L 152.259812 32.446539 
M 113.874 127.840653 
L 109.479344 116.945605 
M 113.874 127.840653 
L 103.313936 127.710961 
M 113.874 127.840653 
L 116.936177 137.910896 
M 113.874 127.840653 
L 124.214928 127.414135 
M 113.874 127.840653 
L 106.878566 139.452076 
M 64.849919 134.78161 
L 56.941313 140.256 
M 64.849919 134.78161 
L 57.523768 128.399847 
M 64.849919 134.78161 
L 67.197148 146.122616 
M 64.849919 134.78161 
L 74.561024 135.841752 
M 64.849919 134.78161 
L 69.470659 124.487878 
M 266.494177 164.863973 
L 258.183892 169.988728 
M 266.494177 164.863973 
L 269.859368 156.029878 
M 266.494177 164.863973 
L 268.847284 175.973384 
M 266.494177 164.863973 
L 277.065173 165.266716 
M 266.494177 164.863973 
L 258.515168 157.061161 
M 245.077355 231.437141 
L 254.637524 233.759345 
M 245.077355 231.437141 
L 245.103088 240.830564 
M 245.077355 231.437141 
L 251.044012 223.29389 
M 245.077355 231.437141 
L 234.727241 235.064333 
M 245.077355 231.437141 
L 239.210938 224.551777 
M 216.999541 245.197127 
L 224.1907 252.008468 
M 216.999541 245.197127 
L 213.014147 256.007503 
M 216.999541 245.197127 
L 211.376067 234.127829 
M 216.999541 245.197127 
L 207.911066 244.657862 
M 216.999541 245.197127 
L 224.972272 237.98432 
M 207.284275 41.564884 
L 215.139158 36.183194 
M 207.284275 41.564884 
L 203.039304 50.348424 
M 207.284275 41.564884 
L 197.936202 40.257385 
M 207.284275 41.564884 
L 215.458875 48.730414 
M 207.284275 41.564884 
L 204.847838 32.305005 
M 129.462749 38.136242 
L 120.881163 33.578804 
M 129.462749 38.136242 
L 131.611925 28.503532 
M 129.462749 38.136242 
L 140.440466 36.599825 
M 129.462749 38.136242 
L 133.291354 46.639302 
M 129.462749 38.136242 
L 121.255358 46.301792 
M 264.783043 85.688015 
L 266.997181 76.583393 
M 264.783043 85.688015 
L 260.58554 94.037358 
M 264.783043 85.688015 
L 255.873781 82.606898 
M 264.783043 85.688015 
L 274.054783 84.68006 
M 247.485631 131.603403 
L 239.878774 138.888569 
M 247.485631 131.603403 
L 253.963557 123.755049 
M 247.485631 131.603403 
L 258.266216 135.565322 
M 247.485631 131.603403 
L 234.741617 127.030938 
M 247.485631 131.603403 
L 249.521683 140.673054 
M 247.485631 131.603403 
L 244.006115 122.168314 
M 228.431693 120.472254 
L 220.667131 127.730182 
M 228.431693 120.472254 
L 236.193949 113.341762 
M 228.431693 120.472254 
L 222.124077 113.786132 
M 228.431693 120.472254 
L 234.741617 127.030938 
M 115.08121 106.221642 
L 111.545035 96.459888 
M 115.08121 106.221642 
L 105.035649 106.398033 
M 115.08121 106.221642 
L 109.479344 116.945605 
M 115.08121 106.221642 
L 124.627823 108.141445 
M 115.08121 106.221642 
L 123.874494 97.479242 
M 135.812529 233.659844 
L 144.300425 220.783282 
M 135.812529 233.659844 
L 129.76221 242.526335 
M 135.812529 233.659844 
L 147.233417 235.011971 
M 135.812529 233.659844 
L 130.477861 223.959809 
M 135.812529 233.659844 
L 140.301359 245.340831 
M 135.812529 233.659844 
L 122.799903 234.336838 
M 291.082033 135.172871 
L 298.861312 140.256 
M 291.082033 135.172871 
L 298.278857 128.399847 
M 291.082033 135.172871 
L 288.609231 125.80942 
M 291.082033 135.172871 
L 282.085543 135.583073 
M 291.082033 135.172871 
L 287.575219 145.816017 
M 200.62994 249.939113 
L 213.014147 256.007503 
M 200.62994 249.939113 
L 201.499438 258.891788 
M 200.62994 249.939113 
L 197.386594 239.361056 
M 200.62994 249.939113 
L 207.911066 244.657862 
M 200.62994 249.939113 
L 191.643781 249.544988 
M 150.725601 40.906385 
L 140.440466 36.599825 
M 150.725601 40.906385 
L 156.337288 48.098192 
M 150.725601 40.906385 
L 144.503527 47.290734 
M 150.725601 40.906385 
L 152.259812 32.446539 
M 150.725601 40.906385 
L 161.194612 40.04902 
M 270.340505 94.480204 
L 280.236314 93.79657 
M 270.340505 94.480204 
L 260.58554 94.037358 
M 270.340505 94.480204 
L 265.779061 104.683517 
M 270.340505 94.480204 
L 276.604286 103.995703 
M 270.340505 94.480204 
L 274.054783 84.68006 
M 270.340505 94.480204 
L 264.783043 85.688015 
M 106.258642 185.53736 
L 118.583419 182.295063 
M 106.258642 185.53736 
L 107.226083 175.875988 
M 106.258642 185.53736 
L 96.991476 182.015909 
M 106.258642 185.53736 
L 110.667686 193.806459 
M 106.258642 185.53736 
L 97.824545 193.693381 
M 250.028877 185.431855 
L 237.219206 182.295063 
M 250.028877 185.431855 
L 248.57657 175.875999 
M 250.028877 185.431855 
L 259.2189 181.644859 
M 250.028877 185.431855 
L 245.525386 193.861756 
M 250.028877 185.431855 
L 259.604322 193.4816 
M 252.134167 55.222364 
L 254.637524 46.752656 
M 252.134167 55.222364 
L 263.432949 54.724364 
M 252.134167 55.222364 
L 244.473451 50.398007 
M 252.134167 55.222364 
L 243.842816 61.352567 
M 252.134167 55.222364 
L 255.794711 63.115342 
M 278.856836 154.459751 
L 287.575333 157.844644 
M 278.856836 154.459751 
L 275.970098 145.671739 
M 278.856836 154.459751 
L 269.859368 156.029878 
M 278.856836 154.459751 
L 277.065173 165.266716 
M 278.856836 154.459751 
L 287.575219 145.816017 
M 78.398594 117.345034 
L 70.469027 112.06434 
M 78.398594 117.345034 
L 81.200999 126.329527 
M 78.398594 117.345034 
L 87.784738 116.432529 
M 78.398594 117.345034 
L 81.257262 106.279582 
M 78.398594 117.345034 
L 69.470659 124.487878 
M 119.865444 117.129198 
L 131.915357 116.21171 
M 119.865444 117.129198 
L 109.479344 116.945605 
M 119.865444 117.129198 
L 124.214928 127.414135 
M 119.865444 117.129198 
L 124.627823 108.141445 
M 119.865444 117.129198 
L 113.874 127.840653 
M 119.865444 117.129198 
L 115.08121 106.221642 
M 170.544401 252.630092 
L 177.901312 261.216 
M 170.544401 252.630092 
L 166.045159 260.633545 
M 170.544401 252.630092 
L 170.872398 241.347355 
M 170.544401 252.630092 
L 179.936122 250.634785 
M 170.544401 252.630092 
L 162.041044 248.922726 
M 259.872739 71.694306 
L 271.404657 63.519789 
M 259.872739 71.694306 
L 266.997181 76.583393 
M 259.872739 71.694306 
L 249.293365 72.646109 
M 259.872739 71.694306 
L 255.873781 82.606898 
M 259.872739 71.694306 
L 255.794711 63.115342 
M 255.563053 146.235666 
L 258.266216 135.565322 
M 255.563053 146.235666 
L 264.798616 145.975605 
M 255.563053 146.235666 
L 246.115897 150.241436 
M 255.563053 146.235666 
L 258.515168 157.061161 
M 255.563053 146.235666 
L 249.521683 140.673054 
M 100.79738 145.463009 
L 110.478644 150.043557 
M 100.79738 145.463009 
L 96.691904 137.583555 
M 100.79738 145.463009 
L 91.217787 146.109795 
M 100.79738 145.463009 
L 98.719997 154.126062 
M 100.79738 145.463009 
L 106.878566 139.452076 
M 117.624965 57.77933 
L 110.055686 51.937106 
M 117.624965 57.77933 
L 120.243468 66.702856 
M 117.624965 57.77933 
L 126.78096 56.626849 
M 117.624965 57.77933 
L 108.732902 64.422497 
M 117.624965 57.77933 
L 121.255358 46.301792 
M 236.64512 54.149822 
L 244.473451 50.398007 
M 236.64512 54.149822 
L 232.020208 62.159428 
M 236.64512 54.149822 
L 227.427183 51.888686 
M 236.64512 54.149822 
L 243.842816 61.352567 
M 236.64512 54.149822 
L 235.461939 44.950423 
M 134.398982 94.885701 
L 130.138985 86.61626 
M 134.398982 94.885701 
L 133.240924 103.657006 
M 134.398982 94.885701 
L 142.866676 96.507919 
M 134.398982 94.885701 
L 123.874494 97.479242 
M 134.398982 94.885701 
L 142.044219 86.478934 
M 151.063539 97.42035 
L 154.082236 88.849733 
M 151.063539 97.42035 
L 145.13534 107.324128 
M 151.063539 97.42035 
L 158.135158 101.886053 
M 151.063539 97.42035 
L 142.866676 96.507919 
M 230.703498 227.562554 
L 234.727241 235.064333 
M 230.703498 227.562554 
L 232.082419 216.084307 
M 230.703498 227.562554 
L 221.482184 224.859153 
M 230.703498 227.562554 
L 224.972272 237.98432 
M 230.703498 227.562554 
L 239.210938 224.551777 
M 65.138341 157.211804 
L 59.265525 163.854125 
M 65.138341 157.211804 
L 57.523768 152.112153 
M 65.138341 157.211804 
L 67.197148 146.122616 
M 65.138341 157.211804 
L 76.071918 157.797798 
M 65.138341 157.211804 
L 69.107856 166.75612 
M 285.934799 101.601001 
L 289.653781 93.966612 
M 285.934799 101.601001 
L 293.652816 105.143166 
M 285.934799 101.601001 
L 280.236314 93.79657 
M 285.934799 101.601001 
L 276.604286 103.995703 
M 285.934799 101.601001 
L 286.165571 113.137215 
M 86.40994 208.393555 
L 84.397968 216.992211 
M 86.40994 208.393555 
L 77.326748 207.457775 
M 86.40994 208.393555 
L 84.182355 198.024679 
M 86.40994 208.393555 
L 96.000883 214.486222 
M 86.40994 208.393555 
L 93.579199 203.815559 
M 95.722767 162.26378 
L 106.70476 163.267167 
M 95.722767 162.26378 
L 97.513954 170.496 
M 95.722767 162.26378 
L 87.503854 164.115068 
M 95.722767 162.26378 
L 98.719997 154.126062 
M 95.722767 162.26378 
L 87.251341 154.929625 
L 87.251341 154.929625 
" clip-path="url(#p0d2046de40)" style="fill: none; stroke: #808080; stroke-width: 1.5; stroke-linecap: square"/>
   </g>
   <g id="matplotlib.axis_1">
    <g id="xtick_1">
     <g id="line2d_2">
      <defs>
       <path id="m95b6597afd" d="M 0 0 
L 0 3.5 
" style="stroke: #000000; stroke-width: 0.8"/>
      </defs>
      <g>
       <use xlink:href="#m95b6597afd" x="56.941313" y="273.312" style="stroke: #000000; stroke-width: 0.8"/>
      </g>
     </g>
     <g id="text_1">
      <!-- −1.0 -->
      <g transform="translate(44.799906 287.910437)scale(0.1 -0.1)">
       <defs>
        <path id="DejaVuSans-2212" d="M 678 2272 
L 4684 2272 
L 4684 1741 
L 678 1741 
L 678 2272 
z
" transform="scale(0.015625)"/>
        <path id="DejaVuSans-31" d="M 794 531 
L 1825 531 
L 1825 4091 
L 703 3866 
L 703 4441 
L 1819 4666 
L 2450 4666 
L 2450 531 
L 3481 531 
L 3481 0 
L 794 0 
L 794 531 
z
" transform="scale(0.015625)"/>
        <path id="DejaVuSans-2e" d="M 684 794 
L 1344 794 
L 1344 0 
L 684 0 
L 684 794 
z
" transform="scale(0.015625)"/>
        <path id="DejaVuSans-30" d="M 2034 4250 
Q 1547 4250 1301 3770 
Q 1056 3291 1056 2328 
Q 1056 1369 1301 889 
Q 1547 409 2034 409 
Q 2525 409 2770 889 
Q 3016 1369 3016 2328 
Q 3016 3291 2770 3770 
Q 2525 4250 2034 4250 
z
M 2034 4750 
Q 2819 4750 3233 4129 
Q 3647 3509 3647 2328 
Q 3647 1150 3233 529 
Q 2819 -91 2034 -91 
Q 1250 -91 836 529 
Q 422 1150 422 2328 
Q 422 3509 836 4129 
Q 1250 4750 2034 4750 
z
" transform="scale(0.015625)"/>
       </defs>
       <use xlink:href="#DejaVuSans-2212"/>
       <use xlink:href="#DejaVuSans-31" x="83.789062"/>
       <use xlink:href="#DejaVuSans-2e" x="147.412109"/>
       <use xlink:href="#DejaVuSans-30" x="179.199219"/>
      </g>
     </g>
    </g>
    <g id="xtick_2">
     <g id="line2d_3">
      <g>
       <use xlink:href="#m95b6597afd" x="117.421312" y="273.312" style="stroke: #000000; stroke-width: 0.8"/>
      </g>
     </g>
     <g id="text_2">
      <!-- −0.5 -->
      <g transform="translate(105.279906 287.910437)scale(0.1 -0.1)">
       <defs>
        <path id="DejaVuSans-35" d="M 691 4666 
L 3169 4666 
L 3169 4134 
L 1269 4134 
L 1269 2991 
Q 1406 3038 1543 3061 
Q 1681 3084 1819 3084 
Q 2600 3084 3056 2656 
Q 3513 2228 3513 1497 
Q 3513 744 3044 326 
Q 2575 -91 1722 -91 
Q 1428 -91 1123 -41 
Q 819 9 494 109 
L 494 744 
Q 775 591 1075 516 
Q 1375 441 1709 441 
Q 2250 441 2565 725 
Q 2881 1009 2881 1497 
Q 2881 1984 2565 2268 
Q 2250 2553 1709 2553 
Q 1456 2553 1204 2497 
Q 953 2441 691 2322 
L 691 4666 
z
" transform="scale(0.015625)"/>
       </defs>
       <use xlink:href="#DejaVuSans-2212"/>
       <use xlink:href="#DejaVuSans-30" x="83.789062"/>
       <use xlink:href="#DejaVuSans-2e" x="147.412109"/>
       <use xlink:href="#DejaVuSans-35" x="179.199219"/>
      </g>
     </g>
    </g>
    <g id="xtick_3">
     <g id="line2d_4">
      <g>
       <use xlink:href="#m95b6597afd" x="177.901312" y="273.312" style="stroke: #000000; stroke-width: 0.8"/>
      </g>
     </g>
     <g id="text_3">
      <!-- 0.0 -->
      <g transform="translate(169.94975 287.910437)scale(0.1 -0.1)">
       <use xlink:href="#DejaVuSans-30"/>
       <use xlink:href="#DejaVuSans-2e" x="63.623047"/>
       <use xlink:href="#DejaVuSans-30" x="95.410156"/>
      </g>
     </g>
    </g>
    <g id="xtick_4">
     <g id="line2d_5">
      <g>
       <use xlink:href="#m95b6597afd" x="238.381312" y="273.312" style="stroke: #000000; stroke-width: 0.8"/>
      </g>
     </g>
     <g id="text_4">
      <!-- 0.5 -->
      <g transform="translate(230.42975 287.910437)scale(0.1 -0.1)">
       <use xlink:href="#DejaVuSans-30"/>
       <use xlink:href="#DejaVuSans-2e" x="63.623047"/>
       <use xlink:href="#DejaVuSans-35" x="95.410156"/>
      </g>
     </g>
    </g>
    <g id="xtick_5">
     <g id="line2d_6">
      <g>
       <use xlink:href="#m95b6597afd" x="298.861312" y="273.312" style="stroke: #000000; stroke-width: 0.8"/>
      </g>
     </g>
     <g id="text_5">
      <!-- 1.0 -->
      <g transform="translate(290.90975 287.910437)scale(0.1 -0.1)">
       <use xlink:href="#DejaVuSans-31"/>
       <use xlink:href="#DejaVuSans-2e" x="63.623047"/>
       <use xlink:href="#DejaVuSans-30" x="95.410156"/>
      </g>
     </g>
    </g>
   </g>
   <g id="matplotlib.axis_2">
    <g id="ytick_1">
     <g id="line2d_7">
      <defs>
       <path id="m5ee210f615" d="M 0 0 
L -3.5 0 
" style="stroke: #000000; stroke-width: 0.8"/>
      </defs>
      <g>
       <use xlink:href="#m5ee210f615" x="44.845313" y="261.216" style="stroke: #000000; stroke-width: 0.8"/>
      </g>
     </g>
     <g id="text_6">
      <!-- −1.00 -->
      <g transform="translate(7.2 265.015219)scale(0.1 -0.1)">
       <use xlink:href="#DejaVuSans-2212"/>
       <use xlink:href="#DejaVuSans-31" x="83.789062"/>
       <use xlink:href="#DejaVuSans-2e" x="147.412109"/>
       <use xlink:href="#DejaVuSans-30" x="179.199219"/>
       <use xlink:href="#DejaVuSans-30" x="242.822266"/>
      </g>
     </g>
    </g>
    <g id="ytick_2">
     <g id="line2d_8">
      <g>
       <use xlink:href="#m5ee210f615" x="44.845313" y="230.976" style="stroke: #000000; stroke-width: 0.8"/>
      </g>
     </g>
     <g id="text_7">
      <!-- −0.75 -->
      <g transform="translate(7.2 234.775219)scale(0.1 -0.1)">
       <defs>
        <path id="DejaVuSans-37" d="M 525 4666 
L 3525 4666 
L 3525 4397 
L 1831 0 
L 1172 0 
L 2766 4134 
L 525 4134 
L 525 4666 
z
" transform="scale(0.015625)"/>
       </defs>
       <use xlink:href="#DejaVuSans-2212"/>
       <use xlink:href="#DejaVuSans-30" x="83.789062"/>
       <use xlink:href="#DejaVuSans-2e" x="147.412109"/>
       <use xlink:href="#DejaVuSans-37" x="179.199219"/>
       <use xlink:href="#DejaVuSans-35" x="242.822266"/>
      </g>
     </g>
    </g>
    <g id="ytick_3">
     <g id="line2d_9">
      <g>
       <use xlink:href="#m5ee210f615" x="44.845313" y="200.736" style="stroke: #000000; stroke-width: 0.8"/>
      </g>
     </g>
     <g id="text_8">
      <!-- −0.50 -->
      <g transform="translate(7.2 204.535219)scale(0.1 -0.1)">
       <use xlink:href="#DejaVuSans-2212"/>
       <use xlink:href="#DejaVuSans-30" x="83.789062"/>
       <use xlink:href="#DejaVuSans-2e" x="147.412109"/>
       <use xlink:href="#DejaVuSans-35" x="179.199219"/>
       <use xlink:href="#DejaVuSans-30" x="242.822266"/>
      </g>
     </g>
    </g>
    <g id="ytick_4">
     <g id="line2d_10">
      <g>
       <use xlink:href="#m5ee210f615" x="44.845313" y="170.496" style="stroke: #000000; stroke-width: 0.8"/>
      </g>
     </g>
     <g id="text_9">
      <!-- −0.25 -->
      <g transform="translate(7.2 174.295219)scale(0.1 -0.1)">
       <defs>
        <path id="DejaVuSans-32" d="M 1228 531 
L 3431 531 
L 3431 0 
L 469 0 
L 469 531 
Q 828 903 1448 1529 
Q 2069 2156 2228 2338 
Q 2531 2678 2651 2914 
Q 2772 3150 2772 3378 
Q 2772 3750 2511 3984 
Q 2250 4219 1831 4219 
Q 1534 4219 1204 4116 
Q 875 4013 500 3803 
L 500 4441 
Q 881 4594 1212 4672 
Q 1544 4750 1819 4750 
Q 2544 4750 2975 4387 
Q 3406 4025 3406 3419 
Q 3406 3131 3298 2873 
Q 3191 2616 2906 2266 
Q 2828 2175 2409 1742 
Q 1991 1309 1228 531 
z
" transform="scale(0.015625)"/>
       </defs>
       <use xlink:href="#DejaVuSans-2212"/>
       <use xlink:href="#DejaVuSans-30" x="83.789062"/>
       <use xlink:href="#DejaVuSans-2e" x="147.412109"/>
       <use xlink:href="#DejaVuSans-32" x="179.199219"/>
       <use xlink:href="#DejaVuSans-35" x="242.822266"/>
      </g>
     </g>
    </g>
    <g id="ytick_5">
     <g id="line2d_11">
      <g>
       <use xlink:href="#m5ee210f615" x="44.845313" y="140.256" style="stroke: #000000; stroke-width: 0.8"/>
      </g>
     </g>
     <g id="text_10">
      <!-- 0.00 -->
      <g transform="translate(15.579688 144.055219)scale(0.1 -0.1)">
       <use xlink:href="#DejaVuSans-30"/>
       <use xlink:href="#DejaVuSans-2e" x="63.623047"/>
       <use xlink:href="#DejaVuSans-30" x="95.410156"/>
       <use xlink:href="#DejaVuSans-30" x="159.033203"/>
      </g>
     </g>
    </g>
    <g id="ytick_6">
     <g id="line2d_12">
      <g>
       <use xlink:href="#m5ee210f615" x="44.845313" y="110.016" style="stroke: #000000; stroke-width: 0.8"/>
      </g>
     </g>
     <g id="text_11">
      <!-- 0.25 -->
      <g transform="translate(15.579688 113.815219)scale(0.1 -0.1)">
       <use xlink:href="#DejaVuSans-30"/>
       <use xlink:href="#DejaVuSans-2e" x="63.623047"/>
       <use xlink:href="#DejaVuSans-32" x="95.410156"/>
       <use xlink:href="#DejaVuSans-35" x="159.033203"/>
      </g>
     </g>
    </g>
    <g id="ytick_7">
     <g id="line2d_13">
      <g>
       <use xlink:href="#m5ee210f615" x="44.845313" y="79.776" style="stroke: #000000; stroke-width: 0.8"/>
      </g>
     </g>
     <g id="text_12">
      <!-- 0.50 -->
      <g transform="translate(15.579688 83.575219)scale(0.1 -0.1)">
       <use xlink:href="#DejaVuSans-30"/>
       <use xlink:href="#DejaVuSans-2e" x="63.623047"/>
       <use xlink:href="#DejaVuSans-35" x="95.410156"/>
       <use xlink:href="#DejaVuSans-30" x="159.033203"/>
      </g>
     </g>
    </g>
    <g id="ytick_8">
     <g id="line2d_14">
      <g>
       <use xlink:href="#m5ee210f615" x="44.845313" y="49.536" style="stroke: #000000; stroke-width: 0.8"/>
      </g>
     </g>
     <g id="text_13">
      <!-- 0.75 -->
      <g transform="translate(15.579688 53.335219)scale(0.1 -0.1)">
       <use xlink:href="#DejaVuSans-30"/>
       <use xlink:href="#DejaVuSans-2e" x="63.623047"/>
       <use xlink:href="#DejaVuSans-37" x="95.410156"/>
       <use xlink:href="#DejaVuSans-35" x="159.033203"/>
      </g>
     </g>
    </g>
    <g id="ytick_9">
     <g id="line2d_15">
      <g>
       <use xlink:href="#m5ee210f615" x="44.845313" y="19.296" style="stroke: #000000; stroke-width: 0.8"/>
      </g>
     </g>
     <g id="text_14">
      <!-- 1.00 -->
      <g transform="translate(15.579688 23.095219)scale(0.1 -0.1)">
       <use xlink:href="#DejaVuSans-31"/>
       <use xlink:href="#DejaVuSans-2e" x="63.623047"/>
       <use xlink:href="#DejaVuSans-30" x="95.410156"/>
       <use xlink:href="#DejaVuSans-30" x="159.033203"/>
      </g>
     </g>
    </g>
   </g>
   <g id="line2d_16"/>
   <g id="patch_3">
    <path d="M 44.845313 273.312 
L 44.845313 7.2 
" style="fill: none; stroke: #000000; stroke-width: 0.8; stroke-linejoin: miter; stroke-linecap: square"/>
   </g>
   <g id="patch_4">
    <path d="M 310.957312 273.312 
L 310.957312 7.2 
" style="fill: none; stroke: #000000; stroke-width: 0.8; stroke-linejoin: miter; stroke-linecap: square"/>
   </g>
   <g id="patch_5">
    <path d="M 44.845313 273.312 
L 310.957312 273.312 
" style="fill: none; stroke: #000000; stroke-width: 0.8; stroke-linejoin: miter; stroke-linecap: square"/>
   </g>
   <g id="patch_6">
    <path d="M 44.845313 7.2 
L 310.957312 7.2 
" style="fill: none; stroke: #000000; stroke-width: 0.8; stroke-linejoin: miter; stroke-linecap: square"/>
   </g>
  </g>
 </g>
 <defs>
  <clipPath id="p0d2046de40">
   <rect x="44.845313" y="7.2" width="266.112" height="266.112"/>
  </clipPath>
 </defs>
</svg>
