<?xml version="1.0" encoding="utf-8" standalone="no"?>
<!DOCTYPE svg PUBLIC "-//W3C//DTD SVG 1.1//EN"
  "http://www.w3.org/Graphics/SVG/1.1/DTD/svg11.dtd">
<svg xmlns:xlink="http://www.w3.org/1999/xlink" width="303.415125pt" height="297.190125pt" viewBox="0 0 303.415125 297.190125" xmlns="http://www.w3.org/2000/svg" version="1.1">
 <metadata>
  <rdf:RDF xmlns:dc="http://purl.org/dc/elements/1.1/" xmlns:cc="http://creativecommons.org/ns#" xmlns:rdf="http://www.w3.org/1999/02/22-rdf-syntax-ns#">
   <cc:Work>
    <dc:type rdf:resource="http://purl.org/dc/dcmitype/StillImage"/>
    <dc:date>2024-07-16T16:13:02.646972</dc:date>
    <dc:format>image/svg+xml</dc:format>
    <dc:creator>
     <cc:Agent>
      <dc:title>Matplotlib v3.5.1, https://matplotlib.org/</dc:title>
     </cc:Agent>
    </dc:creator>
   </cc:Work>
  </rdf:RDF>
 </metadata>
 <defs>
  <style type="text/css">*{stroke-linejoin: round; stroke-linecap: butt}</style>
 </defs>
 <g id="figure_1">
  <g id="patch_1">
   <path d="M 0 297.190125 
L 303.415125 297.190125 
L 303.415125 0 
L 0 0 
z
" style="fill: #ffffff"/>
  </g>
  <g id="axes_1">
   <g id="patch_2">
    <path d="M 30.103125 273.312 
L 296.215125 273.312 
L 296.215125 7.2 
L 30.103125 7.2 
z
" style="fill: #ffffff"/>
   </g>
   <g id="line2d_1">
    <path d="M 66.391125 19.296 
L 42.199125 19.296 
M 90.583125 19.296 
L 66.391125 19.296 
M 114.775125 19.296 
L 90.583125 19.296 
M 138.967125 19.296 
L 114.775125 19.296 
M 163.159125 19.296 
L 138.967125 19.296 
M 187.351125 19.296 
L 163.159125 19.296 
M 211.543125 19.296 
L 187.351125 19.296 
M 235.735125 19.296 
L 211.543125 19.296 
M 259.927125 19.296 
L 284.119125 19.296 
M 259.927125 19.296 
L 235.735125 19.296 
M 284.119125 43.488 
L 284.119125 19.296 
M 284.119125 67.68 
L 284.119125 43.488 
M 284.119125 91.872 
L 284.119125 67.68 
M 284.119125 116.064 
L 284.119125 91.872 
M 284.119125 140.256 
L 284.119125 116.064 
M 284.119125 164.448 
L 284.119125 140.256 
M 284.119125 188.64 
L 284.119125 164.448 
M 284.119125 212.832 
L 284.119125 188.64 
M 284.119125 237.024 
L 284.119125 261.216 
M 284.119125 237.024 
L 284.119125 212.832 
M 259.927125 261.216 
L 284.119125 261.216 
M 235.735125 261.216 
L 259.927125 261.216 
M 211.543125 261.216 
L 235.735125 261.216 
M 187.351125 261.216 
L 211.543125 261.216 
M 163.159125 261.216 
L 187.351125 261.216 
M 138.967125 261.216 
L 163.159125 261.216 
M 114.775125 261.216 
L 138.967125 261.216 
M 90.583125 261.216 
L 114.775125 261.216 
M 66.391125 261.216 
L 42.199125 261.216 
M 66.391125 261.216 
L 90.583125 261.216 
M 42.199125 237.024 
L 42.199125 261.216 
M 42.199125 212.832 
L 42.199125 237.024 
M 42.199125 188.64 
L 42.199125 212.832 
M 42.199125 164.448 
L 42.199125 188.64 
M 42.199125 140.256 
L 42.199125 164.448 
M 42.199125 116.064 
L 42.199125 140.256 
M 42.199125 91.872 
L 42.199125 116.064 
M 42.199125 67.68 
L 42.199125 91.872 
M 42.199125 43.488 
L 42.199125 19.296 
M 42.199125 43.488 
L 42.199125 67.68 
M 263.168238 152.352 
L 284.119125 140.256 
M 263.168238 152.352 
L 284.119125 164.448 
M 153.621255 238.870351 
L 163.159125 261.216 
M 153.621255 238.870351 
L 138.967125 261.216 
M 63.150012 128.16 
L 42.199125 140.256 
M 63.150012 128.16 
L 42.199125 116.064 
M 174.490728 39.805562 
L 163.159125 19.296 
M 174.490728 39.805562 
L 187.351125 19.296 
M 263.168238 103.968 
L 284.119125 91.872 
M 263.168238 103.968 
L 284.119125 116.064 
M 199.66974 239.720367 
L 211.543125 261.216 
M 199.66974 239.720367 
L 187.351125 261.216 
M 126.871125 40.246887 
L 114.775125 19.296 
M 126.871125 40.246887 
L 138.967125 19.296 
M 62.014185 177.141454 
L 42.199125 188.64 
M 62.014185 177.141454 
L 42.199125 164.448 
M 225.737192 40.979196 
L 211.543125 19.296 
M 225.737192 40.979196 
L 235.735125 19.296 
M 263.282393 200.538278 
L 284.119125 188.64 
M 263.282393 200.538278 
L 284.119125 212.832 
M 61.454084 80.748808 
L 42.199125 91.872 
M 61.454084 80.748808 
L 42.199125 67.68 
M 102.679125 240.265113 
L 114.775125 261.216 
M 102.679125 240.265113 
L 90.583125 261.216 
M 245.60968 239.305372 
L 259.927125 261.216 
M 245.60968 239.305372 
L 235.735125 261.216 
M 263.634016 55.68651 
L 284.119125 43.488 
M 263.634016 55.68651 
L 284.119125 67.68 
M 62.684234 224.82549 
L 42.199125 237.024 
M 62.684234 224.82549 
L 42.199125 212.832 
M 78.63064 39.363201 
L 66.391125 19.296 
M 78.63064 39.363201 
L 90.583125 19.296 
M 263.187264 176.511046 
L 284.119125 164.448 
M 263.187264 176.511046 
L 284.119125 188.64 
M 263.187264 176.511046 
L 263.168238 152.352 
M 263.187264 176.511046 
L 263.282393 200.538278 
M 242.220523 164.442508 
L 263.168238 152.352 
M 242.220523 164.442508 
L 263.187264 176.511046 
M 242.21788 140.255085 
L 263.168238 152.352 
M 242.21788 140.255085 
L 242.220523 164.442508 
M 221.267082 152.350932 
L 242.220523 164.442508 
M 221.267082 152.350932 
L 242.21788 140.255085 
M 221.266656 128.159669 
L 242.21788 140.255085 
M 221.266656 128.159669 
L 221.267082 152.350932 
M 200.315713 140.255767 
L 221.267082 152.350932 
M 200.315713 140.255767 
L 221.266656 128.159669 
M 200.405711 164.528793 
L 221.267082 152.350932 
M 200.405711 164.528793 
L 200.315713 140.255767 
M 179.467735 152.523999 
L 200.315713 140.255767 
M 179.467735 152.523999 
L 200.405711 164.528793 
M 179.381888 128.188628 
L 200.315713 140.255767 
M 179.381888 128.188628 
L 179.467735 152.523999 
M 158.433845 140.289438 
L 179.467735 152.523999 
M 158.433845 140.289438 
L 179.381888 128.188628 
M 158.420012 116.074344 
L 179.381888 128.188628 
M 158.420012 116.074344 
L 158.433845 140.289438 
M 158.522318 164.640811 
L 179.467735 152.523999 
M 158.522318 164.640811 
L 158.433845 140.289438 
M 137.484344 152.389708 
L 158.433845 140.289438 
M 137.484344 152.389708 
L 158.522318 164.640811 
M 137.618693 176.350122 
L 158.522318 164.640811 
M 137.618693 176.350122 
L 137.484344 152.389708 
M 179.368593 103.974495 
L 179.381888 128.188628 
M 179.368593 103.974495 
L 158.420012 116.074344 
M 159.206377 90.794435 
L 158.420012 116.074344 
M 159.206377 90.794435 
L 179.368593 103.974495 
M 137.596049 103.79013 
L 158.420012 116.074344 
M 137.596049 103.79013 
L 159.206377 90.794435 
M 158.509901 188.896021 
L 158.522318 164.640811 
M 158.509901 188.896021 
L 137.618693 176.350122 
M 116.541566 164.421972 
L 137.484344 152.389708 
M 116.541566 164.421972 
L 137.618693 176.350122 
M 116.512032 188.64 
L 137.618693 176.350122 
M 116.512032 188.64 
L 116.541566 164.421972 
M 116.520526 140.257947 
L 137.484344 152.389708 
M 116.520526 140.257947 
L 116.541566 164.421972 
M 95.561146 152.352 
L 116.541566 164.421972 
M 95.561146 152.352 
L 116.520526 140.257947 
M 180.125053 79.385909 
L 179.368593 103.974495 
M 180.125053 79.385909 
L 159.206377 90.794435 
M 200.442956 91.808067 
L 179.368593 103.974495 
M 200.442956 91.808067 
L 180.125053 79.385909 
M 138.65879 78.920617 
L 159.206377 90.794435 
M 138.65879 78.920617 
L 137.596049 103.79013 
M 116.512032 91.872 
L 137.596049 103.79013 
M 116.512032 91.872 
L 138.65879 78.920617 
M 200.315579 67.68 
L 180.125053 79.385909 
M 200.315579 67.68 
L 200.442956 91.808067 
M 220.882556 80.467066 
L 200.442956 91.808067 
M 220.882556 80.467066 
L 200.315579 67.68 
M 95.561146 128.16 
L 116.520526 140.257947 
M 95.561146 128.16 
L 95.561146 152.352 
M 115.925118 65.023463 
L 126.871125 40.246887 
M 115.925118 65.023463 
L 138.65879 78.920617 
M 115.925118 65.023463 
L 116.512032 91.872 
M 95.799588 80.072658 
L 116.512032 91.872 
M 95.799588 80.072658 
L 115.925118 65.023463 
M 242.240077 188.600639 
L 263.282393 200.538278 
M 242.240077 188.600639 
L 263.187264 176.511046 
M 242.240077 188.600639 
L 242.220523 164.442508 
M 242.919708 212.974993 
L 263.282393 200.538278 
M 242.919708 212.974993 
L 245.60968 239.305372 
M 242.919708 212.974993 
L 242.240077 188.600639 
M 221.475848 200.753272 
L 242.240077 188.600639 
M 221.475848 200.753272 
L 242.919708 212.974993 
M 221.984428 225.050433 
L 199.66974 239.720367 
M 221.984428 225.050433 
L 245.60968 239.305372 
M 221.984428 225.050433 
L 242.919708 212.974993 
M 221.984428 225.050433 
L 221.475848 200.753272 
M 200.290546 213.619935 
L 199.66974 239.720367 
M 200.290546 213.619935 
L 221.475848 200.753272 
M 200.290546 213.619935 
L 221.984428 225.050433 
M 177.599126 225.531235 
L 153.621255 238.870351 
M 177.599126 225.531235 
L 199.66974 239.720367 
M 177.599126 225.531235 
L 200.290546 213.619935 
M 178.825507 201.669896 
L 158.509901 188.896021 
M 178.825507 201.669896 
L 200.290546 213.619935 
M 178.825507 201.669896 
L 177.599126 225.531235 
M 156.841026 212.683812 
L 153.621255 238.870351 
M 156.841026 212.683812 
L 158.509901 188.896021 
M 156.841026 212.683812 
L 177.599126 225.531235 
M 156.841026 212.683812 
L 178.825507 201.669896 
M 134.222747 221.793157 
L 153.621255 238.870351 
M 134.222747 221.793157 
L 156.841026 212.683812 
M 179.429661 176.816587 
L 200.405711 164.528793 
M 179.429661 176.816587 
L 179.467735 152.523999 
M 179.429661 176.816587 
L 158.522318 164.640811 
M 179.429661 176.816587 
L 158.509901 188.896021 
M 179.429661 176.816587 
L 178.825507 201.669896 
M 242.217472 116.063792 
L 263.168238 103.968 
M 242.217472 116.063792 
L 242.21788 140.255085 
M 242.217472 116.063792 
L 221.266656 128.159669 
M 200.148303 43.628702 
L 187.351125 19.296 
M 200.148303 43.628702 
L 211.543125 19.296 
M 200.148303 43.628702 
L 174.490728 39.805562 
M 200.148303 43.628702 
L 225.737192 40.979196 
M 200.148303 43.628702 
L 200.315579 67.68 
M 63.150012 103.968 
L 42.199125 116.064 
M 63.150012 103.968 
L 42.199125 91.872 
M 63.150012 103.968 
L 63.150012 128.16 
M 63.150012 103.968 
L 61.454084 80.748808 
M 150.935726 39.67193 
L 138.967125 19.296 
M 150.935726 39.67193 
L 163.159125 19.296 
M 150.935726 39.67193 
L 174.490728 39.805562 
M 150.935726 39.67193 
L 126.871125 40.246887 
M 160.735506 63.616806 
L 174.490728 39.805562 
M 160.735506 63.616806 
L 159.206377 90.794435 
M 160.735506 63.616806 
L 180.125053 79.385909 
M 160.735506 63.616806 
L 138.65879 78.920617 
M 160.735506 63.616806 
L 150.935726 39.67193 
M 62.504575 152.388289 
L 42.199125 164.448 
M 62.504575 152.388289 
L 42.199125 140.256 
M 62.504575 152.388289 
L 63.150012 128.16 
M 62.504575 152.388289 
L 62.014185 177.141454 
M 263.168346 128.159813 
L 284.119125 116.064 
M 263.168346 128.159813 
L 284.119125 140.256 
M 263.168346 128.159813 
L 263.168238 152.352 
M 263.168346 128.159813 
L 263.168238 103.968 
M 263.168346 128.159813 
L 242.21788 140.255085 
M 263.168346 128.159813 
L 242.217472 116.063792 
M 62.538137 201.415945 
L 42.199125 212.832 
M 62.538137 201.415945 
L 42.199125 188.64 
M 62.538137 201.415945 
L 62.014185 177.141454 
M 62.538137 201.415945 
L 62.684234 224.82549 
M 85.600528 216.307348 
L 102.679125 240.265113 
M 85.600528 216.307348 
L 62.684234 224.82549 
M 85.600528 216.307348 
L 62.538137 201.415945 
M 102.89471 40.28329 
L 90.583125 19.296 
M 102.89471 40.28329 
L 114.775125 19.296 
M 102.89471 40.28329 
L 126.871125 40.246887 
M 102.89471 40.28329 
L 78.63064 39.363201 
M 102.89471 40.28329 
L 115.925118 65.023463 
M 200.340379 116.059104 
L 221.266656 128.159669 
M 200.340379 116.059104 
L 200.315713 140.255767 
M 200.340379 116.059104 
L 179.381888 128.188628 
M 200.340379 116.059104 
L 179.368593 103.974495 
M 200.340379 116.059104 
L 200.442956 91.808067 
M 263.245868 79.793085 
L 284.119125 67.68 
M 263.245868 79.793085 
L 284.119125 91.872 
M 263.245868 79.793085 
L 263.168238 103.968 
M 263.245868 79.793085 
L 263.634016 55.68651 
M 97.558341 176.737368 
L 116.541566 164.421972 
M 97.558341 176.737368 
L 116.512032 188.64 
M 97.558341 176.737368 
L 95.561146 152.352 
M 137.494468 128.144261 
L 158.433845 140.289438 
M 137.494468 128.144261 
L 158.420012 116.074344 
M 137.494468 128.144261 
L 137.484344 152.389708 
M 137.494468 128.144261 
L 137.596049 103.79013 
M 137.494468 128.144261 
L 116.520526 140.257947 
M 221.227895 104.071617 
L 221.266656 128.159669 
M 221.227895 104.071617 
L 200.442956 91.808067 
M 221.227895 104.071617 
L 220.882556 80.467066 
M 221.227895 104.071617 
L 242.217472 116.063792 
M 221.227895 104.071617 
L 200.340379 116.059104 
M 242.159897 92.00726 
L 263.168238 103.968 
M 242.159897 92.00726 
L 220.882556 80.467066 
M 242.159897 92.00726 
L 242.217472 116.063792 
M 242.159897 92.00726 
L 263.245868 79.793085 
M 242.159897 92.00726 
L 221.227895 104.071617 
M 116.540894 116.032056 
L 137.596049 103.79013 
M 116.540894 116.032056 
L 116.520526 140.257947 
M 116.540894 116.032056 
L 116.512032 91.872 
M 116.540894 116.032056 
L 95.561146 128.16 
M 116.540894 116.032056 
L 137.494468 128.144261 
M 240.16285 64.041344 
L 225.737192 40.979196 
M 240.16285 64.041344 
L 263.634016 55.68651 
M 240.16285 64.041344 
L 220.882556 80.467066 
M 240.16285 64.041344 
L 263.245868 79.793085 
M 240.16285 64.041344 
L 242.159897 92.00726 
M 95.561146 103.968 
L 116.512032 91.872 
M 95.561146 103.968 
L 95.561146 128.16 
M 95.561146 103.968 
L 95.799588 80.072658 
M 95.561146 103.968 
L 116.540894 116.032056 
M 221.409339 176.552691 
L 242.220523 164.442508 
M 221.409339 176.552691 
L 221.267082 152.350932 
M 221.409339 176.552691 
L 200.405711 164.528793 
M 221.409339 176.552691 
L 242.240077 188.600639 
M 221.409339 176.552691 
L 221.475848 200.753272 
M 200.306102 188.990196 
L 200.405711 164.528793 
M 200.306102 188.990196 
L 221.475848 200.753272 
M 200.306102 188.990196 
L 200.290546 213.619935 
M 200.306102 188.990196 
L 178.825507 201.669896 
M 200.306102 188.990196 
L 179.429661 176.816587 
M 200.306102 188.990196 
L 221.409339 176.552691 
M 264.250831 224.185819 
L 284.119125 212.832 
M 264.250831 224.185819 
L 284.119125 237.024 
M 264.250831 224.185819 
L 263.282393 200.538278 
M 264.250831 224.185819 
L 245.60968 239.305372 
M 264.250831 224.185819 
L 242.919708 212.974993 
M 248.042044 39.434943 
L 235.735125 19.296 
M 248.042044 39.434943 
L 259.927125 19.296 
M 248.042044 39.434943 
L 225.737192 40.979196 
M 248.042044 39.434943 
L 263.634016 55.68651 
M 248.042044 39.434943 
L 240.16285 64.041344 
M 78.45992 241.144795 
L 90.583125 261.216 
M 78.45992 241.144795 
L 66.391125 261.216 
M 78.45992 241.144795 
L 102.679125 240.265113 
M 78.45992 241.144795 
L 62.684234 224.82549 
M 78.45992 241.144795 
L 85.600528 216.307348 
M 113.343983 215.479193 
L 102.679125 240.265113 
M 113.343983 215.479193 
L 116.512032 188.64 
M 113.343983 215.479193 
L 134.222747 221.793157 
M 113.343983 215.479193 
L 85.600528 216.307348 
M 64.904368 57.012927 
L 42.199125 67.68 
M 64.904368 57.012927 
L 42.199125 43.488 
M 64.904368 57.012927 
L 61.454084 80.748808 
M 64.904368 57.012927 
L 78.63064 39.363201 
M 136.17473 200.640384 
L 137.618693 176.350122 
M 136.17473 200.640384 
L 158.509901 188.896021 
M 136.17473 200.640384 
L 116.512032 188.64 
M 136.17473 200.640384 
L 156.841026 212.683812 
M 136.17473 200.640384 
L 134.222747 221.793157 
M 136.17473 200.640384 
L 113.343983 215.479193 
M 126.714186 241.928193 
L 138.967125 261.216 
M 126.714186 241.928193 
L 114.775125 261.216 
M 126.714186 241.928193 
L 153.621255 238.870351 
M 126.714186 241.928193 
L 102.679125 240.265113 
M 126.714186 241.928193 
L 134.222747 221.793157 
M 126.714186 241.928193 
L 113.343983 215.479193 
M 90.583125 58.47419 
L 78.63064 39.363201 
M 90.583125 58.47419 
L 115.925118 65.023463 
M 90.583125 58.47419 
L 95.799588 80.072658 
M 90.583125 58.47419 
L 102.89471 40.28329 
M 90.583125 58.47419 
L 64.904368 57.012927 
M 138.7927 57.835575 
L 126.871125 40.246887 
M 138.7927 57.835575 
L 138.65879 78.920617 
M 138.7927 57.835575 
L 115.925118 65.023463 
M 138.7927 57.835575 
L 150.935726 39.67193 
M 138.7927 57.835575 
L 160.735506 63.616806 
M 81.728836 191.101266 
L 62.014185 177.141454 
M 81.728836 191.101266 
L 62.538137 201.415945 
M 81.728836 191.101266 
L 85.600528 216.307348 
M 81.728836 191.101266 
L 97.558341 176.737368 
M 222.908419 245.301634 
L 235.735125 261.216 
M 222.908419 245.301634 
L 211.543125 261.216 
M 222.908419 245.301634 
L 199.66974 239.720367 
M 222.908419 245.301634 
L 245.60968 239.305372 
M 222.908419 245.301634 
L 221.984428 225.050433 
M 79.355579 91.872 
L 61.454084 80.748808 
M 79.355579 91.872 
L 95.799588 80.072658 
M 79.355579 91.872 
L 63.150012 103.968 
M 79.355579 91.872 
L 95.561146 103.968 
M 79.355579 116.064 
L 63.150012 128.16 
M 79.355579 116.064 
L 95.561146 128.16 
M 79.355579 116.064 
L 63.150012 103.968 
M 79.355579 116.064 
L 95.561146 103.968 
M 79.355579 116.064 
L 79.355579 91.872 
M 79.355579 140.256 
L 63.150012 128.16 
M 79.355579 140.256 
L 95.561146 152.352 
M 79.355579 140.256 
L 95.561146 128.16 
M 79.355579 140.256 
L 62.504575 152.388289 
M 79.355579 140.256 
L 79.355579 116.064 
M 79.78711 164.996063 
L 62.014185 177.141454 
M 79.78711 164.996063 
L 95.561146 152.352 
M 79.78711 164.996063 
L 62.504575 152.388289 
M 79.78711 164.996063 
L 97.558341 176.737368 
M 79.78711 164.996063 
L 81.728836 191.101266 
M 79.78711 164.996063 
L 79.355579 140.256 
M 218.83563 59.79433 
L 225.737192 40.979196 
M 218.83563 59.79433 
L 200.315579 67.68 
M 218.83563 59.79433 
L 220.882556 80.467066 
M 218.83563 59.79433 
L 200.148303 43.628702 
M 218.83563 59.79433 
L 240.16285 64.041344 
M 175.255125 245.429205 
L 187.351125 261.216 
M 175.255125 245.429205 
L 163.159125 261.216 
M 175.255125 245.429205 
L 153.621255 238.870351 
M 175.255125 245.429205 
L 199.66974 239.720367 
M 175.255125 245.429205 
L 177.599126 225.531235 
M 183.163034 58.823396 
L 174.490728 39.805562 
M 183.163034 58.823396 
L 180.125053 79.385909 
M 183.163034 58.823396 
L 200.315579 67.68 
M 183.163034 58.823396 
L 200.148303 43.628702 
M 183.163034 58.823396 
L 160.735506 63.616806 
M 99.289599 197.981194 
L 116.512032 188.64 
M 99.289599 197.981194 
L 85.600528 216.307348 
M 99.289599 197.981194 
L 97.558341 176.737368 
M 99.289599 197.981194 
L 113.343983 215.479193 
M 99.289599 197.981194 
L 81.728836 191.101266 
M 266.409352 37.005773 
L 284.119125 19.296 
M 266.409352 37.005773 
L 259.927125 19.296 
M 266.409352 37.005773 
L 284.119125 43.488 
M 266.409352 37.005773 
L 263.634016 55.68651 
M 266.409352 37.005773 
L 248.042044 39.434943 
M 266.409352 243.506227 
L 284.119125 261.216 
M 266.409352 243.506227 
L 284.119125 237.024 
M 266.409352 243.506227 
L 259.927125 261.216 
M 266.409352 243.506227 
L 245.60968 239.305372 
M 266.409352 243.506227 
L 264.250831 224.185819 
M 59.908898 37.005773 
L 42.199125 19.296 
M 59.908898 37.005773 
L 66.391125 19.296 
M 59.908898 37.005773 
L 42.199125 43.488 
M 59.908898 37.005773 
L 78.63064 39.363201 
M 59.908898 37.005773 
L 64.904368 57.012927 
M 59.908898 243.506227 
L 42.199125 261.216 
M 59.908898 243.506227 
L 66.391125 261.216 
M 59.908898 243.506227 
L 42.199125 237.024 
M 59.908898 243.506227 
L 62.684234 224.82549 
M 59.908898 243.506227 
L 78.45992 241.144795 
M 78.419349 73.636117 
L 61.454084 80.748808 
M 78.419349 73.636117 
L 95.799588 80.072658 
M 78.419349 73.636117 
L 64.904368 57.012927 
M 78.419349 73.636117 
L 90.583125 58.47419 
M 78.419349 73.636117 
L 79.355579 91.872 
L 79.355579 91.872 
" clip-path="url(#pf24dbfe5b5)" style="fill: none; stroke: #808080; stroke-width: 1.5; stroke-linecap: square"/>
   </g>
   <g id="matplotlib.axis_1">
    <g id="xtick_1">
     <g id="line2d_2">
      <defs>
       <path id="md41e999684" d="M 0 0 
L 0 3.5 
" style="stroke: #000000; stroke-width: 0.8"/>
      </defs>
      <g>
       <use xlink:href="#md41e999684" x="42.199125" y="273.312" style="stroke: #000000; stroke-width: 0.8"/>
      </g>
     </g>
     <g id="text_1">
      <!-- 0.0 -->
      <g transform="translate(34.247563 287.910437)scale(0.1 -0.1)">
       <defs>
        <path id="DejaVuSans-30" d="M 2034 4250 
Q 1547 4250 1301 3770 
Q 1056 3291 1056 2328 
Q 1056 1369 1301 889 
Q 1547 409 2034 409 
Q 2525 409 2770 889 
Q 3016 1369 3016 2328 
Q 3016 3291 2770 3770 
Q 2525 4250 2034 4250 
z
M 2034 4750 
Q 2819 4750 3233 4129 
Q 3647 3509 3647 2328 
Q 3647 1150 3233 529 
Q 2819 -91 2034 -91 
Q 1250 -91 836 529 
Q 422 1150 422 2328 
Q 422 3509 836 4129 
Q 1250 4750 2034 4750 
z
" transform="scale(0.015625)"/>
        <path id="DejaVuSans-2e" d="M 684 794 
L 1344 794 
L 1344 0 
L 684 0 
L 684 794 
z
" transform="scale(0.015625)"/>
       </defs>
       <use xlink:href="#DejaVuSans-30"/>
       <use xlink:href="#DejaVuSans-2e" x="63.623047"/>
       <use xlink:href="#DejaVuSans-30" x="95.410156"/>
      </g>
     </g>
    </g>
    <g id="xtick_2">
     <g id="line2d_3">
      <g>
       <use xlink:href="#md41e999684" x="90.583125" y="273.312" style="stroke: #000000; stroke-width: 0.8"/>
      </g>
     </g>
     <g id="text_2">
      <!-- 0.2 -->
      <g transform="translate(82.631563 287.910437)scale(0.1 -0.1)">
       <defs>
        <path id="DejaVuSans-32" d="M 1228 531 
L 3431 531 
L 3431 0 
L 469 0 
L 469 531 
Q 828 903 1448 1529 
Q 2069 2156 2228 2338 
Q 2531 2678 2651 2914 
Q 2772 3150 2772 3378 
Q 2772 3750 2511 3984 
Q 2250 4219 1831 4219 
Q 1534 4219 1204 4116 
Q 875 4013 500 3803 
L 500 4441 
Q 881 4594 1212 4672 
Q 1544 4750 1819 4750 
Q 2544 4750 2975 4387 
Q 3406 4025 3406 3419 
Q 3406 3131 3298 2873 
Q 3191 2616 2906 2266 
Q 2828 2175 2409 1742 
Q 1991 1309 1228 531 
z
" transform="scale(0.015625)"/>
       </defs>
       <use xlink:href="#DejaVuSans-30"/>
       <use xlink:href="#DejaVuSans-2e" x="63.623047"/>
       <use xlink:href="#DejaVuSans-32" x="95.410156"/>
      </g>
     </g>
    </g>
    <g id="xtick_3">
     <g id="line2d_4">
      <g>
       <use xlink:href="#md41e999684" x="138.967125" y="273.312" style="stroke: #000000; stroke-width: 0.8"/>
      </g>
     </g>
     <g id="text_3">
      <!-- 0.4 -->
      <g transform="translate(131.015563 287.910437)scale(0.1 -0.1)">
       <defs>
        <path id="DejaVuSans-34" d="M 2419 4116 
L 825 1625 
L 2419 1625 
L 2419 4116 
z
M 2253 4666 
L 3047 4666 
L 3047 1625 
L 3713 1625 
L 3713 1100 
L 3047 1100 
L 3047 0 
L 2419 0 
L 2419 1100 
L 313 1100 
L 313 1709 
L 2253 4666 
z
" transform="scale(0.015625)"/>
       </defs>
       <use xlink:href="#DejaVuSans-30"/>
       <use xlink:href="#DejaVuSans-2e" x="63.623047"/>
       <use xlink:href="#DejaVuSans-34" x="95.410156"/>
      </g>
     </g>
    </g>
    <g id="xtick_4">
     <g id="line2d_5">
      <g>
       <use xlink:href="#md41e999684" x="187.351125" y="273.312" style="stroke: #000000; stroke-width: 0.8"/>
      </g>
     </g>
     <g id="text_4">
      <!-- 0.6 -->
      <g transform="translate(179.399563 287.910437)scale(0.1 -0.1)">
       <defs>
        <path id="DejaVuSans-36" d="M 2113 2584 
Q 1688 2584 1439 2293 
Q 1191 2003 1191 1497 
Q 1191 994 1439 701 
Q 1688 409 2113 409 
Q 2538 409 2786 701 
Q 3034 994 3034 1497 
Q 3034 2003 2786 2293 
Q 2538 2584 2113 2584 
z
M 3366 4563 
L 3366 3988 
Q 3128 4100 2886 4159 
Q 2644 4219 2406 4219 
Q 1781 4219 1451 3797 
Q 1122 3375 1075 2522 
Q 1259 2794 1537 2939 
Q 1816 3084 2150 3084 
Q 2853 3084 3261 2657 
Q 3669 2231 3669 1497 
Q 3669 778 3244 343 
Q 2819 -91 2113 -91 
Q 1303 -91 875 529 
Q 447 1150 447 2328 
Q 447 3434 972 4092 
Q 1497 4750 2381 4750 
Q 2619 4750 2861 4703 
Q 3103 4656 3366 4563 
z
" transform="scale(0.015625)"/>
       </defs>
       <use xlink:href="#DejaVuSans-30"/>
       <use xlink:href="#DejaVuSans-2e" x="63.623047"/>
       <use xlink:href="#DejaVuSans-36" x="95.410156"/>
      </g>
     </g>
    </g>
    <g id="xtick_5">
     <g id="line2d_6">
      <g>
       <use xlink:href="#md41e999684" x="235.735125" y="273.312" style="stroke: #000000; stroke-width: 0.8"/>
      </g>
     </g>
     <g id="text_5">
      <!-- 0.8 -->
      <g transform="translate(227.783562 287.910437)scale(0.1 -0.1)">
       <defs>
        <path id="DejaVuSans-38" d="M 2034 2216 
Q 1584 2216 1326 1975 
Q 1069 1734 1069 1313 
Q 1069 891 1326 650 
Q 1584 409 2034 409 
Q 2484 409 2743 651 
Q 3003 894 3003 1313 
Q 3003 1734 2745 1975 
Q 2488 2216 2034 2216 
z
M 1403 2484 
Q 997 2584 770 2862 
Q 544 3141 544 3541 
Q 544 4100 942 4425 
Q 1341 4750 2034 4750 
Q 2731 4750 3128 4425 
Q 3525 4100 3525 3541 
Q 3525 3141 3298 2862 
Q 3072 2584 2669 2484 
Q 3125 2378 3379 2068 
Q 3634 1759 3634 1313 
Q 3634 634 3220 271 
Q 2806 -91 2034 -91 
Q 1263 -91 848 271 
Q 434 634 434 1313 
Q 434 1759 690 2068 
Q 947 2378 1403 2484 
z
M 1172 3481 
Q 1172 3119 1398 2916 
Q 1625 2713 2034 2713 
Q 2441 2713 2670 2916 
Q 2900 3119 2900 3481 
Q 2900 3844 2670 4047 
Q 2441 4250 2034 4250 
Q 1625 4250 1398 4047 
Q 1172 3844 1172 3481 
z
" transform="scale(0.015625)"/>
       </defs>
       <use xlink:href="#DejaVuSans-30"/>
       <use xlink:href="#DejaVuSans-2e" x="63.623047"/>
       <use xlink:href="#DejaVuSans-38" x="95.410156"/>
      </g>
     </g>
    </g>
    <g id="xtick_6">
     <g id="line2d_7">
      <g>
       <use xlink:href="#md41e999684" x="284.119125" y="273.312" style="stroke: #000000; stroke-width: 0.8"/>
      </g>
     </g>
     <g id="text_6">
      <!-- 1.0 -->
      <g transform="translate(276.167562 287.910437)scale(0.1 -0.1)">
       <defs>
        <path id="DejaVuSans-31" d="M 794 531 
L 1825 531 
L 1825 4091 
L 703 3866 
L 703 4441 
L 1819 4666 
L 2450 4666 
L 2450 531 
L 3481 531 
L 3481 0 
L 794 0 
L 794 531 
z
" transform="scale(0.015625)"/>
       </defs>
       <use xlink:href="#DejaVuSans-31"/>
       <use xlink:href="#DejaVuSans-2e" x="63.623047"/>
       <use xlink:href="#DejaVuSans-30" x="95.410156"/>
      </g>
     </g>
    </g>
   </g>
   <g id="matplotlib.axis_2">
    <g id="ytick_1">
     <g id="line2d_8">
      <defs>
       <path id="m8346cbdd9a" d="M 0 0 
L -3.5 0 
" style="stroke: #000000; stroke-width: 0.8"/>
      </defs>
      <g>
       <use xlink:href="#m8346cbdd9a" x="30.103125" y="261.216" style="stroke: #000000; stroke-width: 0.8"/>
      </g>
     </g>
     <g id="text_7">
      <!-- 0.0 -->
      <g transform="translate(7.2 265.015219)scale(0.1 -0.1)">
       <use xlink:href="#DejaVuSans-30"/>
       <use xlink:href="#DejaVuSans-2e" x="63.623047"/>
       <use xlink:href="#DejaVuSans-30" x="95.410156"/>
      </g>
     </g>
    </g>
    <g id="ytick_2">
     <g id="line2d_9">
      <g>
       <use xlink:href="#m8346cbdd9a" x="30.103125" y="212.832" style="stroke: #000000; stroke-width: 0.8"/>
      </g>
     </g>
     <g id="text_8">
      <!-- 0.2 -->
      <g transform="translate(7.2 216.631219)scale(0.1 -0.1)">
       <use xlink:href="#DejaVuSans-30"/>
       <use xlink:href="#DejaVuSans-2e" x="63.623047"/>
       <use xlink:href="#DejaVuSans-32" x="95.410156"/>
      </g>
     </g>
    </g>
    <g id="ytick_3">
     <g id="line2d_10">
      <g>
       <use xlink:href="#m8346cbdd9a" x="30.103125" y="164.448" style="stroke: #000000; stroke-width: 0.8"/>
      </g>
     </g>
     <g id="text_9">
      <!-- 0.4 -->
      <g transform="translate(7.2 168.247219)scale(0.1 -0.1)">
       <use xlink:href="#DejaVuSans-30"/>
       <use xlink:href="#DejaVuSans-2e" x="63.623047"/>
       <use xlink:href="#DejaVuSans-34" x="95.410156"/>
      </g>
     </g>
    </g>
    <g id="ytick_4">
     <g id="line2d_11">
      <g>
       <use xlink:href="#m8346cbdd9a" x="30.103125" y="116.064" style="stroke: #000000; stroke-width: 0.8"/>
      </g>
     </g>
     <g id="text_10">
      <!-- 0.6 -->
      <g transform="translate(7.2 119.863219)scale(0.1 -0.1)">
       <use xlink:href="#DejaVuSans-30"/>
       <use xlink:href="#DejaVuSans-2e" x="63.623047"/>
       <use xlink:href="#DejaVuSans-36" x="95.410156"/>
      </g>
     </g>
    </g>
    <g id="ytick_5">
     <g id="line2d_12">
      <g>
       <use xlink:href="#m8346cbdd9a" x="30.103125" y="67.68" style="stroke: #000000; stroke-width: 0.8"/>
      </g>
     </g>
     <g id="text_11">
      <!-- 0.8 -->
      <g transform="translate(7.2 71.479219)scale(0.1 -0.1)">
       <use xlink:href="#DejaVuSans-30"/>
       <use xlink:href="#DejaVuSans-2e" x="63.623047"/>
       <use xlink:href="#DejaVuSans-38" x="95.410156"/>
      </g>
     </g>
    </g>
    <g id="ytick_6">
     <g id="line2d_13">
      <g>
       <use xlink:href="#m8346cbdd9a" x="30.103125" y="19.296" style="stroke: #000000; stroke-width: 0.8"/>
      </g>
     </g>
     <g id="text_12">
      <!-- 1.0 -->
      <g transform="translate(7.2 23.095219)scale(0.1 -0.1)">
       <use xlink:href="#DejaVuSans-31"/>
       <use xlink:href="#DejaVuSans-2e" x="63.623047"/>
       <use xlink:href="#DejaVuSans-30" x="95.410156"/>
      </g>
     </g>
    </g>
   </g>
   <g id="line2d_14"/>
   <g id="patch_3">
    <path d="M 30.103125 273.312 
L 30.103125 7.2 
" style="fill: none; stroke: #000000; stroke-width: 0.8; stroke-linejoin: miter; stroke-linecap: square"/>
   </g>
   <g id="patch_4">
    <path d="M 296.215125 273.312 
L 296.215125 7.2 
" style="fill: none; stroke: #000000; stroke-width: 0.8; stroke-linejoin: miter; stroke-linecap: square"/>
   </g>
   <g id="patch_5">
    <path d="M 30.103125 273.312 
L 296.215125 273.312 
" style="fill: none; stroke: #000000; stroke-width: 0.8; stroke-linejoin: miter; stroke-linecap: square"/>
   </g>
   <g id="patch_6">
    <path d="M 30.103125 7.2 
L 296.215125 7.2 
" style="fill: none; stroke: #000000; stroke-width: 0.8; stroke-linejoin: miter; stroke-linecap: square"/>
   </g>
  </g>
 </g>
 <defs>
  <clipPath id="pf24dbfe5b5">
   <rect x="30.103125" y="7.2" width="266.112" height="266.112"/>
  </clipPath>
 </defs>
</svg>
