<?xml version="1.0" encoding="utf-8" standalone="no"?>
<!DOCTYPE svg PUBLIC "-//W3C//DTD SVG 1.1//EN"
  "http://www.w3.org/Graphics/SVG/1.1/DTD/svg11.dtd">
<svg xmlns:xlink="http://www.w3.org/1999/xlink" width="303.415125pt" height="297.190125pt" viewBox="0 0 303.415125 297.190125" xmlns="http://www.w3.org/2000/svg" version="1.1">
 <metadata>
  <rdf:RDF xmlns:dc="http://purl.org/dc/elements/1.1/" xmlns:cc="http://creativecommons.org/ns#" xmlns:rdf="http://www.w3.org/1999/02/22-rdf-syntax-ns#">
   <cc:Work>
    <dc:type rdf:resource="http://purl.org/dc/dcmitype/StillImage"/>
    <dc:date>2024-07-16T17:07:19.111993</dc:date>
    <dc:format>image/svg+xml</dc:format>
    <dc:creator>
     <cc:Agent>
      <dc:title>Matplotlib v3.5.1, https://matplotlib.org/</dc:title>
     </cc:Agent>
    </dc:creator>
   </cc:Work>
  </rdf:RDF>
 </metadata>
 <defs>
  <style type="text/css">*{stroke-linejoin: round; stroke-linecap: butt}</style>
 </defs>
 <g id="figure_1">
  <g id="patch_1">
   <path d="M 0 297.190125 
L 303.415125 297.190125 
L 303.415125 0 
L 0 0 
z
" style="fill: #ffffff"/>
  </g>
  <g id="axes_1">
   <g id="patch_2">
    <path d="M 30.103125 273.312 
L 296.215125 273.312 
L 296.215125 7.2 
L 30.103125 7.2 
z
" style="fill: #ffffff"/>
   </g>
   <g id="line2d_1">
    <path d="M 54.295125 19.296 
L 42.199125 19.296 
M 66.391125 19.296 
L 54.295125 19.296 
M 78.487125 19.296 
L 66.391125 19.296 
M 90.583125 19.296 
L 78.487125 19.296 
M 102.679125 19.296 
L 90.583125 19.296 
M 114.775125 19.296 
L 102.679125 19.296 
M 126.871125 19.296 
L 114.775125 19.296 
M 138.967125 19.296 
L 126.871125 19.296 
M 151.063125 19.296 
L 138.967125 19.296 
M 163.159125 19.296 
L 151.063125 19.296 
M 175.255125 19.296 
L 163.159125 19.296 
M 187.351125 19.296 
L 175.255125 19.296 
M 199.447125 19.296 
L 187.351125 19.296 
M 211.543125 19.296 
L 199.447125 19.296 
M 223.639125 19.296 
L 211.543125 19.296 
M 235.735125 19.296 
L 223.639125 19.296 
M 247.831125 19.296 
L 235.735125 19.296 
M 259.927125 19.296 
L 247.831125 19.296 
M 272.023125 19.296 
L 284.119125 19.296 
M 272.023125 19.296 
L 259.927125 19.296 
M 284.119125 31.392 
L 284.119125 19.296 
M 284.119125 43.488 
L 284.119125 31.392 
M 284.119125 55.584 
L 284.119125 43.488 
M 284.119125 67.68 
L 284.119125 55.584 
M 284.119125 79.776 
L 284.119125 67.68 
M 284.119125 91.872 
L 284.119125 79.776 
M 284.119125 103.968 
L 284.119125 91.872 
M 284.119125 116.064 
L 284.119125 103.968 
M 284.119125 128.16 
L 284.119125 116.064 
M 284.119125 140.256 
L 284.119125 128.16 
M 284.119125 152.352 
L 284.119125 140.256 
M 284.119125 164.448 
L 284.119125 152.352 
M 284.119125 176.544 
L 284.119125 164.448 
M 284.119125 188.64 
L 284.119125 176.544 
M 284.119125 200.736 
L 284.119125 188.64 
M 284.119125 212.832 
L 284.119125 200.736 
M 284.119125 224.928 
L 284.119125 212.832 
M 284.119125 237.024 
L 284.119125 224.928 
M 284.119125 249.12 
L 284.119125 261.216 
M 284.119125 249.12 
L 284.119125 237.024 
M 272.023125 261.216 
L 284.119125 261.216 
M 259.927125 261.216 
L 272.023125 261.216 
M 247.831125 261.216 
L 259.927125 261.216 
M 235.735125 261.216 
L 247.831125 261.216 
M 223.639125 261.216 
L 235.735125 261.216 
M 211.543125 261.216 
L 223.639125 261.216 
M 199.447125 261.216 
L 211.543125 261.216 
M 187.351125 261.216 
L 199.447125 261.216 
M 175.255125 261.216 
L 187.351125 261.216 
M 163.159125 261.216 
L 175.255125 261.216 
M 151.063125 261.216 
L 163.159125 261.216 
M 138.967125 261.216 
L 151.063125 261.216 
M 126.871125 261.216 
L 138.967125 261.216 
M 114.775125 261.216 
L 126.871125 261.216 
M 102.679125 261.216 
L 114.775125 261.216 
M 90.583125 261.216 
L 102.679125 261.216 
M 78.487125 261.216 
L 90.583125 261.216 
M 66.391125 261.216 
L 78.487125 261.216 
M 54.295125 261.216 
L 42.199125 261.216 
M 54.295125 261.216 
L 66.391125 261.216 
M 42.199125 249.12 
L 42.199125 261.216 
M 42.199125 237.024 
L 42.199125 249.12 
M 42.199125 224.928 
L 42.199125 237.024 
M 42.199125 212.832 
L 42.199125 224.928 
M 42.199125 200.736 
L 42.199125 212.832 
M 42.199125 188.64 
L 42.199125 200.736 
M 42.199125 176.544 
L 42.199125 188.64 
M 42.199125 164.448 
L 42.199125 176.544 
M 42.199125 152.352 
L 42.199125 164.448 
M 42.199125 140.256 
L 42.199125 152.352 
M 42.199125 128.16 
L 42.199125 140.256 
M 42.199125 116.064 
L 42.199125 128.16 
M 42.199125 103.968 
L 42.199125 116.064 
M 42.199125 91.872 
L 42.199125 103.968 
M 42.199125 79.776 
L 42.199125 91.872 
M 42.199125 67.68 
L 42.199125 79.776 
M 42.199125 55.584 
L 42.199125 67.68 
M 42.199125 43.488 
L 42.199125 55.584 
M 42.199125 31.392 
L 42.199125 19.296 
M 42.199125 31.392 
L 42.199125 43.488 
M 273.643682 146.304 
L 284.119125 140.256 
M 273.643682 146.304 
L 284.119125 152.352 
M 157.640513 249.007129 
L 163.159125 261.216 
M 157.640513 249.007129 
L 151.063125 261.216 
M 52.674568 134.208 
L 42.199125 140.256 
M 52.674568 134.208 
L 42.199125 128.16 
M 168.832213 27.519446 
L 163.159125 19.296 
M 168.832213 27.519446 
L 175.255125 19.296 
M 205.495125 250.740557 
L 211.543125 261.216 
M 205.495125 250.740557 
L 199.447125 261.216 
M 273.643682 97.92 
L 284.119125 91.872 
M 273.643682 97.92 
L 284.119125 103.968 
M 52.674568 182.592 
L 42.199125 188.64 
M 52.674568 182.592 
L 42.199125 176.544 
M 120.947739 29.909203 
L 114.775125 19.296 
M 120.947739 29.909203 
L 126.871125 19.296 
M 273.643682 182.592 
L 284.119125 176.544 
M 273.643682 182.592 
L 284.119125 188.64 
M 120.823125 250.993586 
L 126.871125 261.216 
M 120.823125 250.993586 
L 114.775125 261.216 
M 205.319356 28.290132 
L 199.447125 19.296 
M 205.319356 28.290132 
L 211.543125 19.296 
M 52.674568 97.92 
L 42.199125 103.968 
M 52.674568 97.92 
L 42.199125 91.872 
M 273.643682 61.632 
L 284.119125 55.584 
M 273.643682 61.632 
L 284.119125 67.68 
M 241.894432 250.468184 
L 247.831125 261.216 
M 241.894432 250.468184 
L 235.735125 261.216 
M 85.269283 251.083864 
L 90.583125 261.216 
M 85.269283 251.083864 
L 78.487125 261.216 
M 52.338025 61.147633 
L 42.199125 67.68 
M 52.338025 61.147633 
L 42.199125 55.584 
M 273.643682 218.88 
L 284.119125 212.832 
M 273.643682 218.88 
L 284.119125 224.928 
M 242.934737 30.991016 
L 235.735125 19.296 
M 242.934737 30.991016 
L 247.831125 19.296 
M 84.423818 30.043816 
L 78.487125 19.296 
M 84.423818 30.043816 
L 90.583125 19.296 
M 52.674568 218.88 
L 42.199125 224.928 
M 52.674568 218.88 
L 42.199125 212.832 
M 52.999643 157.867842 
L 42.199125 164.448 
M 52.999643 157.867842 
L 42.199125 152.352 
M 144.420722 30.150546 
L 138.967125 19.296 
M 144.420722 30.150546 
L 151.063125 19.296 
M 181.568037 251.642888 
L 187.351125 261.216 
M 181.568037 251.642888 
L 175.255125 261.216 
M 273.643682 122.112 
L 284.119125 116.064 
M 273.643682 122.112 
L 284.119125 128.16 
M 273.913775 37.907814 
L 284.119125 31.392 
M 273.913775 37.907814 
L 284.119125 43.488 
M 264.864402 250.260686 
L 272.023125 261.216 
M 264.864402 250.260686 
L 259.927125 261.216 
M 60.323425 250.956608 
L 66.391125 261.216 
M 60.323425 250.956608 
L 54.295125 261.216 
M 52.404475 37.907814 
L 42.199125 43.488 
M 52.404475 37.907814 
L 42.199125 31.392 
M 273.643682 158.4 
L 284.119125 152.352 
M 273.643682 158.4 
L 284.119125 164.448 
M 273.643682 158.4 
L 273.643682 146.304 
M 263.168238 152.352 
L 273.643682 146.304 
M 263.168238 152.352 
L 273.643682 158.4 
M 263.168238 164.448 
L 273.643682 158.4 
M 263.168238 164.448 
L 263.168238 152.352 
M 252.692795 158.4 
L 263.168238 152.352 
M 252.692795 158.4 
L 263.168238 164.448 
M 252.692795 146.304 
L 263.168238 152.352 
M 252.692795 146.304 
L 252.692795 158.4 
M 242.217352 152.352 
L 252.692795 158.4 
M 242.217352 152.352 
L 252.692795 146.304 
M 242.217352 140.256 
L 252.692795 146.304 
M 242.217352 140.256 
L 242.217352 152.352 
M 231.741909 146.304 
L 242.217352 152.352 
M 231.741909 146.304 
L 242.217352 140.256 
M 231.741909 134.208 
L 242.217352 140.256 
M 231.741909 134.208 
L 231.741909 146.304 
M 221.266465 140.256 
L 231.741909 146.304 
M 221.266465 140.256 
L 231.741909 134.208 
M 221.266465 152.352 
L 231.741909 146.304 
M 221.266465 152.352 
L 221.266465 140.256 
M 210.791022 146.304 
L 221.266465 140.256 
M 210.791022 146.304 
L 221.266465 152.352 
M 210.791022 134.208 
L 221.266465 140.256 
M 210.791022 134.208 
L 210.791022 146.304 
M 200.315579 140.256 
L 210.791022 146.304 
M 200.315579 140.256 
L 210.791022 134.208 
M 200.315579 128.16 
L 210.791022 134.208 
M 200.315579 128.16 
L 200.315579 140.256 
M 189.840135 134.208 
L 200.315579 140.256 
M 189.840135 134.208 
L 200.315579 128.16 
M 189.840135 146.304 
L 200.315579 140.256 
M 189.840135 146.304 
L 189.840135 134.208 
M 179.364692 140.256 
L 189.840135 134.208 
M 179.364692 140.256 
L 189.840135 146.304 
M 179.364692 128.16 
L 189.840135 134.208 
M 179.364692 128.16 
L 179.364692 140.256 
M 168.889249 134.208 
L 179.364692 140.256 
M 168.889249 134.208 
L 179.364692 128.16 
M 168.889249 146.304 
L 179.364692 140.256 
M 168.889249 146.304 
L 168.889249 134.208 
M 158.413806 140.256 
L 168.889249 134.208 
M 158.413806 140.256 
L 168.889249 146.304 
M 158.413806 152.352 
L 168.889249 146.304 
M 158.413806 152.352 
L 158.413806 140.256 
M 158.413806 128.16 
L 168.889249 134.208 
M 158.413806 128.16 
L 158.413806 140.256 
M 147.938362 146.304 
L 158.413806 140.256 
M 147.938362 146.304 
L 158.413806 152.352 
M 147.938362 158.4 
L 158.413806 152.352 
M 147.938362 158.4 
L 147.938362 146.304 
M 158.413806 164.448 
L 158.413806 152.352 
M 158.413806 164.448 
L 147.938362 158.4 
M 147.938362 170.496 
L 147.938362 158.4 
M 147.938362 170.496 
L 158.413806 164.448 
M 137.462919 152.352 
L 147.938362 146.304 
M 137.462919 152.352 
L 147.938362 158.4 
M 158.413806 176.544 
L 158.413806 164.448 
M 158.413806 176.544 
L 147.938362 170.496 
M 147.938362 182.592 
L 147.938362 170.496 
M 147.938362 182.592 
L 158.413806 176.544 
M 158.413806 188.64 
L 158.413806 176.544 
M 158.413806 188.64 
L 147.938362 182.592 
M 147.938362 194.688 
L 147.938362 182.592 
M 147.938362 194.688 
L 158.413806 188.64 
M 137.462919 188.64 
L 147.938362 182.592 
M 137.462919 188.64 
L 147.938362 194.688 
M 168.889249 182.592 
L 158.413806 176.544 
M 168.889249 182.592 
L 158.413806 188.64 
M 168.889249 194.688 
L 158.413806 188.64 
M 168.889249 194.688 
L 168.889249 182.592 
M 179.364692 188.64 
L 168.889249 182.592 
M 179.364692 188.64 
L 168.889249 194.688 
M 179.364692 200.736 
L 168.889249 194.688 
M 179.364692 200.736 
L 179.364692 188.64 
M 189.840135 194.688 
L 179.364692 188.64 
M 189.840135 194.688 
L 179.364692 200.736 
M 137.462919 200.736 
L 147.938362 194.688 
M 137.462919 200.736 
L 137.462919 188.64 
M 126.987476 194.688 
L 137.462919 188.64 
M 126.987476 194.688 
L 137.462919 200.736 
M 210.791022 122.112 
L 210.791022 134.208 
M 210.791022 122.112 
L 200.315579 128.16 
M 200.315579 116.064 
L 200.315579 128.16 
M 200.315579 116.064 
L 210.791022 122.112 
M 210.791022 110.016 
L 210.791022 122.112 
M 210.791022 110.016 
L 200.315579 116.064 
M 200.315579 103.968 
L 200.315579 116.064 
M 200.315579 103.968 
L 210.791022 110.016 
M 210.791022 97.92 
L 210.791022 110.016 
M 210.791022 97.92 
L 200.315579 103.968 
M 200.315579 91.872 
L 200.315579 103.968 
M 200.315579 91.872 
L 210.791022 97.92 
M 210.791022 85.824 
L 210.791022 97.92 
M 210.791022 85.824 
L 200.315579 91.872 
M 200.315579 79.776 
L 200.315579 91.872 
M 200.315579 79.776 
L 210.791022 85.824 
M 189.840135 85.824 
L 200.315579 91.872 
M 189.840135 85.824 
L 200.315579 79.776 
M 137.462919 140.256 
L 147.938362 146.304 
M 137.462919 140.256 
L 137.462919 152.352 
M 126.987476 146.304 
L 137.462919 152.352 
M 126.987476 146.304 
L 137.462919 140.256 
M 126.987476 134.208 
L 137.462919 140.256 
M 126.987476 134.208 
L 126.987476 146.304 
M 116.512032 140.256 
L 126.987476 146.304 
M 116.512032 140.256 
L 126.987476 134.208 
M 116.512032 128.16 
L 126.987476 134.208 
M 116.512032 128.16 
L 116.512032 140.256 
M 106.036589 134.208 
L 116.512032 140.256 
M 106.036589 134.208 
L 116.512032 128.16 
M 106.036589 146.304 
L 116.512032 140.256 
M 106.036589 146.304 
L 106.036589 134.208 
M 106.036589 122.112 
L 116.512032 128.16 
M 106.036589 122.112 
L 106.036589 134.208 
M 116.512032 116.064 
L 116.512032 128.16 
M 116.512032 116.064 
L 106.036589 122.112 
M 106.036589 110.016 
L 106.036589 122.112 
M 106.036589 110.016 
L 116.512032 116.064 
M 116.512032 103.968 
L 116.512032 116.064 
M 116.512032 103.968 
L 106.036589 110.016 
M 106.036589 97.92 
L 106.036589 110.016 
M 106.036589 97.92 
L 116.512032 103.968 
M 116.512032 91.872 
L 116.512032 103.968 
M 116.512032 91.872 
L 106.036589 97.92 
M 106.036589 85.824 
L 106.036589 97.92 
M 106.036589 85.824 
L 116.512032 91.872 
M 116.512032 79.776 
L 116.512032 91.872 
M 116.512032 79.776 
L 106.036589 85.824 
M 126.987476 85.824 
L 116.512032 91.872 
M 126.987476 85.824 
L 116.512032 79.776 
M 242.217352 164.448 
L 252.692795 158.4 
M 242.217352 164.448 
L 242.217352 152.352 
M 221.266465 103.968 
L 210.791022 110.016 
M 221.266465 103.968 
L 210.791022 97.92 
M 210.791022 73.728 
L 210.791022 85.824 
M 210.791022 73.728 
L 200.315579 79.776 
M 221.266465 79.776 
L 210.791022 85.824 
M 221.266465 79.776 
L 210.791022 73.728 
M 106.036589 73.728 
L 106.036589 85.824 
M 106.036589 73.728 
L 116.512032 79.776 
M 95.561146 79.776 
L 106.036589 85.824 
M 95.561146 79.776 
L 106.036589 73.728 
M 95.618039 116.064 
L 106.036589 122.112 
M 95.618039 116.064 
L 106.036589 110.016 
M 189.840135 73.728 
L 200.315579 79.776 
M 189.840135 73.728 
L 189.840135 85.824 
M 179.364692 79.776 
L 189.840135 85.824 
M 179.364692 79.776 
L 189.840135 73.728 
M 126.987476 73.728 
L 116.512032 79.776 
M 126.987476 73.728 
L 126.987476 85.824 
M 189.840135 206.784 
L 179.364692 200.736 
M 189.840135 206.784 
L 189.840135 194.688 
M 200.315579 200.736 
L 189.840135 194.688 
M 200.315579 200.736 
L 189.840135 206.784 
M 168.889249 206.784 
L 168.889249 194.688 
M 168.889249 206.784 
L 179.364692 200.736 
M 126.987476 206.784 
L 137.462919 200.736 
M 126.987476 206.784 
L 126.987476 194.688 
M 116.512032 200.736 
L 126.987476 194.688 
M 116.512032 200.736 
L 126.987476 206.784 
M 116.512032 188.64 
L 126.987476 194.688 
M 116.512032 188.64 
L 116.512032 200.736 
M 106.036589 194.688 
L 116.512032 200.736 
M 106.036589 194.688 
L 116.512032 188.64 
M 106.036589 206.784 
L 116.512032 200.736 
M 106.036589 206.784 
L 106.036589 194.688 
M 95.561146 200.736 
L 106.036589 194.688 
M 95.561146 200.736 
L 106.036589 206.784 
M 95.561146 188.64 
L 106.036589 194.688 
M 95.561146 188.64 
L 95.561146 200.736 
M 95.561146 140.256 
L 106.036589 134.208 
M 95.561146 140.256 
L 106.036589 146.304 
M 221.266465 67.68 
L 210.791022 73.728 
M 221.266465 67.68 
L 221.266465 79.776 
M 231.741909 73.728 
L 221.266465 79.776 
M 231.741909 73.728 
L 221.266465 67.68 
M 137.462919 212.832 
L 137.462919 200.736 
M 137.462919 212.832 
L 126.987476 206.784 
M 210.791022 158.4 
L 221.266465 152.352 
M 210.791022 158.4 
L 210.791022 146.304 
M 137.462919 79.776 
L 126.987476 85.824 
M 137.462919 79.776 
L 126.987476 73.728 
M 137.462919 91.872 
L 126.987476 85.824 
M 137.462919 91.872 
L 137.462919 79.776 
M 95.561146 212.832 
L 106.036589 206.784 
M 95.561146 212.832 
L 95.561146 200.736 
M 95.827686 68.141662 
L 106.036589 73.728 
M 95.827686 68.141662 
L 95.561146 79.776 
M 179.364692 67.68 
L 189.840135 73.728 
M 179.364692 67.68 
L 179.364692 79.776 
M 200.315579 212.832 
L 189.840135 206.784 
M 200.315579 212.832 
L 200.315579 200.736 
M 210.791022 206.784 
L 200.315579 200.736 
M 210.791022 206.784 
L 200.315579 212.832 
M 137.462919 67.68 
L 126.987476 73.728 
M 137.462919 67.68 
L 137.462919 79.776 
M 210.791022 194.688 
L 200.315579 200.736 
M 210.791022 194.688 
L 210.791022 206.784 
M 221.266465 200.736 
L 210.791022 206.784 
M 221.266465 200.736 
L 210.791022 194.688 
M 221.266465 212.832 
L 210.791022 206.784 
M 221.266465 212.832 
L 221.266465 200.736 
M 231.741909 206.784 
L 221.266465 200.736 
M 231.741909 206.784 
L 221.266465 212.832 
M 179.364692 91.872 
L 189.840135 85.824 
M 179.364692 91.872 
L 179.364692 79.776 
M 95.561146 152.352 
L 106.036589 146.304 
M 95.561146 152.352 
L 95.561146 140.256 
M 242.217352 128.16 
L 242.217352 140.256 
M 242.217352 128.16 
L 231.741909 134.208 
M 85.085703 206.784 
L 95.561146 200.736 
M 85.085703 206.784 
L 95.561146 212.832 
M 85.130126 73.804944 
L 95.561146 79.776 
M 85.130126 73.804944 
L 95.827686 68.141662 
M 85.093107 85.836824 
L 95.561146 79.776 
M 85.093107 85.836824 
L 85.130126 73.804944 
M 85.36043 146.779842 
L 95.561146 140.256 
M 85.36043 146.779842 
L 95.561146 152.352 
M 85.131491 158.479307 
L 95.561146 152.352 
M 85.131491 158.479307 
L 85.36043 146.779842 
M 189.840135 61.632 
L 189.840135 73.728 
M 189.840135 61.632 
L 179.364692 67.68 
M 106.137158 218.705809 
L 106.036589 206.784 
M 106.137158 218.705809 
L 95.561146 212.832 
M 106.184876 61.888841 
L 106.036589 73.728 
M 106.184876 61.888841 
L 95.827686 68.141662 
M 85.085703 218.88 
L 95.561146 212.832 
M 85.085703 218.88 
L 85.085703 206.784 
M 84.516503 63.230695 
L 95.827686 68.141662 
M 84.516503 63.230695 
L 85.130126 73.804944 
M 231.696976 218.957825 
L 221.266465 212.832 
M 231.696976 218.957825 
L 231.741909 206.784 
M 231.652388 61.787054 
L 221.266465 67.68 
M 231.652388 61.787054 
L 231.741909 73.728 
M 189.840135 218.88 
L 189.840135 206.784 
M 189.840135 218.88 
L 200.315579 212.832 
M 242.209863 212.844971 
L 231.741909 206.784 
M 242.209863 212.844971 
L 231.696976 218.957825 
M 242.216104 200.738162 
L 231.741909 206.784 
M 242.216104 200.738162 
L 242.209863 212.844971 
M 179.364692 176.544 
L 168.889249 182.592 
M 179.364692 176.544 
L 179.364692 188.64 
M 221.266465 188.64 
L 210.791022 194.688 
M 221.266465 188.64 
L 221.266465 200.736 
M 126.987476 158.4 
L 137.462919 152.352 
M 126.987476 158.4 
L 126.987476 146.304 
M 168.889249 85.824 
L 179.364692 79.776 
M 168.889249 85.824 
L 179.364692 91.872 
M 168.889249 97.92 
L 179.364692 91.872 
M 168.889249 97.92 
L 168.889249 85.824 
M 242.202432 67.705842 
L 231.741909 73.728 
M 242.202432 67.705842 
L 231.652388 61.787054 
M 242.214865 79.780307 
L 231.741909 73.728 
M 242.214865 79.780307 
L 242.202432 67.705842 
M 74.618897 79.790961 
L 85.130126 73.804944 
M 74.618897 79.790961 
L 85.093107 85.836824 
M 221.266465 224.928 
L 221.266465 212.832 
M 221.266465 224.928 
L 231.696976 218.957825 
M 221.266465 55.584 
L 221.266465 67.68 
M 221.266465 55.584 
L 231.652388 61.787054 
M 179.364692 55.584 
L 179.364692 67.68 
M 179.364692 55.584 
L 189.840135 61.632 
M 168.889249 61.632 
L 179.364692 67.68 
M 168.889249 61.632 
L 179.364692 55.584 
M 242.163683 225.020957 
L 231.696976 218.957825 
M 242.163683 225.020957 
L 242.209863 212.844971 
M 242.571323 55.769203 
L 231.652388 61.787054 
M 242.571323 55.769203 
L 242.202432 67.705842 
M 252.691339 206.786522 
L 242.209863 212.844971 
M 252.691339 206.786522 
L 242.216104 200.738162 
M 210.791022 182.592 
L 210.791022 194.688 
M 210.791022 182.592 
L 221.266465 188.64 
M 126.987476 110.016 
L 116.512032 116.064 
M 126.987476 110.016 
L 116.512032 103.968 
M 106.036589 158.4 
L 106.036589 146.304 
M 106.036589 158.4 
L 95.561146 152.352 
M 221.266465 164.448 
L 221.266465 152.352 
M 221.266465 164.448 
L 210.791022 158.4 
M 126.987476 61.632 
L 126.987476 73.728 
M 126.987476 61.632 
L 137.462919 67.68 
M 137.462919 55.584 
L 137.462919 67.68 
M 137.462919 55.584 
L 126.987476 61.632 
M 189.840135 110.016 
L 200.315579 116.064 
M 189.840135 110.016 
L 200.315579 103.968 
M 137.462919 128.16 
L 137.462919 140.256 
M 137.462919 128.16 
L 126.987476 134.208 
M 200.321802 224.938779 
L 200.315579 212.832 
M 200.321802 224.938779 
L 189.840135 218.88 
M 85.085703 134.208 
L 95.561146 140.256 
M 85.085703 134.208 
L 85.36043 146.779842 
M 126.987476 218.88 
L 126.987476 206.784 
M 126.987476 218.88 
L 137.462919 212.832 
M 137.462919 224.928 
L 137.462919 212.832 
M 137.462919 224.928 
L 126.987476 218.88 
M 147.938362 218.88 
L 137.462919 212.832 
M 147.938362 218.88 
L 137.462919 224.928 
M 147.938362 73.728 
L 137.462919 79.776 
M 147.938362 73.728 
L 137.462919 67.68 
M 252.692344 194.688781 
L 242.216104 200.738162 
M 252.692344 194.688781 
L 252.691339 206.786522 
M 242.217069 188.64049 
L 242.216104 200.738162 
M 242.217069 188.64049 
L 252.692344 194.688781 
M 252.689894 73.733025 
L 242.202432 67.705842 
M 252.689894 73.733025 
L 242.214865 79.780307 
M 252.691897 85.825555 
L 242.214865 79.780307 
M 252.691897 85.825555 
L 252.689894 73.733025 
M 242.216788 91.872977 
L 242.214865 79.780307 
M 242.216788 91.872977 
L 252.691897 85.825555 
M 252.692551 97.920422 
L 252.691897 85.825555 
M 252.692551 97.920422 
L 242.216788 91.872977 
M 242.217217 103.968233 
L 242.216788 91.872977 
M 242.217217 103.968233 
L 252.692551 97.920422 
M 252.692732 110.016109 
L 252.692551 97.920422 
M 252.692732 110.016109 
L 242.217217 103.968233 
M 74.669826 91.876631 
L 85.093107 85.836824 
M 74.669826 91.876631 
L 74.618897 79.790961 
M 189.840135 49.536 
L 189.840135 61.632 
M 189.840135 49.536 
L 179.364692 55.584 
M 74.992107 154.404209 
L 85.36043 146.779842 
M 74.992107 154.404209 
L 85.131491 158.479307 
M 74.610259 164.448 
L 85.131491 158.479307 
M 74.610259 164.448 
L 74.992107 154.404209 
M 74.667153 212.832 
L 85.085703 206.784 
M 74.667153 212.832 
L 85.085703 218.88 
M 74.676635 224.928 
L 85.085703 218.88 
M 74.676635 224.928 
L 74.667153 212.832 
M 74.619742 200.736 
L 85.085703 206.784 
M 74.619742 200.736 
L 74.667153 212.832 
M 148.115454 230.669268 
L 137.462919 224.928 
M 148.115454 230.669268 
L 147.938362 218.88 
M 158.443321 224.876878 
L 147.938362 218.88 
M 158.443321 224.876878 
L 148.115454 230.669268 
M 138.053162 238.724183 
L 137.462919 224.928 
M 138.053162 238.724183 
L 148.115454 230.669268 
M 189.676147 230.691964 
L 189.840135 218.88 
M 189.676147 230.691964 
L 200.321802 224.938779 
M 179.337361 224.880661 
L 189.840135 218.88 
M 179.337361 224.880661 
L 189.676147 230.691964 
M 231.741909 122.112 
L 231.741909 134.208 
M 231.741909 122.112 
L 242.217352 128.16 
M 200.315579 55.584 
L 189.840135 61.632 
M 200.315579 55.584 
L 189.840135 49.536 
M 85.096864 97.922909 
L 85.093107 85.836824 
M 85.096864 97.922909 
L 74.669826 91.876631 
M 73.796296 102.913466 
L 74.669826 91.876631 
M 73.796296 102.913466 
L 85.096864 97.922909 
M 85.093334 170.509218 
L 85.131491 158.479307 
M 85.093334 170.509218 
L 74.610259 164.448 
M 74.668425 176.546203 
L 74.610259 164.448 
M 74.668425 176.546203 
L 85.093334 170.509218 
M 158.413806 91.872 
L 168.889249 85.824 
M 158.413806 91.872 
L 168.889249 97.92 
M 158.413806 103.968 
L 168.889249 97.92 
M 158.413806 103.968 
L 158.413806 91.872 
M 168.889249 110.016 
L 168.889249 97.92 
M 168.889249 110.016 
L 158.413806 103.968 
M 263.167921 200.73655 
L 252.691339 206.786522 
M 263.167921 200.73655 
L 252.692344 194.688781 
M 252.692673 182.592212 
L 252.692344 194.688781 
M 252.692673 182.592212 
L 242.217069 188.64049 
M 263.167605 79.777097 
L 252.689894 73.733025 
M 263.167605 79.777097 
L 252.691897 85.825555 
M 127.020539 49.841641 
L 126.987476 61.632 
M 127.020539 49.841641 
L 137.462919 55.584 
M 85.73481 231.721957 
L 85.085703 218.88 
M 85.73481 231.721957 
L 74.676635 224.928 
M 168.678437 49.901137 
L 179.364692 55.584 
M 168.678437 49.901137 
L 168.889249 61.632 
M 158.37867 55.644856 
L 168.889249 61.632 
M 158.37867 55.644856 
L 168.678437 49.901137 
M 74.054123 236.953858 
L 74.676635 224.928 
M 74.054123 236.953858 
L 85.73481 231.721957 
M 158.121981 43.960775 
L 168.678437 49.901137 
M 158.121981 43.960775 
L 158.37867 55.644856 
M 64.134816 206.784 
L 52.674568 218.88 
M 64.134816 206.784 
L 74.667153 212.832 
M 64.134816 206.784 
L 74.619742 200.736 
M 64.134816 85.824 
L 52.674568 97.92 
M 64.134816 85.824 
L 74.618897 79.790961 
M 64.134816 85.824 
L 74.669826 91.876631 
M 64.103497 172.27615 
L 52.674568 182.592 
M 64.103497 172.27615 
L 74.610259 164.448 
M 64.103497 172.27615 
L 74.668425 176.546203 
M 63.165157 230.806571 
L 52.674568 218.88 
M 63.165157 230.806571 
L 74.676635 224.928 
M 63.165157 230.806571 
L 74.054123 236.953858 
M 64.608228 73.958084 
L 74.618897 79.790961 
M 64.608228 73.958084 
L 64.134816 85.824 
M 64.134816 194.688 
L 52.674568 182.592 
M 64.134816 194.688 
L 74.619742 200.736 
M 64.134816 194.688 
L 64.134816 206.784 
M 137.947672 41.841819 
L 144.420722 30.150546 
M 137.947672 41.841819 
L 137.462919 55.584 
M 137.947672 41.841819 
L 127.020539 49.841641 
M 199.96642 238.745881 
L 205.495125 250.740557 
M 199.96642 238.745881 
L 200.321802 224.938779 
M 199.96642 238.745881 
L 189.676147 230.691964 
M 200.120417 44.294049 
L 189.840135 49.536 
M 200.120417 44.294049 
L 200.315579 55.584 
M 190.354698 38.25928 
L 189.840135 49.536 
M 190.354698 38.25928 
L 200.120417 44.294049 
M 178.287143 235.562337 
L 189.676147 230.691964 
M 178.287143 235.562337 
L 179.337361 224.880661 
M 158.285638 236.273677 
L 157.640513 249.007129 
M 158.285638 236.273677 
L 148.115454 230.669268 
M 158.285638 236.273677 
L 158.443321 224.876878 
M 263.167943 212.832512 
L 273.643682 218.88 
M 263.167943 212.832512 
L 252.691339 206.786522 
M 263.167943 212.832512 
L 263.167921 200.73655 
M 273.643682 170.496 
L 284.119125 164.448 
M 273.643682 170.496 
L 284.119125 176.544 
M 273.643682 170.496 
L 273.643682 182.592 
M 273.643682 170.496 
L 273.643682 158.4 
M 273.643682 170.496 
L 263.168238 164.448 
M 144.607327 250.355913 
L 151.063125 261.216 
M 144.607327 250.355913 
L 138.967125 261.216 
M 144.607327 250.355913 
L 157.640513 249.007129 
M 144.607327 250.355913 
L 138.053162 238.724183 
M 132.919125 250.740557 
L 138.967125 261.216 
M 132.919125 250.740557 
L 126.871125 261.216 
M 132.919125 250.740557 
L 120.823125 250.993586 
M 132.919125 250.740557 
L 138.053162 238.724183 
M 132.919125 250.740557 
L 144.607327 250.355913 
M 231.741792 97.920202 
L 221.266465 103.968 
M 231.741792 97.920202 
L 242.216788 91.872977 
M 231.741792 97.920202 
L 242.217217 103.968233 
M 273.643682 134.208 
L 284.119125 128.16 
M 273.643682 134.208 
L 284.119125 140.256 
M 273.643682 134.208 
L 273.643682 146.304 
M 273.643682 134.208 
L 273.643682 122.112 
M 263.168238 128.16 
L 273.643682 122.112 
M 263.168238 128.16 
L 273.643682 134.208 
M 170.09882 251.425067 
L 175.255125 261.216 
M 170.09882 251.425067 
L 163.159125 261.216 
M 170.09882 251.425067 
L 157.640513 249.007129 
M 170.09882 251.425067 
L 181.568037 251.642888 
M 158.418725 212.82348 
L 168.889249 206.784 
M 158.418725 212.82348 
L 147.938362 218.88 
M 158.418725 212.82348 
L 158.443321 224.876878 
M 52.674568 122.112 
L 42.199125 128.16 
M 52.674568 122.112 
L 42.199125 116.064 
M 52.674568 122.112 
L 52.674568 134.208 
M 63.093118 128.16 
L 52.674568 134.208 
M 63.093118 128.16 
L 52.674568 122.112 
M 63.150012 116.064 
L 52.674568 122.112 
M 63.150012 116.064 
L 63.093118 128.16 
M 73.653409 123.897976 
L 85.085703 134.208 
M 73.653409 123.897976 
L 63.093118 128.16 
M 73.653409 123.897976 
L 63.150012 116.064 
M 63.465604 139.723842 
L 52.674568 134.208 
M 63.465604 139.723842 
L 63.093118 128.16 
M 242.217319 116.064057 
L 242.217352 128.16 
M 242.217319 116.064057 
L 242.217217 103.968233 
M 242.217319 116.064057 
L 252.692732 110.016109 
M 242.217319 116.064057 
L 231.741909 122.112 
M 210.791022 170.496 
L 210.791022 158.4 
M 210.791022 170.496 
L 210.791022 182.592 
M 210.791022 170.496 
L 221.266465 164.448 
M 200.315579 164.448 
L 210.791022 158.4 
M 200.315579 164.448 
L 210.791022 170.496 
M 200.315579 176.544 
L 210.791022 182.592 
M 200.315579 176.544 
L 210.791022 170.496 
M 200.315579 176.544 
L 200.315579 164.448 
M 52.399841 110.491842 
L 42.199125 116.064 
M 52.399841 110.491842 
L 42.199125 103.968 
M 52.399841 110.491842 
L 52.674568 97.92 
M 52.399841 110.491842 
L 52.674568 122.112 
M 52.399841 110.491842 
L 63.150012 116.064 
M 157.460351 31.304854 
L 151.063125 19.296 
M 157.460351 31.304854 
L 163.159125 19.296 
M 157.460351 31.304854 
L 168.832213 27.519446 
M 157.460351 31.304854 
L 144.420722 30.150546 
M 157.460351 31.304854 
L 158.121981 43.960775 
M 52.724453 146.126614 
L 42.199125 152.352 
M 52.724453 146.126614 
L 42.199125 140.256 
M 52.724453 146.126614 
L 52.674568 134.208 
M 52.724453 146.126614 
L 52.999643 157.867842 
M 52.724453 146.126614 
L 63.465604 139.723842 
M 221.266465 176.544 
L 221.266465 188.64 
M 221.266465 176.544 
L 210.791022 182.592 
M 221.266465 176.544 
L 221.266465 164.448 
M 221.266465 176.544 
L 210.791022 170.496 
M 108.727125 250.782728 
L 114.775125 261.216 
M 108.727125 250.782728 
L 102.679125 261.216 
M 108.727125 250.782728 
L 120.823125 250.993586 
M 115.605716 238.522795 
L 120.823125 250.993586 
M 115.605716 238.522795 
L 108.727125 250.782728 
M 102.595161 240.720076 
L 108.727125 250.782728 
M 102.595161 240.720076 
L 115.605716 238.522795 
M 231.741891 110.01603 
L 221.266465 103.968 
M 231.741891 110.01603 
L 242.217217 103.968233 
M 231.741891 110.01603 
L 231.741909 122.112 
M 231.741891 110.01603 
L 231.741792 97.920202 
M 231.741891 110.01603 
L 242.217319 116.064057 
M 73.12349 249.25471 
L 78.487125 261.216 
M 73.12349 249.25471 
L 66.391125 261.216 
M 73.12349 249.25471 
L 85.269283 251.083864 
M 73.12349 249.25471 
L 60.323425 250.956608 
M 73.12349 249.25471 
L 74.054123 236.953858 
M 273.688697 49.613969 
L 284.119125 43.488 
M 273.688697 49.613969 
L 284.119125 55.584 
M 273.688697 49.613969 
L 273.643682 61.632 
M 273.688697 49.613969 
L 273.913775 37.907814 
M 263.220756 43.578964 
L 273.913775 37.907814 
M 263.220756 43.578964 
L 273.688697 49.613969 
M 264.417277 30.43835 
L 259.927125 19.296 
M 264.417277 30.43835 
L 272.023125 19.296 
M 264.417277 30.43835 
L 273.913775 37.907814 
M 264.417277 30.43835 
L 263.220756 43.578964 
M 253.687905 37.571852 
L 242.934737 30.991016 
M 253.687905 37.571852 
L 263.220756 43.578964 
M 253.687905 37.571852 
L 264.417277 30.43835 
M 263.184494 55.612155 
L 273.643682 61.632 
M 263.184494 55.612155 
L 273.688697 49.613969 
M 263.184494 55.612155 
L 263.220756 43.578964 
M 217.56183 29.273857 
L 211.543125 19.296 
M 217.56183 29.273857 
L 223.639125 19.296 
M 217.56183 29.273857 
L 205.319356 28.290132 
M 229.874178 29.891774 
L 223.639125 19.296 
M 229.874178 29.891774 
L 235.735125 19.296 
M 229.874178 29.891774 
L 242.934737 30.991016 
M 229.874178 29.891774 
L 217.56183 29.273857 
M 234.527114 39.0168 
L 242.934737 30.991016 
M 234.527114 39.0168 
L 229.874178 29.891774 
M 222.750824 41.347216 
L 221.266465 55.584 
M 222.750824 41.347216 
L 217.56183 29.273857 
M 222.750824 41.347216 
L 229.874178 29.891774 
M 222.750824 41.347216 
L 234.527114 39.0168 
M 273.700759 230.877139 
L 284.119125 224.928 
M 273.700759 230.877139 
L 284.119125 237.024 
M 273.700759 230.877139 
L 273.643682 218.88 
M 263.177702 224.911609 
L 273.643682 218.88 
M 263.177702 224.911609 
L 263.167943 212.832512 
M 263.177702 224.911609 
L 273.700759 230.877139 
M 263.5191 237.096045 
L 264.864402 250.260686 
M 263.5191 237.096045 
L 273.700759 230.877139 
M 263.5191 237.096045 
L 263.177702 224.911609 
M 252.743905 231.000768 
L 242.163683 225.020957 
M 252.743905 231.000768 
L 263.177702 224.911609 
M 252.743905 231.000768 
L 263.5191 237.096045 
M 253.04536 243.135202 
L 241.894432 250.468184 
M 253.04536 243.135202 
L 264.864402 250.260686 
M 253.04536 243.135202 
L 263.5191 237.096045 
M 253.04536 243.135202 
L 252.743905 231.000768 
M 242.141623 237.43648 
L 241.894432 250.468184 
M 242.141623 237.43648 
L 242.163683 225.020957 
M 242.141623 237.43648 
L 252.743905 231.000768 
M 242.141623 237.43648 
L 253.04536 243.135202 
M 230.635412 243.492933 
L 241.894432 250.468184 
M 230.635412 243.492933 
L 242.141623 237.43648 
M 231.472316 231.442948 
L 231.696976 218.957825 
M 231.472316 231.442948 
L 221.266465 224.928 
M 231.472316 231.442948 
L 242.163683 225.020957 
M 231.472316 231.442948 
L 242.141623 237.43648 
M 231.472316 231.442948 
L 230.635412 243.492933 
M 220.648824 237.317753 
L 221.266465 224.928 
M 220.648824 237.317753 
L 230.635412 243.492933 
M 220.648824 237.317753 
L 231.472316 231.442948 
M 210.698155 231.087007 
L 221.266465 224.928 
M 210.698155 231.087007 
L 200.321802 224.938779 
M 210.698155 231.087007 
L 199.96642 238.745881 
M 210.698155 231.087007 
L 220.648824 237.317753 
M 52.674568 49.536 
L 42.199125 55.584 
M 52.674568 49.536 
L 42.199125 43.488 
M 52.674568 49.536 
L 52.338025 61.147633 
M 52.674568 49.536 
L 52.404475 37.907814 
M 63.104996 43.565969 
L 52.404475 37.907814 
M 63.104996 43.565969 
L 52.674568 49.536 
M 61.902045 30.436493 
L 54.295125 19.296 
M 61.902045 30.436493 
L 66.391125 19.296 
M 61.902045 30.436493 
L 52.404475 37.907814 
M 61.902045 30.436493 
L 63.104996 43.565969 
M 73.625455 37.44 
L 84.423818 30.043816 
M 73.625455 37.44 
L 63.104996 43.565969 
M 73.625455 37.44 
L 61.902045 30.436493 
M 73.625455 49.536 
L 63.104996 43.565969 
M 73.625455 49.536 
L 73.625455 37.44 
M 83.965048 42.637249 
L 84.423818 30.043816 
M 83.965048 42.637249 
L 73.625455 37.44 
M 83.965048 42.637249 
L 73.625455 49.536 
M 95.662118 36.961643 
L 84.423818 30.043816 
M 95.662118 36.961643 
L 83.965048 42.637249 
M 95.353428 47.636393 
L 83.965048 42.637249 
M 95.353428 47.636393 
L 95.662118 36.961643 
M 105.071448 42.535782 
L 95.662118 36.961643 
M 105.071448 42.535782 
L 95.353428 47.636393 
M 96.741613 250.843892 
L 102.679125 261.216 
M 96.741613 250.843892 
L 90.583125 261.216 
M 96.741613 250.843892 
L 85.269283 251.083864 
M 96.741613 250.843892 
L 108.727125 250.782728 
M 96.741613 250.843892 
L 102.595161 240.720076 
M 263.168238 140.256 
L 273.643682 146.304 
M 263.168238 140.256 
L 263.168238 152.352 
M 263.168238 140.256 
L 252.692795 146.304 
M 263.168238 140.256 
L 273.643682 134.208 
M 263.168238 140.256 
L 263.168238 128.16 
M 85.087283 194.688 
L 95.561146 200.736 
M 85.087283 194.688 
L 95.561146 188.64 
M 85.087283 194.688 
L 85.085703 206.784 
M 85.087283 194.688 
L 74.619742 200.736 
M 189.840135 170.496 
L 179.364692 176.544 
M 189.840135 170.496 
L 200.315579 164.448 
M 189.840135 170.496 
L 200.315579 176.544 
M 126.987476 97.92 
L 116.512032 103.968 
M 126.987476 97.92 
L 116.512032 91.872 
M 126.987476 97.92 
L 126.987476 85.824 
M 126.987476 97.92 
L 137.462919 91.872 
M 126.987476 97.92 
L 126.987476 110.016 
M 137.462919 103.968 
L 137.462919 91.872 
M 137.462919 103.968 
L 126.987476 110.016 
M 137.462919 103.968 
L 126.987476 97.92 
M 137.462919 116.064 
L 126.987476 110.016 
M 137.462919 116.064 
L 137.462919 128.16 
M 137.462919 116.064 
L 137.462919 103.968 
M 62.987868 55.314199 
L 52.338025 61.147633 
M 62.987868 55.314199 
L 52.674568 49.536 
M 62.987868 55.314199 
L 63.104996 43.565969 
M 62.987868 55.314199 
L 73.625455 49.536 
M 168.889249 170.496 
L 158.413806 164.448 
M 168.889249 170.496 
L 158.413806 176.544 
M 168.889249 170.496 
L 168.889249 182.592 
M 168.889249 170.496 
L 179.364692 176.544 
M 168.889249 158.4 
L 168.889249 146.304 
M 168.889249 158.4 
L 158.413806 152.352 
M 168.889249 158.4 
L 158.413806 164.448 
M 168.889249 158.4 
L 168.889249 170.496 
M 147.939182 206.78258 
L 147.938362 194.688 
M 147.939182 206.78258 
L 137.462919 200.736 
M 147.939182 206.78258 
L 137.462919 212.832 
M 147.939182 206.78258 
L 147.938362 218.88 
M 147.939182 206.78258 
L 158.418725 212.82348 
M 179.364692 103.968 
L 179.364692 91.872 
M 179.364692 103.968 
L 168.889249 97.92 
M 179.364692 103.968 
L 189.840135 110.016 
M 179.364692 103.968 
L 168.889249 110.016 
M 158.414762 200.734343 
L 158.413806 188.64 
M 158.414762 200.734343 
L 147.938362 194.688 
M 158.414762 200.734343 
L 168.889249 194.688 
M 158.414762 200.734343 
L 168.889249 206.784 
M 158.414762 200.734343 
L 158.418725 212.82348 
M 158.414762 200.734343 
L 147.939182 206.78258 
M 126.987476 182.592 
L 137.462919 188.64 
M 126.987476 182.592 
L 126.987476 194.688 
M 126.987476 182.592 
L 116.512032 188.64 
M 116.512032 176.544 
L 116.512032 188.64 
M 116.512032 176.544 
L 126.987476 182.592 
M 106.036589 182.592 
L 116.512032 188.64 
M 106.036589 182.592 
L 106.036589 194.688 
M 106.036589 182.592 
L 95.561146 188.64 
M 106.036589 182.592 
L 116.512032 176.544 
M 221.266446 91.872034 
L 210.791022 97.92 
M 221.266446 91.872034 
L 210.791022 85.824 
M 221.266446 91.872034 
L 221.266465 103.968 
M 221.266446 91.872034 
L 221.266465 79.776 
M 221.266446 91.872034 
L 231.741792 97.920202 
M 189.840135 182.592 
L 179.364692 188.64 
M 189.840135 182.592 
L 189.840135 194.688 
M 189.840135 182.592 
L 179.364692 176.544 
M 189.840135 182.592 
L 200.315579 176.544 
M 189.840135 182.592 
L 189.840135 170.496 
M 231.741909 170.496 
L 242.217352 164.448 
M 231.741909 170.496 
L 221.266465 164.448 
M 231.741909 170.496 
L 221.266465 176.544 
M 126.987476 230.976 
L 126.987476 218.88 
M 126.987476 230.976 
L 137.462919 224.928 
M 126.987476 230.976 
L 138.053162 238.724183 
M 126.987476 230.976 
L 115.605716 238.522795 
M 179.360137 212.82411 
L 179.364692 200.736 
M 179.360137 212.82411 
L 189.840135 206.784 
M 179.360137 212.82411 
L 168.889249 206.784 
M 179.360137 212.82411 
L 189.840135 218.88 
M 179.360137 212.82411 
L 179.337361 224.880661 
M 132.919125 29.771443 
L 126.871125 19.296 
M 132.919125 29.771443 
L 138.967125 19.296 
M 132.919125 29.771443 
L 120.947739 29.909203 
M 132.919125 29.771443 
L 144.420722 30.150546 
M 132.919125 29.771443 
L 137.947672 41.841819 
M 107.513349 31.317308 
L 102.679125 19.296 
M 107.513349 31.317308 
L 114.775125 19.296 
M 107.513349 31.317308 
L 120.947739 29.909203 
M 107.513349 31.317308 
L 95.662118 36.961643 
M 107.513349 31.317308 
L 105.071448 42.535782 
M 231.741861 182.592082 
L 221.266465 188.64 
M 231.741861 182.592082 
L 242.217069 188.64049 
M 231.741861 182.592082 
L 221.266465 176.544 
M 231.741861 182.592082 
L 231.741909 170.496 
M 116.536747 67.722807 
L 116.512032 79.776 
M 116.536747 67.722807 
L 106.036589 73.728 
M 116.536747 67.722807 
L 126.987476 73.728 
M 116.536747 67.722807 
L 106.184876 61.888841 
M 116.536747 67.722807 
L 126.987476 61.632 
M 218.97759 249.859639 
L 223.639125 261.216 
M 218.97759 249.859639 
L 211.543125 261.216 
M 218.97759 249.859639 
L 205.495125 250.740557 
M 218.97759 249.859639 
L 230.635412 243.492933 
M 218.97759 249.859639 
L 220.648824 237.317753 
M 193.779636 250.819722 
L 199.447125 261.216 
M 193.779636 250.819722 
L 187.351125 261.216 
M 193.779636 250.819722 
L 205.495125 250.740557 
M 193.779636 250.819722 
L 181.568037 251.642888 
M 193.779636 250.819722 
L 199.96642 238.745881 
M 179.478942 43.752367 
L 179.364692 55.584 
M 179.478942 43.752367 
L 189.840135 49.536 
M 179.478942 43.752367 
L 168.678437 49.901137 
M 179.478942 43.752367 
L 190.354698 38.25928 
M 231.741377 85.82492 
L 221.266465 79.776 
M 231.741377 85.82492 
L 231.741909 73.728 
M 231.741377 85.82492 
L 242.214865 79.780307 
M 231.741377 85.82492 
L 242.216788 91.872977 
M 231.741377 85.82492 
L 231.741792 97.920202 
M 231.741377 85.82492 
L 221.266446 91.872034 
M 179.364692 152.352 
L 189.840135 146.304 
M 179.364692 152.352 
L 179.364692 140.256 
M 179.364692 152.352 
L 168.889249 146.304 
M 179.364692 152.352 
L 168.889249 158.4 
M 116.512032 152.352 
L 126.987476 146.304 
M 116.512032 152.352 
L 116.512032 140.256 
M 116.512032 152.352 
L 106.036589 146.304 
M 116.512032 152.352 
L 126.987476 158.4 
M 116.512032 152.352 
L 106.036589 158.4 
M 221.266462 116.064005 
L 210.791022 122.112 
M 221.266462 116.064005 
L 210.791022 110.016 
M 221.266462 116.064005 
L 221.266465 103.968 
M 221.266462 116.064005 
L 231.741909 122.112 
M 221.266462 116.064005 
L 231.741891 110.01603 
M 273.643682 110.016 
L 284.119125 103.968 
M 273.643682 110.016 
L 284.119125 116.064 
M 273.643682 110.016 
L 273.643682 97.92 
M 273.643682 110.016 
L 273.643682 122.112 
M 168.889249 73.728 
L 179.364692 79.776 
M 168.889249 73.728 
L 179.364692 67.68 
M 168.889249 73.728 
L 168.889249 85.824 
M 168.889249 73.728 
L 168.889249 61.632 
M 137.462919 176.544 
L 147.938362 170.496 
M 137.462919 176.544 
L 147.938362 182.592 
M 137.462919 176.544 
L 137.462919 188.64 
M 137.462919 176.544 
L 126.987476 182.592 
M 189.840135 122.112 
L 200.315579 128.16 
M 189.840135 122.112 
L 189.840135 134.208 
M 189.840135 122.112 
L 179.364692 128.16 
M 189.840135 122.112 
L 200.315579 116.064 
M 189.840135 122.112 
L 189.840135 110.016 
M 200.315579 152.352 
L 210.791022 146.304 
M 200.315579 152.352 
L 200.315579 140.256 
M 200.315579 152.352 
L 189.840135 146.304 
M 200.315579 152.352 
L 210.791022 158.4 
M 200.315579 152.352 
L 200.315579 164.448 
M 95.570049 164.463421 
L 95.561146 152.352 
M 95.570049 164.463421 
L 85.131491 158.479307 
M 95.570049 164.463421 
L 106.036589 158.4 
M 95.570049 164.463421 
L 85.093334 170.509218 
M 231.741909 158.4 
L 242.217352 152.352 
M 231.741909 158.4 
L 231.741909 146.304 
M 231.741909 158.4 
L 221.266465 152.352 
M 231.741909 158.4 
L 242.217352 164.448 
M 231.741909 158.4 
L 221.266465 164.448 
M 231.741909 158.4 
L 231.741909 170.496 
M 221.266465 128.160001 
L 231.741909 134.208 
M 221.266465 128.160001 
L 221.266465 140.256 
M 221.266465 128.160001 
L 210.791022 134.208 
M 221.266465 128.160001 
L 210.791022 122.112 
M 221.266465 128.160001 
L 231.741909 122.112 
M 221.266465 128.160001 
L 221.266462 116.064005 
M 200.315579 188.64 
L 189.840135 194.688 
M 200.315579 188.64 
L 200.315579 200.736 
M 200.315579 188.64 
L 210.791022 194.688 
M 200.315579 188.64 
L 210.791022 182.592 
M 200.315579 188.64 
L 200.315579 176.544 
M 200.315579 188.64 
L 189.840135 182.592 
M 168.477848 230.225788 
L 158.443321 224.876878 
M 168.477848 230.225788 
L 179.337361 224.880661 
M 168.477848 230.225788 
L 178.287143 235.562337 
M 168.477848 230.225788 
L 158.285638 236.273677 
M 116.857528 56.223811 
L 106.184876 61.888841 
M 116.857528 56.223811 
L 126.987476 61.632 
M 116.857528 56.223811 
L 127.020539 49.841641 
M 116.857528 56.223811 
L 116.536747 67.722807 
M 95.627521 128.16 
L 106.036589 134.208 
M 95.627521 128.16 
L 106.036589 122.112 
M 95.627521 128.16 
L 95.618039 116.064 
M 95.627521 128.16 
L 95.561146 140.256 
M 95.627521 128.16 
L 85.085703 134.208 
M 147.938362 134.208 
L 158.413806 140.256 
M 147.938362 134.208 
L 158.413806 128.16 
M 147.938362 134.208 
L 147.938362 146.304 
M 147.938362 134.208 
L 137.462919 140.256 
M 147.938362 134.208 
L 137.462919 128.16 
M 116.528794 212.802968 
L 126.987476 206.784 
M 116.528794 212.802968 
L 116.512032 200.736 
M 116.528794 212.802968 
L 106.036589 206.784 
M 116.528794 212.802968 
L 106.137158 218.705809 
M 116.528794 212.802968 
L 126.987476 218.88 
M 189.840135 97.92 
L 200.315579 103.968 
M 189.840135 97.92 
L 200.315579 91.872 
M 189.840135 97.92 
L 189.840135 85.824 
M 189.840135 97.92 
L 179.364692 91.872 
M 189.840135 97.92 
L 189.840135 110.016 
M 189.840135 97.92 
L 179.364692 103.968 
M 210.776581 218.900298 
L 200.315579 212.832 
M 210.776581 218.900298 
L 210.791022 206.784 
M 210.776581 218.900298 
L 221.266465 212.832 
M 210.776581 218.900298 
L 221.266465 224.928 
M 210.776581 218.900298 
L 200.321802 224.938779 
M 210.776581 218.900298 
L 210.698155 231.087007 
M 231.741646 194.688456 
L 221.266465 200.736 
M 231.741646 194.688456 
L 231.741909 206.784 
M 231.741646 194.688456 
L 242.216104 200.738162 
M 231.741646 194.688456 
L 221.266465 188.64 
M 231.741646 194.688456 
L 242.217069 188.64049 
M 231.741646 194.688456 
L 231.741861 182.592082 
M 168.821107 218.735819 
L 168.889249 206.784 
M 168.821107 218.735819 
L 158.443321 224.876878 
M 168.821107 218.735819 
L 179.337361 224.880661 
M 168.821107 218.735819 
L 158.418725 212.82348 
M 168.821107 218.735819 
L 179.360137 212.82411 
M 168.821107 218.735819 
L 168.477848 230.225788 
M 126.987476 122.112 
L 126.987476 134.208 
M 126.987476 122.112 
L 116.512032 128.16 
M 126.987476 122.112 
L 116.512032 116.064 
M 126.987476 122.112 
L 126.987476 110.016 
M 126.987476 122.112 
L 137.462919 128.16 
M 126.987476 122.112 
L 137.462919 116.064 
M 95.56424 91.874622 
L 106.036589 97.92 
M 95.56424 91.874622 
L 106.036589 85.824 
M 95.56424 91.874622 
L 95.561146 79.776 
M 95.56424 91.874622 
L 85.093107 85.836824 
M 95.56424 91.874622 
L 85.096864 97.922909 
M 189.840135 158.4 
L 189.840135 146.304 
M 189.840135 158.4 
L 200.315579 164.448 
M 189.840135 158.4 
L 189.840135 170.496 
M 189.840135 158.4 
L 179.364692 152.352 
M 189.840135 158.4 
L 200.315579 152.352 
M 200.315579 67.68 
L 200.315579 79.776 
M 200.315579 67.68 
L 210.791022 73.728 
M 200.315579 67.68 
L 189.840135 73.728 
M 200.315579 67.68 
L 189.840135 61.632 
M 200.315579 67.68 
L 200.315579 55.584 
M 137.462919 164.448 
L 147.938362 158.4 
M 137.462919 164.448 
L 147.938362 170.496 
M 137.462919 164.448 
L 137.462919 152.352 
M 137.462919 164.448 
L 126.987476 158.4 
M 137.462919 164.448 
L 137.462919 176.544 
M 73.715571 69.04738 
L 85.130126 73.804944 
M 73.715571 69.04738 
L 84.516503 63.230695 
M 73.715571 69.04738 
L 74.618897 79.790961 
M 73.715571 69.04738 
L 64.608228 73.958084 
M 147.938362 122.112 
L 158.413806 128.16 
M 147.938362 122.112 
L 137.462919 128.16 
M 147.938362 122.112 
L 137.462919 116.064 
M 147.938362 122.112 
L 147.938362 134.208 
M 95.982259 224.295708 
L 95.561146 212.832 
M 95.982259 224.295708 
L 106.137158 218.705809 
M 95.982259 224.295708 
L 85.085703 218.88 
M 95.982259 224.295708 
L 85.73481 231.721957 
M 242.217276 176.544131 
L 242.217352 164.448 
M 242.217276 176.544131 
L 242.217069 188.64049 
M 242.217276 176.544131 
L 252.692673 182.592212 
M 242.217276 176.544131 
L 231.741909 170.496 
M 242.217276 176.544131 
L 231.741861 182.592082 
M 179.364692 164.448 
L 179.364692 176.544 
M 179.364692 164.448 
L 189.840135 170.496 
M 179.364692 164.448 
L 168.889249 170.496 
M 179.364692 164.448 
L 168.889249 158.4 
M 179.364692 164.448 
L 179.364692 152.352 
M 179.364692 164.448 
L 189.840135 158.4 
M 126.987476 170.496 
L 126.987476 158.4 
M 126.987476 170.496 
L 126.987476 182.592 
M 126.987476 170.496 
L 116.512032 176.544 
M 126.987476 170.496 
L 137.462919 176.544 
M 126.987476 170.496 
L 137.462919 164.448 
M 95.573004 103.968922 
L 106.036589 110.016 
M 95.573004 103.968922 
L 106.036589 97.92 
M 95.573004 103.968922 
L 95.618039 116.064 
M 95.573004 103.968922 
L 85.096864 97.922909 
M 95.573004 103.968922 
L 95.56424 91.874622 
M 252.692795 134.208 
L 252.692795 146.304 
M 252.692795 134.208 
L 242.217352 140.256 
M 252.692795 134.208 
L 242.217352 128.16 
M 252.692795 134.208 
L 263.168238 128.16 
M 252.692795 134.208 
L 263.168238 140.256 
M 252.692406 218.899557 
L 242.209863 212.844971 
M 252.692406 218.899557 
L 242.163683 225.020957 
M 252.692406 218.899557 
L 252.691339 206.786522 
M 252.692406 218.899557 
L 263.167943 212.832512 
M 252.692406 218.899557 
L 263.177702 224.911609 
M 252.692406 218.899557 
L 252.743905 231.000768 
M 179.364692 116.064 
L 179.364692 128.16 
M 179.364692 116.064 
L 189.840135 110.016 
M 179.364692 116.064 
L 168.889249 110.016 
M 179.364692 116.064 
L 179.364692 103.968 
M 179.364692 116.064 
L 189.840135 122.112 
M 116.512032 164.448 
L 126.987476 158.4 
M 116.512032 164.448 
L 106.036589 158.4 
M 116.512032 164.448 
L 116.512032 176.544 
M 116.512032 164.448 
L 116.512032 152.352 
M 116.512032 164.448 
L 126.987476 170.496 
M 84.576471 109.31725 
L 95.618039 116.064 
M 84.576471 109.31725 
L 85.096864 97.922909 
M 84.576471 109.31725 
L 73.796296 102.913466 
M 84.576471 109.31725 
L 95.573004 103.968922 
M 147.938362 85.824 
L 137.462919 79.776 
M 147.938362 85.824 
L 137.462919 91.872 
M 147.938362 85.824 
L 147.938362 73.728 
M 147.938362 85.824 
L 158.413806 91.872 
M 210.791022 61.632 
L 210.791022 73.728 
M 210.791022 61.632 
L 221.266465 67.68 
M 210.791022 61.632 
L 221.266465 55.584 
M 210.791022 61.632 
L 200.315579 55.584 
M 210.791022 61.632 
L 200.315579 67.68 
M 116.512032 224.928 
L 106.137158 218.705809 
M 116.512032 224.928 
L 126.987476 218.88 
M 116.512032 224.928 
L 115.605716 238.522795 
M 116.512032 224.928 
L 126.987476 230.976 
M 116.512032 224.928 
L 116.528794 212.802968 
M 168.889249 122.112 
L 179.364692 128.16 
M 168.889249 122.112 
L 168.889249 134.208 
M 168.889249 122.112 
L 158.413806 128.16 
M 168.889249 122.112 
L 168.889249 110.016 
M 168.889249 122.112 
L 179.364692 116.064 
M 252.692762 170.496057 
L 263.168238 164.448 
M 252.692762 170.496057 
L 252.692795 158.4 
M 252.692762 170.496057 
L 242.217352 164.448 
M 252.692762 170.496057 
L 252.692673 182.592212 
M 252.692762 170.496057 
L 242.217276 176.544131 
M 106.038073 170.49857 
L 106.036589 158.4 
M 106.038073 170.49857 
L 116.512032 176.544 
M 106.038073 170.49857 
L 106.036589 182.592 
M 106.038073 170.49857 
L 95.570049 164.463421 
M 106.038073 170.49857 
L 116.512032 164.448 
M 74.678691 188.640367 
L 74.619742 200.736 
M 74.678691 188.640367 
L 74.668425 176.546203 
M 74.678691 188.640367 
L 64.134816 194.688 
M 74.678691 188.640367 
L 85.087283 194.688 
M 211.131239 49.530658 
L 221.266465 55.584 
M 211.131239 49.530658 
L 200.315579 55.584 
M 211.131239 49.530658 
L 200.120417 44.294049 
M 211.131239 49.530658 
L 222.750824 41.347216 
M 211.131239 49.530658 
L 210.791022 61.632 
M 95.56224 176.545896 
L 95.561146 188.64 
M 95.56224 176.545896 
L 85.093334 170.509218 
M 95.56224 176.545896 
L 106.036589 182.592 
M 95.56224 176.545896 
L 95.570049 164.463421 
M 95.56224 176.545896 
L 106.038073 170.49857 
M 85.091642 182.592767 
L 95.561146 188.64 
M 85.091642 182.592767 
L 85.093334 170.509218 
M 85.091642 182.592767 
L 74.668425 176.546203 
M 85.091642 182.592767 
L 85.087283 194.688 
M 85.091642 182.592767 
L 74.678691 188.640367 
M 85.091642 182.592767 
L 95.56224 176.545896 
M 158.413806 116.064 
L 158.413806 128.16 
M 158.413806 116.064 
L 158.413806 103.968 
M 158.413806 116.064 
L 168.889249 110.016 
M 158.413806 116.064 
L 147.938362 122.112 
M 158.413806 116.064 
L 168.889249 122.112 
M 263.168228 116.064018 
L 273.643682 122.112 
M 263.168228 116.064018 
L 252.692732 110.016109 
M 263.168228 116.064018 
L 263.168238 128.16 
M 263.168228 116.064018 
L 273.643682 110.016 
M 252.692777 122.112031 
L 242.217352 128.16 
M 252.692777 122.112031 
L 252.692732 110.016109 
M 252.692777 122.112031 
L 263.168238 128.16 
M 252.692777 122.112031 
L 242.217319 116.064057 
M 252.692777 122.112031 
L 252.692795 134.208 
M 252.692777 122.112031 
L 263.168228 116.064018 
M 147.938362 110.016 
L 158.413806 103.968 
M 147.938362 110.016 
L 137.462919 103.968 
M 147.938362 110.016 
L 137.462919 116.064 
M 147.938362 110.016 
L 147.938362 122.112 
M 147.938362 110.016 
L 158.413806 116.064 
M 158.413806 79.776 
L 168.889249 85.824 
M 158.413806 79.776 
L 147.938362 73.728 
M 158.413806 79.776 
L 158.413806 91.872 
M 158.413806 79.776 
L 168.889249 73.728 
M 158.413806 79.776 
L 147.938362 85.824 
M 263.168186 103.968092 
L 273.643682 97.92 
M 263.168186 103.968092 
L 252.692551 97.920422 
M 263.168186 103.968092 
L 252.692732 110.016109 
M 263.168186 103.968092 
L 273.643682 110.016 
M 263.168186 103.968092 
L 263.168228 116.064018 
M 147.938362 97.92 
L 137.462919 91.872 
M 147.938362 97.92 
L 158.413806 91.872 
M 147.938362 97.92 
L 158.413806 103.968 
M 147.938362 97.92 
L 137.462919 103.968 
M 147.938362 97.92 
L 147.938362 85.824 
M 147.938362 97.92 
L 147.938362 110.016 
M 263.167934 91.872528 
L 273.643682 97.92 
M 263.167934 91.872528 
L 252.691897 85.825555 
M 263.167934 91.872528 
L 252.692551 97.920422 
M 263.167934 91.872528 
L 263.167605 79.777097 
M 263.167934 91.872528 
L 263.168186 103.968092 
M 158.40795 67.690143 
L 168.889249 61.632 
M 158.40795 67.690143 
L 147.938362 73.728 
M 158.40795 67.690143 
L 158.37867 55.644856 
M 158.40795 67.690143 
L 168.889249 73.728 
M 158.40795 67.690143 
L 158.413806 79.776 
M 147.93153 61.643833 
L 137.462919 67.68 
M 147.93153 61.643833 
L 137.462919 55.584 
M 147.93153 61.643833 
L 147.938362 73.728 
M 147.93153 61.643833 
L 158.37867 55.644856 
M 147.93153 61.643833 
L 158.40795 67.690143 
M 147.938362 49.536 
L 137.462919 55.584 
M 147.938362 49.536 
L 158.37867 55.644856 
M 147.938362 49.536 
L 158.121981 43.960775 
M 147.938362 49.536 
L 137.947672 41.841819 
M 147.938362 49.536 
L 147.93153 61.643833 
M 273.643525 85.824271 
L 284.119125 79.776 
M 273.643525 85.824271 
L 284.119125 91.872 
M 273.643525 85.824271 
L 273.643682 97.92 
M 273.643525 85.824271 
L 263.167605 79.777097 
M 273.643525 85.824271 
L 263.167934 91.872528 
M 263.168213 176.544045 
L 273.643682 182.592 
M 263.168213 176.544045 
L 263.168238 164.448 
M 263.168213 176.544045 
L 252.692673 182.592212 
M 263.168213 176.544045 
L 273.643682 170.496 
M 263.168213 176.544045 
L 252.692762 170.496057 
M 273.64355 73.728228 
L 284.119125 67.68 
M 273.64355 73.728228 
L 284.119125 79.776 
M 273.64355 73.728228 
L 273.643682 61.632 
M 273.64355 73.728228 
L 263.167605 79.777097 
M 273.64355 73.728228 
L 273.643525 85.824271 
M 263.168086 188.640265 
L 273.643682 182.592 
M 263.168086 188.640265 
L 252.692344 194.688781 
M 263.168086 188.640265 
L 263.167921 200.73655 
M 263.168086 188.640265 
L 252.692673 182.592212 
M 263.168086 188.640265 
L 263.168213 176.544045 
M 263.170337 67.685751 
L 273.643682 61.632 
M 263.170337 67.685751 
L 252.689894 73.733025 
M 263.170337 67.685751 
L 263.167605 79.777097 
M 263.170337 67.685751 
L 263.184494 55.612155 
M 263.170337 67.685751 
L 273.64355 73.728228 
M 273.643603 194.688136 
L 284.119125 188.64 
M 273.643603 194.688136 
L 284.119125 200.736 
M 273.643603 194.688136 
L 273.643682 182.592 
M 273.643603 194.688136 
L 263.167921 200.73655 
M 273.643603 194.688136 
L 263.168086 188.640265 
M 273.643652 206.784052 
L 284.119125 200.736 
M 273.643652 206.784052 
L 284.119125 212.832 
M 273.643652 206.784052 
L 273.643682 218.88 
M 273.643652 206.784052 
L 263.167921 200.73655 
M 273.643652 206.784052 
L 263.167943 212.832512 
M 273.643652 206.784052 
L 273.643603 194.688136 
M 252.751879 61.673663 
L 242.202432 67.705842 
M 252.751879 61.673663 
L 242.571323 55.769203 
M 252.751879 61.673663 
L 252.689894 73.733025 
M 252.751879 61.673663 
L 263.184494 55.612155 
M 252.751879 61.673663 
L 263.170337 67.685751 
M 253.39985 49.61564 
L 242.571323 55.769203 
M 253.39985 49.61564 
L 263.220756 43.578964 
M 253.39985 49.61564 
L 253.687905 37.571852 
M 253.39985 49.61564 
L 263.184494 55.612155 
M 253.39985 49.61564 
L 252.751879 61.673663 
M 180.762271 30.032068 
L 175.255125 19.296 
M 180.762271 30.032068 
L 187.351125 19.296 
M 180.762271 30.032068 
L 168.832213 27.519446 
M 180.762271 30.032068 
L 190.354698 38.25928 
M 180.762271 30.032068 
L 179.478942 43.752367 
M 52.81486 73.835378 
L 42.199125 79.776 
M 52.81486 73.835378 
L 42.199125 67.68 
M 52.81486 73.835378 
L 52.338025 61.147633 
M 52.81486 73.835378 
L 64.134816 85.824 
M 52.81486 73.835378 
L 64.608228 73.958084 
M 51.935273 85.82959 
L 42.199125 91.872 
M 51.935273 85.82959 
L 42.199125 79.776 
M 51.935273 85.82959 
L 52.674568 97.92 
M 51.935273 85.82959 
L 64.134816 85.824 
M 51.935273 85.82959 
L 52.81486 73.835378 
M 63.924331 150.968264 
L 52.999643 157.867842 
M 63.924331 150.968264 
L 74.992107 154.404209 
M 63.924331 150.968264 
L 63.465604 139.723842 
M 63.924331 150.968264 
L 52.724453 146.126614 
M 73.284095 134.208 
L 85.085703 134.208 
M 73.284095 134.208 
L 63.093118 128.16 
M 73.284095 134.208 
L 73.653409 123.897976 
M 73.284095 134.208 
L 63.465604 139.723842 
M 64.705053 97.69911 
L 52.674568 97.92 
M 64.705053 97.69911 
L 74.669826 91.876631 
M 64.705053 97.69911 
L 73.796296 102.913466 
M 64.705053 97.69911 
L 64.134816 85.824 
M 84.706387 121.147408 
L 95.618039 116.064 
M 84.706387 121.147408 
L 85.085703 134.208 
M 84.706387 121.147408 
L 73.653409 123.897976 
M 84.706387 121.147408 
L 95.627521 128.16 
M 84.706387 121.147408 
L 84.576471 109.31725 
M 53.042719 169.544458 
L 42.199125 176.544 
M 53.042719 169.544458 
L 42.199125 164.448 
M 53.042719 169.544458 
L 52.674568 182.592 
M 53.042719 169.544458 
L 52.999643 157.867842 
M 53.042719 169.544458 
L 64.103497 172.27615 
M 66.051999 182.948544 
L 52.674568 182.592 
M 66.051999 182.948544 
L 74.668425 176.546203 
M 66.051999 182.948544 
L 64.103497 172.27615 
M 66.051999 182.948544 
L 64.134816 194.688 
M 66.051999 182.948544 
L 74.678691 188.640367 
M 52.333208 194.688 
L 42.199125 200.736 
M 52.333208 194.688 
L 42.199125 188.64 
M 52.333208 194.688 
L 52.674568 182.592 
M 52.333208 194.688 
L 64.134816 206.784 
M 52.333208 194.688 
L 64.134816 194.688 
M 51.910197 206.784 
L 42.199125 212.832 
M 51.910197 206.784 
L 42.199125 200.736 
M 51.910197 206.784 
L 52.674568 218.88 
M 51.910197 206.784 
L 64.134816 206.784 
M 51.910197 206.784 
L 52.333208 194.688 
M 64.837351 218.871179 
L 52.674568 218.88 
M 64.837351 218.871179 
L 74.667153 212.832 
M 64.837351 218.871179 
L 74.676635 224.928 
M 64.837351 218.871179 
L 64.134816 206.784 
M 64.837351 218.871179 
L 63.165157 230.806571 
M 50.513369 230.824337 
L 42.199125 237.024 
M 50.513369 230.824337 
L 42.199125 224.928 
M 50.513369 230.824337 
L 52.674568 218.88 
M 50.513369 230.824337 
L 63.165157 230.806571 
M 116.395507 43.490055 
L 120.947739 29.909203 
M 116.395507 43.490055 
L 127.020539 49.841641 
M 116.395507 43.490055 
L 105.071448 42.535782 
M 116.395507 43.490055 
L 107.513349 31.317308 
M 116.395507 43.490055 
L 116.857528 56.223811 
M 274.18494 242.700975 
L 284.119125 237.024 
M 274.18494 242.700975 
L 284.119125 249.12 
M 274.18494 242.700975 
L 264.864402 250.260686 
M 274.18494 242.700975 
L 273.700759 230.877139 
M 274.18494 242.700975 
L 263.5191 237.096045 
M 53.170558 241.984878 
L 42.199125 249.12 
M 53.170558 241.984878 
L 42.199125 237.024 
M 53.170558 241.984878 
L 60.323425 250.956608 
M 53.170558 241.984878 
L 63.165157 230.806571 
M 53.170558 241.984878 
L 50.513369 230.824337 
M 91.553088 241.670599 
L 85.269283 251.083864 
M 91.553088 241.670599 
L 85.73481 231.721957 
M 91.553088 241.670599 
L 102.595161 240.720076 
M 91.553088 241.670599 
L 96.741613 250.843892 
M 232.099526 49.972644 
L 231.652388 61.787054 
M 232.099526 49.972644 
L 221.266465 55.584 
M 232.099526 49.972644 
L 242.571323 55.769203 
M 232.099526 49.972644 
L 234.527114 39.0168 
M 232.099526 49.972644 
L 222.750824 41.347216 
M 105.893222 230.084532 
L 106.137158 218.705809 
M 105.893222 230.084532 
L 115.605716 238.522795 
M 105.893222 230.084532 
L 102.595161 240.720076 
M 105.893222 230.084532 
L 95.982259 224.295708 
M 105.893222 230.084532 
L 116.512032 224.928 
M 209.212696 37.943588 
L 205.319356 28.290132 
M 209.212696 37.943588 
L 200.120417 44.294049 
M 209.212696 37.943588 
L 217.56183 29.273857 
M 209.212696 37.943588 
L 222.750824 41.347216 
M 209.212696 37.943588 
L 211.131239 49.530658 
M 126.875836 241.931956 
L 120.823125 250.993586 
M 126.875836 241.931956 
L 138.053162 238.724183 
M 126.875836 241.931956 
L 132.919125 250.740557 
M 126.875836 241.931956 
L 115.605716 238.522795 
M 126.875836 241.931956 
L 126.987476 230.976 
M 127.046116 38.970832 
L 120.947739 29.909203 
M 127.046116 38.970832 
L 127.020539 49.841641 
M 127.046116 38.970832 
L 137.947672 41.841819 
M 127.046116 38.970832 
L 132.919125 29.771443 
M 127.046116 38.970832 
L 116.395507 43.490055 
M 211.184718 241.669599 
L 205.495125 250.740557 
M 211.184718 241.669599 
L 199.96642 238.745881 
M 211.184718 241.669599 
L 220.648824 237.317753 
M 211.184718 241.669599 
L 210.698155 231.087007 
M 211.184718 241.669599 
L 218.97759 249.859639 
M 64.767351 241.991325 
L 60.323425 250.956608 
M 64.767351 241.991325 
L 74.054123 236.953858 
M 64.767351 241.991325 
L 63.165157 230.806571 
M 64.767351 241.991325 
L 73.12349 249.25471 
M 64.767351 241.991325 
L 53.170558 241.984878 
M 186.437187 242.008334 
L 181.568037 251.642888 
M 186.437187 242.008334 
L 189.676147 230.691964 
M 186.437187 242.008334 
L 199.96642 238.745881 
M 186.437187 242.008334 
L 178.287143 235.562337 
M 186.437187 242.008334 
L 193.779636 250.819722 
M 193.399125 27.709052 
L 187.351125 19.296 
M 193.399125 27.709052 
L 199.447125 19.296 
M 193.399125 27.709052 
L 205.319356 28.290132 
M 193.399125 27.709052 
L 190.354698 38.25928 
M 193.399125 27.709052 
L 180.762271 30.032068 
M 149.340419 241.006034 
L 157.640513 249.007129 
M 149.340419 241.006034 
L 148.115454 230.669268 
M 149.340419 241.006034 
L 138.053162 238.724183 
M 149.340419 241.006034 
L 158.285638 236.273677 
M 149.340419 241.006034 
L 144.607327 250.355913 
M 149.177817 39.358799 
L 144.420722 30.150546 
M 149.177817 39.358799 
L 158.121981 43.960775 
M 149.177817 39.358799 
L 137.947672 41.841819 
M 149.177817 39.358799 
L 157.460351 31.304854 
M 149.177817 39.358799 
L 147.938362 49.536 
M 253.512489 253.259214 
L 259.927125 261.216 
M 253.512489 253.259214 
L 247.831125 261.216 
M 253.512489 253.259214 
L 241.894432 250.468184 
M 253.512489 253.259214 
L 264.864402 250.260686 
M 253.512489 253.259214 
L 253.04536 243.135202 
M 253.81816 27.459937 
L 247.831125 19.296 
M 253.81816 27.459937 
L 259.927125 19.296 
M 253.81816 27.459937 
L 242.934737 30.991016 
M 253.81816 27.459937 
L 264.417277 30.43835 
M 253.81816 27.459937 
L 253.687905 37.571852 
M 72.576252 27.37371 
L 66.391125 19.296 
M 72.576252 27.37371 
L 78.487125 19.296 
M 72.576252 27.37371 
L 84.423818 30.043816 
M 72.576252 27.37371 
L 61.902045 30.436493 
M 72.576252 27.37371 
L 73.625455 37.44 
M 167.624377 240.881178 
L 157.640513 249.007129 
M 167.624377 240.881178 
L 178.287143 235.562337 
M 167.624377 240.881178 
L 158.285638 236.273677 
M 167.624377 240.881178 
L 170.09882 251.425067 
M 167.624377 240.881178 
L 168.477848 230.225788 
M 167.624377 39.630822 
L 168.832213 27.519446 
M 167.624377 39.630822 
L 168.678437 49.901137 
M 167.624377 39.630822 
L 158.121981 43.960775 
M 167.624377 39.630822 
L 157.460351 31.304854 
M 167.624377 39.630822 
L 179.478942 43.752367 
M 167.624377 39.630822 
L 180.762271 30.032068 
M 230.176337 253.250551 
L 235.735125 261.216 
M 230.176337 253.250551 
L 223.639125 261.216 
M 230.176337 253.250551 
L 241.894432 250.468184 
M 230.176337 253.250551 
L 230.635412 243.492933 
M 230.176337 253.250551 
L 218.97759 249.859639 
M 96.631125 27.189398 
L 90.583125 19.296 
M 96.631125 27.189398 
L 102.679125 19.296 
M 96.631125 27.189398 
L 84.423818 30.043816 
M 96.631125 27.189398 
L 95.662118 36.961643 
M 96.631125 27.189398 
L 107.513349 31.317308 
M 244.519567 43.575167 
L 242.934737 30.991016 
M 244.519567 43.575167 
L 242.571323 55.769203 
M 244.519567 43.575167 
L 253.687905 37.571852 
M 244.519567 43.575167 
L 234.527114 39.0168 
M 244.519567 43.575167 
L 253.39985 49.61564 
M 244.519567 43.575167 
L 232.099526 49.972644 
M 107.219586 52.084841 
L 106.184876 61.888841 
M 107.219586 52.084841 
L 95.353428 47.636393 
M 107.219586 52.084841 
L 105.071448 42.535782 
M 107.219586 52.084841 
L 116.857528 56.223811 
M 107.219586 52.084841 
L 116.395507 43.490055 
M 96.664187 58.160318 
L 95.827686 68.141662 
M 96.664187 58.160318 
L 106.184876 61.888841 
M 96.664187 58.160318 
L 84.516503 63.230695 
M 96.664187 58.160318 
L 95.353428 47.636393 
M 96.664187 58.160318 
L 107.219586 52.084841 
M 275.264238 28.150887 
L 284.119125 19.296 
M 275.264238 28.150887 
L 272.023125 19.296 
M 275.264238 28.150887 
L 284.119125 31.392 
M 275.264238 28.150887 
L 273.913775 37.907814 
M 275.264238 28.150887 
L 264.417277 30.43835 
M 51.054012 252.361113 
L 42.199125 261.216 
M 51.054012 252.361113 
L 54.295125 261.216 
M 51.054012 252.361113 
L 42.199125 249.12 
M 51.054012 252.361113 
L 60.323425 250.956608 
M 51.054012 252.361113 
L 53.170558 241.984878 
M 275.264238 252.361113 
L 284.119125 261.216 
M 275.264238 252.361113 
L 284.119125 249.12 
M 275.264238 252.361113 
L 272.023125 261.216 
M 275.264238 252.361113 
L 264.864402 250.260686 
M 275.264238 252.361113 
L 274.18494 242.700975 
M 51.054012 28.150887 
L 42.199125 19.296 
M 51.054012 28.150887 
L 54.295125 19.296 
M 51.054012 28.150887 
L 42.199125 31.392 
M 51.054012 28.150887 
L 52.404475 37.907814 
M 51.054012 28.150887 
L 61.902045 30.436493 
M 61.501646 106.823054 
L 52.674568 97.92 
M 61.501646 106.823054 
L 73.796296 102.913466 
M 61.501646 106.823054 
L 63.150012 116.064 
M 61.501646 106.823054 
L 52.399841 110.491842 
M 61.501646 106.823054 
L 64.705053 97.69911 
M 76.258625 143.111054 
L 85.36043 146.779842 
M 76.258625 143.111054 
L 85.085703 134.208 
M 76.258625 143.111054 
L 74.992107 154.404209 
M 76.258625 143.111054 
L 63.465604 139.723842 
M 76.258625 143.111054 
L 63.924331 150.968264 
M 76.258625 143.111054 
L 73.284095 134.208 
M 64.470499 161.490601 
L 52.999643 157.867842 
M 64.470499 161.490601 
L 74.992107 154.404209 
M 64.470499 161.490601 
L 74.610259 164.448 
M 64.470499 161.490601 
L 64.103497 172.27615 
M 64.470499 161.490601 
L 63.924331 150.968264 
M 64.470499 161.490601 
L 53.042719 169.544458 
M 72.536654 113.081941 
L 73.796296 102.913466 
M 72.536654 113.081941 
L 63.150012 116.064 
M 72.536654 113.081941 
L 73.653409 123.897976 
M 72.536654 113.081941 
L 84.576471 109.31725 
M 72.536654 113.081941 
L 84.706387 121.147408 
M 72.536654 113.081941 
L 61.501646 106.823054 
M 83.796117 53.137282 
L 84.516503 63.230695 
M 83.796117 53.137282 
L 73.625455 49.536 
M 83.796117 53.137282 
L 83.965048 42.637249 
M 83.796117 53.137282 
L 95.353428 47.636393 
M 83.796117 53.137282 
L 96.664187 58.160318 
M 72.664249 58.954077 
L 84.516503 63.230695 
M 72.664249 58.954077 
L 73.625455 49.536 
M 72.664249 58.954077 
L 62.987868 55.314199 
M 72.664249 58.954077 
L 73.715571 69.04738 
M 72.664249 58.954077 
L 83.796117 53.137282 
M 61.472115 64.773798 
L 52.338025 61.147633 
M 61.472115 64.773798 
L 64.608228 73.958084 
M 61.472115 64.773798 
L 62.987868 55.314199 
M 61.472115 64.773798 
L 73.715571 69.04738 
M 61.472115 64.773798 
L 52.81486 73.835378 
M 61.472115 64.773798 
L 72.664249 58.954077 
M 82.242933 241.950177 
L 85.269283 251.083864 
M 82.242933 241.950177 
L 85.73481 231.721957 
M 82.242933 241.950177 
L 74.054123 236.953858 
M 82.242933 241.950177 
L 73.12349 249.25471 
M 82.242933 241.950177 
L 91.553088 241.670599 
M 96.351708 233.698574 
L 85.73481 231.721957 
M 96.351708 233.698574 
L 102.595161 240.720076 
M 96.351708 233.698574 
L 95.982259 224.295708 
M 96.351708 233.698574 
L 91.553088 241.670599 
M 96.351708 233.698574 
L 105.893222 230.084532 
M 199.050034 35.11623 
L 205.319356 28.290132 
M 199.050034 35.11623 
L 200.120417 44.294049 
M 199.050034 35.11623 
L 190.354698 38.25928 
M 199.050034 35.11623 
L 209.212696 37.943588 
M 199.050034 35.11623 
L 193.399125 27.709052 
M 176.089298 244.442695 
L 181.568037 251.642888 
M 176.089298 244.442695 
L 178.287143 235.562337 
M 176.089298 244.442695 
L 170.09882 251.425067 
M 176.089298 244.442695 
L 186.437187 242.008334 
M 176.089298 244.442695 
L 167.624377 240.881178 
L 167.624377 240.881178 
" clip-path="url(#p37572bce92)" style="fill: none; stroke: #808080; stroke-width: 1.5; stroke-linecap: square"/>
   </g>
   <g id="matplotlib.axis_1">
    <g id="xtick_1">
     <g id="line2d_2">
      <defs>
       <path id="md02390a3df" d="M 0 0 
L 0 3.5 
" style="stroke: #000000; stroke-width: 0.8"/>
      </defs>
      <g>
       <use xlink:href="#md02390a3df" x="42.199125" y="273.312" style="stroke: #000000; stroke-width: 0.8"/>
      </g>
     </g>
     <g id="text_1">
      <!-- 0.0 -->
      <g transform="translate(34.247563 287.910437)scale(0.1 -0.1)">
       <defs>
        <path id="DejaVuSans-30" d="M 2034 4250 
Q 1547 4250 1301 3770 
Q 1056 3291 1056 2328 
Q 1056 1369 1301 889 
Q 1547 409 2034 409 
Q 2525 409 2770 889 
Q 3016 1369 3016 2328 
Q 3016 3291 2770 3770 
Q 2525 4250 2034 4250 
z
M 2034 4750 
Q 2819 4750 3233 4129 
Q 3647 3509 3647 2328 
Q 3647 1150 3233 529 
Q 2819 -91 2034 -91 
Q 1250 -91 836 529 
Q 422 1150 422 2328 
Q 422 3509 836 4129 
Q 1250 4750 2034 4750 
z
" transform="scale(0.015625)"/>
        <path id="DejaVuSans-2e" d="M 684 794 
L 1344 794 
L 1344 0 
L 684 0 
L 684 794 
z
" transform="scale(0.015625)"/>
       </defs>
       <use xlink:href="#DejaVuSans-30"/>
       <use xlink:href="#DejaVuSans-2e" x="63.623047"/>
       <use xlink:href="#DejaVuSans-30" x="95.410156"/>
      </g>
     </g>
    </g>
    <g id="xtick_2">
     <g id="line2d_3">
      <g>
       <use xlink:href="#md02390a3df" x="90.583125" y="273.312" style="stroke: #000000; stroke-width: 0.8"/>
      </g>
     </g>
     <g id="text_2">
      <!-- 0.2 -->
      <g transform="translate(82.631563 287.910437)scale(0.1 -0.1)">
       <defs>
        <path id="DejaVuSans-32" d="M 1228 531 
L 3431 531 
L 3431 0 
L 469 0 
L 469 531 
Q 828 903 1448 1529 
Q 2069 2156 2228 2338 
Q 2531 2678 2651 2914 
Q 2772 3150 2772 3378 
Q 2772 3750 2511 3984 
Q 2250 4219 1831 4219 
Q 1534 4219 1204 4116 
Q 875 4013 500 3803 
L 500 4441 
Q 881 4594 1212 4672 
Q 1544 4750 1819 4750 
Q 2544 4750 2975 4387 
Q 3406 4025 3406 3419 
Q 3406 3131 3298 2873 
Q 3191 2616 2906 2266 
Q 2828 2175 2409 1742 
Q 1991 1309 1228 531 
z
" transform="scale(0.015625)"/>
       </defs>
       <use xlink:href="#DejaVuSans-30"/>
       <use xlink:href="#DejaVuSans-2e" x="63.623047"/>
       <use xlink:href="#DejaVuSans-32" x="95.410156"/>
      </g>
     </g>
    </g>
    <g id="xtick_3">
     <g id="line2d_4">
      <g>
       <use xlink:href="#md02390a3df" x="138.967125" y="273.312" style="stroke: #000000; stroke-width: 0.8"/>
      </g>
     </g>
     <g id="text_3">
      <!-- 0.4 -->
      <g transform="translate(131.015563 287.910437)scale(0.1 -0.1)">
       <defs>
        <path id="DejaVuSans-34" d="M 2419 4116 
L 825 1625 
L 2419 1625 
L 2419 4116 
z
M 2253 4666 
L 3047 4666 
L 3047 1625 
L 3713 1625 
L 3713 1100 
L 3047 1100 
L 3047 0 
L 2419 0 
L 2419 1100 
L 313 1100 
L 313 1709 
L 2253 4666 
z
" transform="scale(0.015625)"/>
       </defs>
       <use xlink:href="#DejaVuSans-30"/>
       <use xlink:href="#DejaVuSans-2e" x="63.623047"/>
       <use xlink:href="#DejaVuSans-34" x="95.410156"/>
      </g>
     </g>
    </g>
    <g id="xtick_4">
     <g id="line2d_5">
      <g>
       <use xlink:href="#md02390a3df" x="187.351125" y="273.312" style="stroke: #000000; stroke-width: 0.8"/>
      </g>
     </g>
     <g id="text_4">
      <!-- 0.6 -->
      <g transform="translate(179.399563 287.910437)scale(0.1 -0.1)">
       <defs>
        <path id="DejaVuSans-36" d="M 2113 2584 
Q 1688 2584 1439 2293 
Q 1191 2003 1191 1497 
Q 1191 994 1439 701 
Q 1688 409 2113 409 
Q 2538 409 2786 701 
Q 3034 994 3034 1497 
Q 3034 2003 2786 2293 
Q 2538 2584 2113 2584 
z
M 3366 4563 
L 3366 3988 
Q 3128 4100 2886 4159 
Q 2644 4219 2406 4219 
Q 1781 4219 1451 3797 
Q 1122 3375 1075 2522 
Q 1259 2794 1537 2939 
Q 1816 3084 2150 3084 
Q 2853 3084 3261 2657 
Q 3669 2231 3669 1497 
Q 3669 778 3244 343 
Q 2819 -91 2113 -91 
Q 1303 -91 875 529 
Q 447 1150 447 2328 
Q 447 3434 972 4092 
Q 1497 4750 2381 4750 
Q 2619 4750 2861 4703 
Q 3103 4656 3366 4563 
z
" transform="scale(0.015625)"/>
       </defs>
       <use xlink:href="#DejaVuSans-30"/>
       <use xlink:href="#DejaVuSans-2e" x="63.623047"/>
       <use xlink:href="#DejaVuSans-36" x="95.410156"/>
      </g>
     </g>
    </g>
    <g id="xtick_5">
     <g id="line2d_6">
      <g>
       <use xlink:href="#md02390a3df" x="235.735125" y="273.312" style="stroke: #000000; stroke-width: 0.8"/>
      </g>
     </g>
     <g id="text_5">
      <!-- 0.8 -->
      <g transform="translate(227.783562 287.910437)scale(0.1 -0.1)">
       <defs>
        <path id="DejaVuSans-38" d="M 2034 2216 
Q 1584 2216 1326 1975 
Q 1069 1734 1069 1313 
Q 1069 891 1326 650 
Q 1584 409 2034 409 
Q 2484 409 2743 651 
Q 3003 894 3003 1313 
Q 3003 1734 2745 1975 
Q 2488 2216 2034 2216 
z
M 1403 2484 
Q 997 2584 770 2862 
Q 544 3141 544 3541 
Q 544 4100 942 4425 
Q 1341 4750 2034 4750 
Q 2731 4750 3128 4425 
Q 3525 4100 3525 3541 
Q 3525 3141 3298 2862 
Q 3072 2584 2669 2484 
Q 3125 2378 3379 2068 
Q 3634 1759 3634 1313 
Q 3634 634 3220 271 
Q 2806 -91 2034 -91 
Q 1263 -91 848 271 
Q 434 634 434 1313 
Q 434 1759 690 2068 
Q 947 2378 1403 2484 
z
M 1172 3481 
Q 1172 3119 1398 2916 
Q 1625 2713 2034 2713 
Q 2441 2713 2670 2916 
Q 2900 3119 2900 3481 
Q 2900 3844 2670 4047 
Q 2441 4250 2034 4250 
Q 1625 4250 1398 4047 
Q 1172 3844 1172 3481 
z
" transform="scale(0.015625)"/>
       </defs>
       <use xlink:href="#DejaVuSans-30"/>
       <use xlink:href="#DejaVuSans-2e" x="63.623047"/>
       <use xlink:href="#DejaVuSans-38" x="95.410156"/>
      </g>
     </g>
    </g>
    <g id="xtick_6">
     <g id="line2d_7">
      <g>
       <use xlink:href="#md02390a3df" x="284.119125" y="273.312" style="stroke: #000000; stroke-width: 0.8"/>
      </g>
     </g>
     <g id="text_6">
      <!-- 1.0 -->
      <g transform="translate(276.167562 287.910437)scale(0.1 -0.1)">
       <defs>
        <path id="DejaVuSans-31" d="M 794 531 
L 1825 531 
L 1825 4091 
L 703 3866 
L 703 4441 
L 1819 4666 
L 2450 4666 
L 2450 531 
L 3481 531 
L 3481 0 
L 794 0 
L 794 531 
z
" transform="scale(0.015625)"/>
       </defs>
       <use xlink:href="#DejaVuSans-31"/>
       <use xlink:href="#DejaVuSans-2e" x="63.623047"/>
       <use xlink:href="#DejaVuSans-30" x="95.410156"/>
      </g>
     </g>
    </g>
   </g>
   <g id="matplotlib.axis_2">
    <g id="ytick_1">
     <g id="line2d_8">
      <defs>
       <path id="mc0c32a0bbe" d="M 0 0 
L -3.5 0 
" style="stroke: #000000; stroke-width: 0.8"/>
      </defs>
      <g>
       <use xlink:href="#mc0c32a0bbe" x="30.103125" y="261.216" style="stroke: #000000; stroke-width: 0.8"/>
      </g>
     </g>
     <g id="text_7">
      <!-- 0.0 -->
      <g transform="translate(7.2 265.015219)scale(0.1 -0.1)">
       <use xlink:href="#DejaVuSans-30"/>
       <use xlink:href="#DejaVuSans-2e" x="63.623047"/>
       <use xlink:href="#DejaVuSans-30" x="95.410156"/>
      </g>
     </g>
    </g>
    <g id="ytick_2">
     <g id="line2d_9">
      <g>
       <use xlink:href="#mc0c32a0bbe" x="30.103125" y="212.832" style="stroke: #000000; stroke-width: 0.8"/>
      </g>
     </g>
     <g id="text_8">
      <!-- 0.2 -->
      <g transform="translate(7.2 216.631219)scale(0.1 -0.1)">
       <use xlink:href="#DejaVuSans-30"/>
       <use xlink:href="#DejaVuSans-2e" x="63.623047"/>
       <use xlink:href="#DejaVuSans-32" x="95.410156"/>
      </g>
     </g>
    </g>
    <g id="ytick_3">
     <g id="line2d_10">
      <g>
       <use xlink:href="#mc0c32a0bbe" x="30.103125" y="164.448" style="stroke: #000000; stroke-width: 0.8"/>
      </g>
     </g>
     <g id="text_9">
      <!-- 0.4 -->
      <g transform="translate(7.2 168.247219)scale(0.1 -0.1)">
       <use xlink:href="#DejaVuSans-30"/>
       <use xlink:href="#DejaVuSans-2e" x="63.623047"/>
       <use xlink:href="#DejaVuSans-34" x="95.410156"/>
      </g>
     </g>
    </g>
    <g id="ytick_4">
     <g id="line2d_11">
      <g>
       <use xlink:href="#mc0c32a0bbe" x="30.103125" y="116.064" style="stroke: #000000; stroke-width: 0.8"/>
      </g>
     </g>
     <g id="text_10">
      <!-- 0.6 -->
      <g transform="translate(7.2 119.863219)scale(0.1 -0.1)">
       <use xlink:href="#DejaVuSans-30"/>
       <use xlink:href="#DejaVuSans-2e" x="63.623047"/>
       <use xlink:href="#DejaVuSans-36" x="95.410156"/>
      </g>
     </g>
    </g>
    <g id="ytick_5">
     <g id="line2d_12">
      <g>
       <use xlink:href="#mc0c32a0bbe" x="30.103125" y="67.68" style="stroke: #000000; stroke-width: 0.8"/>
      </g>
     </g>
     <g id="text_11">
      <!-- 0.8 -->
      <g transform="translate(7.2 71.479219)scale(0.1 -0.1)">
       <use xlink:href="#DejaVuSans-30"/>
       <use xlink:href="#DejaVuSans-2e" x="63.623047"/>
       <use xlink:href="#DejaVuSans-38" x="95.410156"/>
      </g>
     </g>
    </g>
    <g id="ytick_6">
     <g id="line2d_13">
      <g>
       <use xlink:href="#mc0c32a0bbe" x="30.103125" y="19.296" style="stroke: #000000; stroke-width: 0.8"/>
      </g>
     </g>
     <g id="text_12">
      <!-- 1.0 -->
      <g transform="translate(7.2 23.095219)scale(0.1 -0.1)">
       <use xlink:href="#DejaVuSans-31"/>
       <use xlink:href="#DejaVuSans-2e" x="63.623047"/>
       <use xlink:href="#DejaVuSans-30" x="95.410156"/>
      </g>
     </g>
    </g>
   </g>
   <g id="line2d_14"/>
   <g id="patch_3">
    <path d="M 30.103125 273.312 
L 30.103125 7.2 
" style="fill: none; stroke: #000000; stroke-width: 0.8; stroke-linejoin: miter; stroke-linecap: square"/>
   </g>
   <g id="patch_4">
    <path d="M 296.215125 273.312 
L 296.215125 7.2 
" style="fill: none; stroke: #000000; stroke-width: 0.8; stroke-linejoin: miter; stroke-linecap: square"/>
   </g>
   <g id="patch_5">
    <path d="M 30.103125 273.312 
L 296.215125 273.312 
" style="fill: none; stroke: #000000; stroke-width: 0.8; stroke-linejoin: miter; stroke-linecap: square"/>
   </g>
   <g id="patch_6">
    <path d="M 30.103125 7.2 
L 296.215125 7.2 
" style="fill: none; stroke: #000000; stroke-width: 0.8; stroke-linejoin: miter; stroke-linecap: square"/>
   </g>
  </g>
 </g>
 <defs>
  <clipPath id="p37572bce92">
   <rect x="30.103125" y="7.2" width="266.112" height="266.112"/>
  </clipPath>
 </defs>
</svg>
